<!-- Generated by IcoMoon.io -->
<svg version="1.1" xmlns="http://www.w3.org/2000/svg" width="32" height="32" viewBox="0 0 32 32">
<title>alarm</title>
<path d="M28.154 23.058c-0.832-1.242-1.972-2.943-1.972-7.785v-2.182c0-4.603-3.073-8.498-7.273-9.753v-0.429c0-1.604-1.305-2.909-2.909-2.909s-2.909 1.305-2.909 2.909v0.429c-4.2 1.255-7.273 5.15-7.273 9.753v2.182c0 4.842-1.139 6.543-1.972 7.785-0.482 0.719-0.938 1.399-0.938 2.397 0 2.371 4.943 3.203 8.95 3.49 0.562 1.799 2.211 3.056 4.141 3.056s3.579-1.257 4.141-3.056c4.007-0.287 8.95-1.119 8.95-3.49 0-0.998-0.456-1.678-0.937-2.397zM14.546 2.909c0-0.802 0.652-1.455 1.455-1.455s1.455 0.653 1.455 1.455v0.116c-0.476-0.069-0.959-0.116-1.455-0.116s-0.978 0.048-1.455 0.116v-0.116zM16 30.546c-1.087 0-2.042-0.6-2.538-1.51 1.031 0.044 1.925 0.055 2.538 0.055s1.507-0.012 2.538-0.055c-0.496 0.91-1.451 1.51-2.538 1.51zM16 27.636c-6.661 0-11.636-1.152-11.636-2.182 0-0.532 0.224-0.891 0.692-1.587 0.882-1.318 2.217-3.31 2.217-8.594v-2.182c0-4.812 3.915-8.727 8.727-8.727s8.727 3.915 8.727 8.727v2.182c0 5.284 1.335 7.276 2.217 8.594 0.467 0.697 0.692 1.055 0.692 1.587-0 1.030-4.976 2.182-11.636 2.182z"></path>
</svg>
