<!-- Generated by IcoMoon.io -->
<svg version="1.1" xmlns="http://www.w3.org/2000/svg" width="32" height="32" viewBox="0 0 32 32">
<title>alert-info-filled</title>
<path d="M4.704 4.672q-4.544 4.544-4.704 11.328 0.16 6.784 4.704 11.296 4.512 4.544 11.296 4.704 6.784-0.16 11.328-4.704t4.672-11.296q-0.128-6.752-4.672-11.328-4.576-4.544-11.328-4.672-6.752 0.128-11.296 4.672zM5.824 26.176q-4.064-4.096-4.224-10.176 0.16-6.112 4.224-10.176 4.096-4.096 10.176-4.224 6.112 0.128 10.176 4.224 4.096 4.064 4.224 10.176-0.128 6.080-4.224 10.176-4.064 4.064-10.176 4.224-6.080-0.16-10.176-4.224zM14.912 18.752q0 0.48 0.32 0.768 0.288 0.32 0.768 0.32t0.8-0.32q0.32-0.288 0.32-0.768v-11.040q0-0.48-0.32-0.8-0.32-0.288-0.8-0.288t-0.768 0.288q-0.32 0.32-0.32 0.8v11.040zM14.848 24.864q0.448 0.48 1.152 0.48t1.184-0.48q0.448-0.448 0.448-1.152 0-0.672-0.448-1.184-0.512-0.448-1.184-0.448-0.704 0.032-1.152 0.48-0.448 0.416-0.512 1.152 0.064 0.736 0.512 1.152z"></path>
</svg>
