<!-- Generated by IcoMoon.io -->
<svg version="1.1" xmlns="http://www.w3.org/2000/svg" width="32" height="32" viewBox="0 0 32 32">
<title>alert-warning</title>
<path d="M14.751 24.798q0 0.451 0.312 0.764 0.312 0.347 0.798 0.347t0.798-0.347q0.312-0.312 0.312-0.764t-0.312-0.798q-0.312-0.312-0.798-0.312t-0.798 0.312q-0.312 0.347-0.312 0.798zM16.416 21.779q0.208-0.208 0.208-0.521v-7.913q0-0.312-0.208-0.555-0.243-0.208-0.555-0.208-0.347 0-0.555 0.208-0.243 0.243-0.243 0.555v7.913q0 0.312 0.243 0.521 0.208 0.243 0.555 0.243 0.312 0 0.555-0.243zM15.965 3.731l13.918 25.371h-27.766zM32 29.866q0-0.208-0.174-0.486l-15.167-27.662q-0.208-0.382-0.694-0.382t-0.694 0.382l-15.167 27.8q-0.208 0.416 0 0.764 0.174 0.312 0.694 0.382h30.403z"></path>
</svg>
