<!-- Generated by IcoMoon.io -->
<svg version="1.1" xmlns="http://www.w3.org/2000/svg" width="32" height="32" viewBox="0 0 32 32">
<title>alert-info</title>
<path d="M4.704 4.672q-4.544 4.544-4.704 11.328 0.16 6.784 4.704 11.296 4.512 4.544 11.296 4.704 6.784-0.16 11.328-4.704t4.672-11.296q-0.128-6.752-4.672-11.328-4.576-4.544-11.328-4.672-6.752 0.128-11.296 4.672zM14.88 25.12q-0.448-0.448-0.448-1.152 0-0.672 0.448-1.12t1.152-0.448q0.672 0 1.12 0.448t0.448 1.12q0 0.704-0.448 1.152-0.416 0.416-1.152 0.48-0.704-0.064-1.12-0.48zM17.6 17.6q0 0.672-0.448 1.12t-1.12 0.448q-0.704 0-1.152-0.448-0.416-0.416-0.48-1.12v-11.2q0.064-0.736 0.48-1.152 0.448-0.448 1.152-0.448 0.672 0 1.12 0.448t0.448 1.152v11.2z"></path>
</svg>
