<!-- Generated by IcoMoon.io -->
<svg version="1.1" xmlns="http://www.w3.org/2000/svg" width="32" height="32" viewBox="0 0 32 32">
<title>alert-warning-filled</title>
<path d="M17.376 2.911q-0.608-0.992-1.376-0.992t-1.376 0.992l-14.305 24.802q-0.544 1.024-0.16 1.664t1.536 0.704h28.61q1.152-0.064 1.536-0.704t-0.16-1.664zM15.040 26.241q-0.384-0.384-0.384-0.96t0.384-0.992q0.384-0.384 0.96-0.384t0.992 0.384q0.384 0.416 0.384 0.992t-0.384 0.96q-0.416 0.384-0.992 0.384t-0.96-0.384zM17.376 21.088q-0.064 0.416-0.48 0.64-0.512 0.256-0.896 0.256-0.416 0-0.864-0.256-0.448-0.224-0.512-0.64v-9.057q0.064-0.416 0.512-0.64 0.448-0.256 0.864-0.256 0.384 0 0.896 0.256 0.416 0.224 0.48 0.64v9.057z"></path>
</svg>
