<!-- Generated by IcoMoon.io -->
<svg version="1.1" xmlns="http://www.w3.org/2000/svg" width="32" height="32" viewBox="0 0 32 32">
<title>aparat</title>
<path d="M13.537 0.816l0.587 0.098v0.098q-1.729 0.196-3.458 0.881-4.697 1.794-7.405 6.002h-0.033q0.718-3.621 1.044-4.436 0.881-2.12 2.968-3.034 1.109-0.424 2.186-0.424 0.75 0 4.11 0.816zM16.31 2.512q4.338 0 8.122 2.936 1.827 1.631 2.479 2.577 2.577 3.686 2.577 7.666v0.62q0 3.849-2.414 7.372-2.088 2.805-4.306 3.947-3.197 1.859-6.426 1.859h-0.652q-3.947 0-7.666-2.642-0.489-0.359-1.827-1.598-1.892-2.153-2.61-4.045-1.011-2.479-1.011-4.893v-0.62q0-4.338 2.936-8.122 1.468-1.729 2.577-2.414 3.653-2.642 7.666-2.642h0.555zM24.139 3.164q3.817 0.881 4.567 1.142 0.848 0.391 1.827 1.337 1.468 1.761 1.468 3.458v0.457q0 0.783-0.75 3.849-0.163 0.555-0.163 0.718h-0.065q-0.163-1.696-0.848-3.523-1.859-4.73-6.067-7.339v-0.098h0.033zM10.83 12.95q0.913 0.489 1.794 0.489 2.022 0 3.132-1.957 0.261-0.783 0.261-1.435 0-1.794-1.696-2.871-0.881-0.424-1.696-0.424-1.957 0-3.066 2.022-0.294 0.718-0.294 1.337 0 1.729 1.566 2.838zM20.583 15.69q0.75 0.294 1.403 0.294 1.761 0 2.903-1.696 0.424-0.913 0.424-1.664 0-1.892-1.794-2.968-0.979-0.391-1.566-0.391-1.794 0-2.903 1.533-0.489 0.913-0.489 1.827 0 1.99 2.022 3.066zM14.32 15.984q0 1.044 1.044 1.566 0.294 0.13 0.652 0.13 1.076 0 1.566-1.044 0.098-0.391 0.098-0.652 0-1.011-1.044-1.533-0.196-0.13-0.62-0.13-1.044 0-1.566 1.044zM8.579 22.345q0.881 0.391 1.533 0.391 1.729 0 2.838-1.566 0.555-0.913 0.555-1.794 0-1.99-1.99-3.066-0.685-0.326-1.403-0.326-1.761 0-2.936 1.729-0.424 0.881-0.424 1.664 0 1.827 1.827 2.968zM1.011 17.876q0.326 2.512 1.207 4.404 2.153 4.338 5.676 6.459v0.033q-3.621-0.75-4.534-1.076-0.979-0.424-1.892-1.337-1.435-1.696-1.435-3.49v-0.196q0-0.098-0.033-0.098 0-0.816 0.881-4.436 0.098-0.196 0.098-0.261h0.033zM17.713 24.824q0.913 0.424 1.664 0.424 1.925 0 3.034-1.892 0.326-0.685 0.326-1.468 0-1.729-1.533-2.838-0.848-0.555-1.827-0.555-1.99 0-3.066 2.022-0.294 0.75-0.294 1.435 0 1.729 1.696 2.871zM28.836 24.106q-0.783 3.686-1.109 4.502-0.946 2.12-2.936 2.936-1.044 0.457-2.218 0.457-0.685 0-4.077-0.816l-0.62-0.098v-0.098q2.512-0.326 4.404-1.207 3.98-1.827 6.491-5.676h0.065z"></path>
</svg>
