<!-- Generated by IcoMoon.io -->
<svg version="1.1" xmlns="http://www.w3.org/2000/svg" width="32" height="32" viewBox="0 0 32 32">
<title>arrow-circle-right</title>
<path d="M4.704 4.672q-4.544 4.544-4.704 11.328 0.16 6.784 4.704 11.296 4.512 4.544 11.296 4.704 6.784-0.16 11.328-4.704t4.672-11.296q-0.128-6.752-4.672-11.328-4.576-4.544-11.328-4.672-6.752 0.128-11.296 4.672zM5.728 26.272q-4.16-4.096-4.288-10.272 0.128-6.144 4.288-10.304 4.128-4.128 10.272-4.256 6.144 0.128 10.304 4.256 4.128 4.16 4.256 10.304-0.128 6.144-4.256 10.272-4.16 4.16-10.304 4.288-6.176-0.128-10.272-4.288zM18.912 11.904q-0.192-0.192-0.48-0.192-0.32 0-0.48 0.192-0.192 0.192-0.192 0.48 0 0.256 0.16 0.48l2.432 2.4h-10.368q-0.32 0-0.512 0.224-0.224 0.224-0.224 0.512 0 0.32 0.224 0.512 0.192 0.224 0.512 0.224h10.272q-0.832 0.736-1.6 1.568l-0.736 0.832q-0.16 0.224-0.16 0.48t0.16 0.48q0.256 0.256 0.48 0.256 0.096 0 0.288-0.064t0.224-0.192l3.616-3.616q0.16-0.224 0.16-0.48t-0.16-0.48z"></path>
</svg>
