<!-- Generated by IcoMoon.io -->
<svg version="1.1" xmlns="http://www.w3.org/2000/svg" width="32" height="32" viewBox="0 0 32 32">
<title>arrow-circle-up</title>
<path d="M4.704 4.672q-4.544 4.544-4.704 11.328 0.16 6.784 4.704 11.296 4.512 4.544 11.296 4.704 6.784-0.16 11.328-4.704t4.672-11.296q-0.128-6.752-4.672-11.328-4.576-4.544-11.328-4.672-6.752 0.128-11.296 4.672zM5.728 26.272q-4.16-4.096-4.288-10.272 0.128-6.144 4.288-10.304 4.128-4.128 10.272-4.256 6.144 0.128 10.304 4.256 4.128 4.16 4.256 10.304-0.128 6.144-4.256 10.272-4.16 4.16-10.304 4.288-6.176-0.128-10.272-4.288zM16.48 9.504q-0.192-0.192-0.48-0.192t-0.48 0.192l-3.616 3.616q-0.128 0.032-0.192 0.192-0.064 0.192-0.064 0.288 0 0.224 0.256 0.48 0.224 0.16 0.48 0.16t0.48-0.16l0.832-0.736q0.832-0.768 1.568-1.6v10.304q0 0.288 0.224 0.48 0.224 0.224 0.512 0.224t0.512-0.224q0.224-0.192 0.224-0.48v-10.4l2.4 2.432q0.224 0.16 0.48 0.16 0.288 0 0.48-0.192 0.192-0.16 0.192-0.448t-0.192-0.48z"></path>
</svg>
