<!-- Generated by IcoMoon.io -->
<svg version="1.1" xmlns="http://www.w3.org/2000/svg" width="32" height="32" viewBox="0 0 32 32">
<title>arrow-double-loop</title>
<path d="M31.753 14.995q0.247 0.247 0.247 0.6-0.141 6.915-4.798 11.572t-11.607 4.834q-4.375-0.071-8.009-2.117t-5.963-5.751v4.657q0 0.353-0.247 0.564-0.247 0.247-0.565 0.247t-0.565-0.247q-0.247-0.212-0.247-0.564v-6.386q0-0.318 0.247-0.564t0.565-0.247h6.386q0.353 0 0.6 0.247 0.212 0.247 0.212 0.564 0 0.282-0.212 0.564-0.247 0.247-0.6 0.247h-4.304q2.082 3.422 5.398 5.257 3.316 1.87 7.303 1.94 6.245-0.141 10.443-4.34t4.34-10.443q0-0.388 0.247-0.635 0.212-0.212 0.564-0.212 0.318 0 0.564 0.212zM31.189 2.399q0.318 0 0.564 0.212 0.247 0.247 0.247 0.6v6.386q0 0.318-0.247 0.565t-0.564 0.247h-6.421q-0.353 0-0.564-0.247-0.247-0.247-0.247-0.565t0.247-0.565q0.212-0.247 0.564-0.247h4.34q-2.046-3.387-5.398-5.292-3.316-1.835-7.338-1.905-6.28 0.141-10.443 4.304-4.128 4.128-4.304 10.514 0 0.353-0.247 0.564-0.247 0.247-0.565 0.247-0.353 0-0.565-0.247-0.247-0.212-0.247-0.564 0.141-6.915 4.798-11.607 4.657-4.657 11.572-4.798 4.34 0.035 8.044 2.117 3.669 2.082 5.962 5.751v-4.657q0-0.353 0.247-0.6 0.282-0.212 0.564-0.212z"></path>
</svg>
