<!-- Generated by IcoMoon.io -->
<svg version="1.1" xmlns="http://www.w3.org/2000/svg" width="32" height="32" viewBox="0 0 32 32">
<title>arrow-single-loop</title>
<path d="M30.901 14.868q0.459 0 0.788 0.295 0.295 0.328 0.295 0.821-0.066 4.464-2.133 8.008-2.101 3.61-5.842 5.809-3.676 2.199-8.041 2.199-4.431-0.066-8.008-2.166-3.61-2.133-5.776-5.809-2.199-3.709-2.166-8.074 0-4.365 2.133-7.975 2.133-3.643 5.809-5.842 3.709-2.133 8.008-2.133 3.873 0 7.056 1.674 3.151 1.74 5.35 4.89v-3.216q0-0.492 0.328-0.821 0.295-0.295 0.788-0.295t0.82 0.295q0.295 0.328 0.295 0.821v7.056q0 0.492-0.295 0.788-0.328 0.328-0.82 0.328h-4.857q-0.492 0-0.788-0.328-0.328-0.295-0.328-0.788t0.328-0.82q0.295-0.295 0.788-0.295h2.757q-1.805-3.413-4.726-5.251-2.888-1.805-6.695-1.805-5.842 0.131-9.715 4.004t-4.037 9.78q0.131 5.809 4.037 9.715t9.715 4.037q5.809-0.131 9.715-4.037t4.037-9.715q0.066-0.525 0.361-0.82 0.328-0.328 0.82-0.328z"></path>
</svg>
