<!-- Generated by IcoMoon.io -->
<svg version="1.1" xmlns="http://www.w3.org/2000/svg" width="32" height="32" viewBox="0 0 32 32">
<title>barbecue</title>
<path d="M13.849 17.029c0.091-0.382-0.146-0.765-0.528-0.856-0.551-0.13-1.354-1.333-1.282-1.92 0.048-0.39-0.23-0.744-0.62-0.792-0.391-0.048-0.744 0.23-0.792 0.62-0.158 1.298 1.124 3.182 2.366 3.476 0.055 0.013 0.11 0.019 0.164 0.019 0.322 0 0.614-0.22 0.691-0.547z"></path>
<path d="M24.954 25.659c-0.14 0-0.278 0.010-0.414 0.026l-1.896-4.695c0.934-0.534 1.783-1.225 2.519-2.062 1.717-1.953 2.702-4.558 2.702-7.147 0-0.393-0.318-0.711-0.711-0.711h-18.97c-0.393 0-0.711 0.318-0.711 0.711 0 0.467 0.032 0.934 0.095 1.398h-3.069c-0.393 0-0.711 0.318-0.711 0.711s0.318 0.711 0.711 0.711h3.359c0.436 1.591 1.229 3.090 2.317 4.327 0.714 0.812 1.534 1.488 2.435 2.015l-3.959 10.085c-0.144 0.366 0.036 0.778 0.402 0.922 0.085 0.034 0.173 0.049 0.26 0.049 0.284 0 0.552-0.171 0.662-0.451l0.899-2.29h10.852c0.216 1.546 1.581 2.741 3.229 2.741 1.797 0 3.26-1.422 3.26-3.17s-1.462-3.17-3.26-3.17zM11.242 17.99c-1.335-1.518-2.16-3.489-2.319-5.497h17.491c-0.159 2.008-0.985 3.979-2.319 5.497-0.606 0.689-1.459 1.447-2.598 2.012-0.006 0.002-0.011 0.004-0.017 0.006-0.035 0.014-0.068 0.032-0.099 0.050-1.010 0.481-2.238 0.809-3.711 0.809-1.509 0-2.761-0.343-3.785-0.844-0.039-0.025-0.080-0.046-0.124-0.064-0.001-0-0.003-0.001-0.004-0.002-1.097-0.56-1.923-1.297-2.513-1.969zM13.891 21.571c1.174 0.472 2.448 0.719 3.777 0.719 1.296 0 2.54-0.234 3.689-0.683l1.84 4.555c-0.623 0.389-1.102 0.979-1.338 1.675h-10.428l2.46-6.265zM24.954 30.578c-1.013 0-1.837-0.784-1.837-1.748s0.824-1.748 1.837-1.748c1.013 0 1.837 0.784 1.837 1.748s-0.824 1.748-1.837 1.748z"></path>
<path d="M11.967 8.795c-0.324 0.222-0.406 0.665-0.184 0.989 0.138 0.201 0.36 0.309 0.587 0.309 0.139 0 0.279-0.041 0.402-0.125 2.322-1.594 1.269-3.307 0.763-4.131-0.559-0.91-0.798-1.422 0.356-2.214 0.324-0.222 0.406-0.665 0.184-0.989s-0.665-0.406-0.989-0.184c-2.322 1.594-1.269 3.308-0.762 4.131 0.559 0.91 0.797 1.422-0.356 2.214z"></path>
<path d="M21.537 8.795c-0.324 0.222-0.406 0.665-0.184 0.989 0.138 0.201 0.36 0.309 0.587 0.309 0.139 0 0.279-0.041 0.402-0.125 2.322-1.594 1.269-3.308 0.763-4.131-0.559-0.91-0.798-1.422 0.356-2.214 0.324-0.222 0.406-0.665 0.184-0.989s-0.665-0.406-0.989-0.184c-2.322 1.594-1.269 3.307-0.763 4.131 0.559 0.91 0.797 1.422-0.356 2.214z"></path>
<path d="M16.231 8.795c-0.324 0.222-0.406 0.665-0.184 0.989 0.138 0.201 0.36 0.309 0.587 0.309 0.139 0 0.279-0.041 0.402-0.125 2.968-2.038 1.617-4.237 0.968-5.294-0.804-1.309-1.168-2.189 0.561-3.376 0.324-0.222 0.406-0.665 0.184-0.989s-0.665-0.406-0.989-0.184c-2.968 2.038-1.617 4.236-0.967 5.293 0.804 1.309 1.168 2.19-0.561 3.377z"></path>
</svg>
