<!-- Generated by IcoMoon.io -->
<svg version="1.1" xmlns="http://www.w3.org/2000/svg" width="32" height="32" viewBox="0 0 32 32">
<title>bath-tube</title>
<path d="M28.969 19.788h-25.937v2.321q0.067 2.859 2.018 4.844 1.985 1.951 4.844 2.018h12.178q2.927-0.067 4.878-2.018 1.985-1.985 2.018-4.844v-2.321zM30.482 17.501q0-0.303-0.202-0.538-0.235-0.202-0.538-0.202h-27.485q-0.303 0-0.505 0.202-0.236 0.235-0.236 0.572t0.236 0.538q0.202 0.202 0.505 0.202h27.485q0.303 0 0.538-0.235 0.202-0.202 0.202-0.505v-0.034zM5.857 3.843q-0.135 0.807 0.269 1.581l3.499-3.499q-0.538-0.303-1.211-0.303-1.077 0-1.817 0.74-0.639 0.639-0.74 1.48zM3.031 15.213h26.711q0.976 0.034 1.581 0.673 0.606 0.606 0.673 1.615v0.034q0 0.74-0.404 1.312t-1.11 0.841v2.422q0 3.97-3.061 6.425v2.691q0 0.336-0.202 0.538-0.235 0.236-0.538 0.236-0.336 0-0.538-0.235-0.235-0.202-0.235-0.538v-1.682q-1.749 0.942-3.801 0.942h-12.212q-2.052 0-3.801-0.942v1.682q0 0.336-0.202 0.538-0.236 0.235-0.538 0.235-0.336 0-0.538-0.235-0.236-0.202-0.236-0.538v-2.691q-3.061-2.456-3.061-6.425v-2.422q-0.706-0.269-1.11-0.841t-0.404-1.312 0.404-1.346q0.404-0.572 1.11-0.807v-13.12q0.101-1.447 1.278-2.018t2.389 0.202l0.706 0.538q1.278-0.976 2.792-0.908 1.48 0.101 2.658 1.211 0.236 0.236 0.236 0.538 0 0.336-0.236 0.538l-4.743 4.777q-0.538 0.538-1.077 0-1.211-1.211-1.211-2.927 0-1.211 0.572-2.086l-0.606-0.471q-0.471-0.269-0.807-0.067-0.404 0.236-0.437 0.673v12.952z"></path>
</svg>
