<!-- Generated by IcoMoon.io -->
<svg version="1.1" xmlns="http://www.w3.org/2000/svg" width="32" height="32" viewBox="0 0 32 32">
<title>bed-single</title>
<path d="M24.457 2.042q-0.072-0.896-0.609-1.433t-1.433-0.609h-12.829q-0.896 0.072-1.433 0.609t-0.609 1.433v7.31l-3.189 10.786v6.593q0.072 0.86 0.573 1.433 0.537 0.609 1.326 0.645v2.437q0 0.323 0.251 0.537 0.215 0.215 0.537 0.215t0.537-0.215 0.215-0.537v-2.401h16.412v2.401q0 0.323 0.215 0.537t0.537 0.215 0.573-0.215q0.215-0.215 0.215-0.537v-2.437q0.824-0.072 1.362-0.645 0.537-0.609 0.537-1.433v-6.414l-3.189-10.965v-7.31zM18.544 4.623q0.251 0 0.394 0.143t0.143 0.394v5.089q0 0.215-0.143 0.358-0.179 0.179-0.394 0.179h-5.089q-0.179 0-0.358-0.179t-0.179-0.358v-5.089q0-0.215 0.179-0.394 0.143-0.143 0.358-0.143h5.089zM20.623 8.672v-3.44q-0.036-0.932-0.609-1.469-0.537-0.573-1.469-0.609h-5.089q-0.896 0.036-1.469 0.609-0.537 0.537-0.609 1.469v3.44h-2.329l0.036-6.629q0.036-0.466 0.502-0.502h12.829q0.466 0.036 0.502 0.502v6.629h-2.293zM11.413 10.392q0.072 0.86 0.609 1.362 0.573 0.502 1.433 0.573h5.089q0.86-0.072 1.433-0.573 0.573-0.537 0.645-1.362h2.508l2.759 9.281h-19.745l2.723-9.281h2.544zM26.141 26.732q0 0.215-0.143 0.358-0.179 0.179-0.394 0.179h-19.207q-0.179 0-0.358-0.179t-0.179-0.358v-5.519h20.282v5.519z"></path>
</svg>
