<!-- Generated by IcoMoon.io -->
<svg version="1.1" xmlns="http://www.w3.org/2000/svg" width="32" height="32" viewBox="0 0 32 32">
<title>bed-mattress</title>
<path d="M27.328 8.784q-0.32-0.608-0.928-1.024-0.608-0.384-1.344-0.384h-2.080q-0.224-0.512-0.736-0.864-0.48-0.288-1.056-0.288h-10.208q-0.576 0-1.056 0.288-0.48 0.32-0.768 0.864h-2.208q-0.672 0-1.312 0.384-0.64 0.448-0.96 1.024l-4.352 8.768q-0.192 0.384-0.224 0.672-0.096 0.416-0.096 0.736v3.84q0.064 1.28 0.896 2.080 0.8 0.832 2.080 0.896h26.048q1.28-0.064 2.112-0.896 0.8-0.8 0.864-2.080v-3.84q0-0.16-0.064-0.736-0.064-0.32-0.256-0.672zM30.592 22.8q-0.064 0.704-0.448 1.088-0.416 0.416-1.12 0.48h-26.048q-0.64-0.032-1.088-0.48t-0.48-1.088v-1.696q0.992 0.704 2.496 0.704h23.872q1.728 0 2.816-0.608v1.6zM8.512 10.224q-0.128 0.768 0.384 1.344 0.48 0.544 1.248 0.608h11.68q0.768 0 1.28-0.576 0.48-0.576 0.384-1.344l-0.192-1.472h1.76q0.288 0 0.576 0.192t0.416 0.416l4.352 8.8q0.16 0.48 0.128 0.352 0.064 0.32 0.064 0.416v0.352q-0.032 0.224-0.608 0.64-0.544 0.384-2.208 0.448h-23.872q-1.28 0-1.952-0.672-0.256-0.32-0.352-0.544-0.096-0.16-0.16-0.352 0.032-0.352 0.16-0.64l4.352-8.8q0.16-0.288 0.416-0.448 0.32-0.16 0.576-0.16h1.856zM10.336 8.176q0.032-0.224 0.256-0.384 0.128-0.128 0.384-0.128h10.208q0.224 0 0.384 0.128 0.128 0.128 0.192 0.352l0.32 2.304q0.032 0.096-0.032 0.224-0.096 0.096-0.224 0.096h-11.68q-0.128 0-0.192-0.096-0.064-0.064-0.032-0.16z"></path>
</svg>
