<!-- Generated by IcoMoon.io -->
<svg version="1.1" xmlns="http://www.w3.org/2000/svg" width="32" height="32" viewBox="0 0 32 32">
<title>bed-double-2</title>
<path d="M27.456 3.52q-0.064-0.768-0.512-1.28-0.48-0.512-1.312-0.544h-19.264q-0.832 0.064-1.28 0.544-0.48 0.48-0.544 1.28v6.656l-4.544 9.6v5.856q0.064 0.736 0.512 1.248 0.48 0.544 1.184 0.576v2.144q0 0.288 0.224 0.48 0.192 0.224 0.48 0.224t0.512-0.224q0.192-0.192 0.192-0.48v-2.144h25.824v2.144q0 0.288 0.192 0.48 0.192 0.224 0.48 0.224t0.512-0.224q0.192-0.192 0.192-0.48v-2.144q0.736-0.064 1.216-0.576 0.48-0.544 0.48-1.248v-5.824l-4.544-9.632v-6.656zM23.36 5.92q0.416 0.032 0.448 0.448v4.512q-0.032 0.416-0.448 0.448h-4.512q-0.416-0.032-0.448-0.448v-4.512q0.032-0.416 0.448-0.448h4.512zM13.6 10.88q-0.032 0.416-0.448 0.448h-4.512q-0.416-0.032-0.448-0.448v-4.512q0.032-0.416 0.448-0.448h4.512q0.416 0.032 0.448 0.448v4.512zM25.184 9.632v-3.264q-0.032-0.8-0.512-1.312-0.512-0.48-1.312-0.512h-4.512q-0.8 0.032-1.312 0.512-0.48 0.48-0.544 1.312v3.264h-1.984v-3.264q-0.032-0.832-0.544-1.312t-1.312-0.512h-4.512q-0.8 0.032-1.28 0.512t-0.544 1.312v3.264h-0.896v-6.112q0-0.16 0.128-0.288t0.32-0.128h19.264q0.192 0 0.32 0.128t0.128 0.288v6.112h-0.896zM6.816 11.040q0.032 0.704 0.576 1.184 0.512 0.448 1.248 0.512h4.512q0.736-0.064 1.248-0.512 0.544-0.48 0.576-1.184h2.048q0.032 0.704 0.576 1.184 0.512 0.448 1.248 0.512h4.512q0.736-0.064 1.248-0.512 0.544-0.48 0.576-1.184h1.152l3.872 8.224h-28.416l3.872-8.224h1.152zM30.624 25.632q0 0.192-0.128 0.32t-0.32 0.128h-28.352q-0.16 0-0.288-0.128-0.16-0.16-0.16-0.32v-4.96h29.248v4.96z"></path>
</svg>
