<!-- Generated by IcoMoon.io -->
<svg version="1.1" xmlns="http://www.w3.org/2000/svg" width="32" height="32" viewBox="0 0 32 32">
<title>bed-double</title>
<path d="M29.728 11.488q0-0.704-0.448-1.344-0.48-0.576-1.184-0.768l-0.864-0.192-0.256-4q-0.032-0.704-0.608-1.28-0.512-0.448-1.312-0.512h-18.112q-0.8 0.064-1.312 0.512-0.576 0.576-0.608 1.28l-0.256 3.968-0.864 0.224q-0.704 0.192-1.152 0.768-0.48 0.608-0.48 1.344v5.472l-2.272 4.544v2.432q0.064 0.736 0.512 1.248 0.416 0.512 1.184 0.576v2.144q0 0.288 0.224 0.48 0.192 0.224 0.48 0.224t0.512-0.224q0.224-0.192 0.224-0.48v-2.144h25.76v2.144q0 0.288 0.192 0.48 0.192 0.224 0.512 0.224 0.288 0 0.512-0.224 0.192-0.192 0.192-0.48v-2.144q0.736-0.064 1.216-0.576 0.48-0.544 0.48-1.248v-2.432l-2.272-4.544v-5.472zM3.68 11.488q0-0.256 0.192-0.48 0.16-0.224 0.384-0.256l0.288-0.064v1.76l-0.864 1.696v-2.656zM16.704 4.832h8.352q0.224 0 0.352 0.128 0.096 0.064 0.16 0.32l0.416 6.624h-9.28v-7.072zM6.432 5.28q0.032-0.16 0.192-0.32 0.128-0.128 0.32-0.128h8.352v7.072h-9.312zM27.456 10.688l0.288 0.064q0.192 0.032 0.416 0.256 0.16 0.256 0.16 0.48v2.656l-0.864-1.696v-1.76zM5.664 13.312h20.64l3.84 7.648h-28.288zM30.592 23.936q0 0.16-0.128 0.288t-0.32 0.128h-28.288q-0.192 0-0.32-0.128t-0.128-0.288v-1.568h29.184v1.568z"></path>
</svg>
