<!-- Generated by IcoMoon.io -->
<svg version="1.1" xmlns="http://www.w3.org/2000/svg" width="32" height="32" viewBox="0 0 32 32">
<title>bed-double-3</title>
<path d="M27.488 3.584q-0.032-0.832-0.544-1.312-0.48-0.512-1.312-0.544h-19.264q-0.832 0.064-1.28 0.544-0.48 0.48-0.544 1.312v6.24l-4.544 10.56v7.264q0.064 1.152 0.768 1.856t1.856 0.768h26.752q1.152-0.064 1.856-0.768t0.768-1.856v-7.232l-4.512-10.592v-6.24zM30.592 27.648q0 0.512-0.352 0.864t-0.864 0.352h-26.752q-0.512 0-0.864-0.352t-0.352-0.864v-0.704h29.184v0.704zM13.728 12.768q0.832-0.064 1.312-0.544 0.48-0.448 0.544-1.28v-0.416h0.832v0.416q0.064 0.832 0.544 1.28 0.512 0.48 1.312 0.544h5.088q0.832-0.064 1.312-0.544 0.48-0.448 0.544-1.28v-0.416h1.024l3.936 9.216q-0.544-0.16-0.864-0.32-0.416-0.192-0.832-0.416-0.512-0.352-1.152-0.576-0.672-0.256-1.344-0.256-0.64 0-1.312 0.256-0.704 0.256-1.184 0.576-0.608 0.352-1.184 0.576-0.608 0.288-1.408 0.288-0.736 0-1.376-0.288-0.672-0.256-1.216-0.576-0.512-0.288-1.184-0.608-0.672-0.256-1.344-0.256-0.736 0-1.472 0.288-0.48 0.192-1.376 0.64l-1.152 0.544q-0.608 0.256-1.056 0.256-0.544 0-0.992-0.224-0.704-0.32-1.056-0.512-0.544-0.288-1.408-0.672-0.768-0.288-1.664-0.288-0.928 0-1.6 0.32-0.704 0.32-1.312 0.704l-0.8 0.416 3.872-9.088h1.024v0.416q0.064 0.832 0.544 1.28 0.512 0.48 1.312 0.544h5.088zM23.36 5.984q0.16 0 0.288 0.128t0.128 0.288v4.544q0 0.16-0.128 0.288t-0.288 0.128h-5.088q-0.16 0-0.288-0.128t-0.128-0.288v-4.544q0-0.16 0.128-0.288t0.288-0.128h5.088zM8.224 6.4q0-0.16 0.128-0.288t0.288-0.128h5.088q0.192 0 0.32 0.128t0.128 0.288v4.544q0 0.16-0.128 0.288t-0.32 0.128h-5.088q-0.16 0-0.288-0.128t-0.128-0.288v-4.544zM25.216 9.088v-2.688q-0.064-0.8-0.544-1.28-0.48-0.512-1.312-0.544h-5.088q-0.8 0.032-1.312 0.544-0.48 0.48-0.544 1.28v2.688h-0.832v-2.688q-0.064-0.8-0.544-1.28-0.48-0.512-1.312-0.544h-5.088q-0.8 0.032-1.312 0.544-0.48 0.48-0.544 1.28v2.688h-0.832v-5.504q0-0.16 0.128-0.288t0.288-0.128h19.264q0.384 0 0.416 0.416v5.504h-0.832zM6.816 19.808q0.512 0.224 1.184 0.576 0.832 0.448 1.28 0.608 0.704 0.288 1.44 0.256 0.736 0 1.44-0.288 0.384-0.128 1.408-0.608l1.152-0.544q0.48-0.224 1.024-0.224 0.512 0 0.928 0.192 0.48 0.224 0.928 0.48 0.704 0.384 1.472 0.672 0.736 0.32 1.824 0.32t1.856-0.32q0.8-0.288 1.408-0.672 0.448-0.256 0.928-0.48 0.448-0.192 0.896-0.192 0.48 0 0.896 0.192 0.48 0.224 0.928 0.48 0.48 0.256 1.216 0.576 0.64 0.32 1.568 0.416v4.288h-29.184v-4.288q0.576-0.096 1.056-0.32 0.64-0.32 0.928-0.512 0.544-0.352 1.056-0.576 0.576-0.256 1.152-0.256 0.672 0 1.216 0.224z"></path>
</svg>
