<!-- Generated by IcoMoon.io -->
<svg version="1.1" xmlns="http://www.w3.org/2000/svg" width="32" height="32" viewBox="0 0 32 32">
<title>billiard</title>
<path d="M16 0c-8.822 0-16 7.178-16 16s7.178 16 16 16 16-7.178 16-16-7.177-16-16-16zM16 30.968c-8.253 0-14.968-6.715-14.968-14.968s6.715-14.968 14.968-14.968 14.968 6.714 14.968 14.968-6.715 14.968-14.968 14.968z"></path>
<path d="M27.439 20.79c-0.257-0.121-0.565-0.010-0.686 0.248-0.86 1.831-2.185 3.425-3.833 4.609-0.232 0.166-0.284 0.489-0.118 0.72 0.101 0.14 0.259 0.215 0.419 0.215 0.104 0 0.21-0.031 0.301-0.097 1.791-1.287 3.231-3.019 4.165-5.009 0.121-0.258 0.010-0.566-0.248-0.686z"></path>
<path d="M10.323 5.677c-3.984 0-7.226 3.241-7.226 7.226s3.241 7.226 7.226 7.226c3.984 0 7.226-3.241 7.226-7.226s-3.242-7.226-7.226-7.226zM10.323 19.097c-3.415 0-6.194-2.778-6.194-6.194s2.778-6.194 6.194-6.194c3.415 0 6.194 2.778 6.194 6.194s-2.778 6.194-6.194 6.194z"></path>
<path d="M10.289 12.365v-0.028c0.753-0.358 1.007-0.913 1.007-1.43 0-0.762-0.593-1.506-1.779-1.506-1.073 0-1.892 0.659-1.892 1.628 0 0.527 0.292 1.054 0.97 1.374l0.009 0.028c-0.753 0.32-1.214 0.866-1.214 1.638 0 0.894 0.772 1.656 2.052 1.656 1.167 0 2.080-0.715 2.080-1.779 0-0.744-0.471-1.28-1.233-1.581zM8.406 10.972c0-0.527 0.377-0.979 1.063-0.979 0.744 0 1.035 0.508 1.035 0.998 0 0.555-0.404 0.932-0.932 1.11-0.705-0.188-1.167-0.518-1.167-1.129zM9.46 15.122c-0.781 0-1.251-0.546-1.223-1.167 0-0.584 0.386-1.054 1.101-1.261 0.828 0.235 1.346 0.593 1.346 1.337 0 0.631-0.48 1.092-1.224 1.092z"></path>
</svg>
