<!-- Generated by IcoMoon.io -->
<svg version="1.1" xmlns="http://www.w3.org/2000/svg" width="32" height="32" viewBox="0 0 32 32">
<title>calendar-tag</title>
<path d="M17.814 21.31q-0.389 0-0.708-0.212-0.248-0.354-0.248-0.708t0.248-0.708q0.248-0.248 0.708-0.248t0.708 0.248q0.283 0.283 0.283 0.673 0 0.354-0.283 0.743-0.319 0.212-0.708 0.212zM22.062 18.726q-0.319-0.354-0.743-0.354l-3.894-0.319q-0.354-0.142-0.779 0.212l-0.85 0.956q-0.319 0.142-0.319 0.743l0.354 3.894q0 0.319 0.354 0.779l7.257 7.186q0.354 0.354 0.673 0l5.239-5.204q0.319-0.319 0-0.673zM24.469 9.982h-18.938v16.071h9.487l3.044 2.938h-15.575v-23.965h4.035v-2.513q0.071-1.133 0.743-1.805t1.77-0.673q1.062 0 1.735 0.673 0.602 0.673 0.673 1.805v2.513h7.044v-2.513q0.071-1.097 0.743-1.77t1.735-0.743q1.168 0.071 1.805 0.708t0.708 1.805v2.513h4.035v16.566l-3.044-3.044v-8.566z"></path>
</svg>
