<!-- Generated by IcoMoon.io -->
<svg version="1.1" xmlns="http://www.w3.org/2000/svg" width="32" height="32" viewBox="0 0 32 32">
<title>calendar</title>
<path d="M26.176 4.48v-1.056q-0.064-1.344-0.896-2.24-0.832-0.832-2.208-0.896h-0.576q-1.376 0.064-2.208 0.896-0.864 0.864-0.928 2.24v1.056h-6.432v-1.056q-0.064-1.344-0.896-2.24-0.896-0.832-2.208-0.896h-0.576q-1.376 0.064-2.208 0.896-0.864 0.864-0.928 2.24v1.056h-3.904q-0.896 0-1.536 0.544-0.608 0.576-0.672 1.504v22.976q0.064 0.896 0.672 1.536 0.64 0.608 1.536 0.672h20.576l0.192-0.032q0.256-0.096 0.32-0.16 0.032 0 0.064-0.032l8.384-8.736q0.064-0.032 0.128-0.16 0.032-0.032 0.032-0.064 0.064-0.128 0.064-0.224 0-0.032 0.032-0.032v-15.744q-0.064-0.96-0.64-1.504-0.64-0.544-1.568-0.544h-3.616zM20.992 3.424q0-0.512 0.352-1.024 0.32-0.416 0.896-0.48h1.056q0.576 0.064 0.896 0.48 0.352 0.512 0.352 1.024v3.904q0 0.544-0.352 0.992-0.32 0.448-0.896 0.512h-1.056q-0.576-0.064-0.896-0.512-0.352-0.512-0.352-1.024v-3.872zM7.744 3.424q0-0.512 0.352-1.024 0.32-0.416 0.896-0.48h1.056q0.576 0.064 0.896 0.48 0.352 0.512 0.352 1.024v3.872q0 0.512-0.352 1.024-0.32 0.448-0.896 0.512h-1.056q-0.576-0.064-0.896-0.512-0.352-0.512-0.352-1.024v-3.872zM6.112 6.080v1.216q0.064 1.376 0.928 2.208 0.832 0.864 2.176 0.928h0.576q1.376-0.064 2.24-0.928 0.832-0.832 0.896-2.208v-1.216h6.432v1.216q0.064 1.376 0.928 2.208 0.832 0.864 2.208 0.928h0.576q1.344-0.064 2.208-0.928 0.832-0.832 0.896-2.208v-1.216h3.872q0.32 0 0.32 0.32v6.496h-28.736v-6.496q0.032-0.32 0.32-0.32h4.16zM1.632 14.496h28.736v6.816h-7.424q-0.416 0-0.672 0.256-0.288 0.288-0.288 0.672v7.84h-20.032q-0.288-0.032-0.32-0.32v-15.264zM23.584 22.944h5.792l-5.792 5.984v-5.984z"></path>
</svg>
