<!-- Generated by IcoMoon.io -->
<svg version="1.1" xmlns="http://www.w3.org/2000/svg" width="32" height="32" viewBox="0 0 32 32">
<title>calendar-T</title>
<path d="M15.188 15.823h-3.709q-0.353 0-0.565-0.247-0.247-0.212-0.247-0.565 0-0.318 0.247-0.565 0.212-0.212 0.565-0.212h9.042q0.353 0 0.6 0.212 0.212 0.247 0.212 0.565 0 0.353-0.212 0.565-0.247 0.247-0.6 0.247h-3.709v10.737q0 0.353-0.212 0.565-0.247 0.247-0.6 0.247t-0.565-0.247q-0.247-0.212-0.247-0.565v-10.737zM28.821 11.161h-25.607v18.826q0 0.389 0.389 0.389h24.83q0.389 0 0.389-0.389v-18.826zM28.821 9.572v-5.192q0-0.424-0.389-0.424h-3.603v0.812q-0.071 1.060-0.706 1.695-0.671 0.671-1.695 0.671t-1.695-0.671q-0.636-0.636-0.706-1.695v-0.812h-8.018v0.812q-0.071 1.060-0.706 1.695-0.671 0.671-1.695 0.671t-1.695-0.671q-0.636-0.636-0.706-1.695v-0.812h-3.603q-0.389 0-0.389 0.424v5.192h25.607zM21.581 4.768q0 0.318 0.247 0.53 0.212 0.247 0.565 0.247t0.6-0.247q0.212-0.212 0.212-0.53v-2.402q0-0.318-0.212-0.565-0.247-0.212-0.6-0.212t-0.565 0.212q-0.247 0.247-0.247 0.565v2.402zM8.795 4.768q0 0.318 0.247 0.53 0.212 0.247 0.565 0.247t0.6-0.247q0.212-0.212 0.212-0.53v-2.402q0-0.318-0.212-0.565-0.247-0.212-0.6-0.212t-0.565 0.212q-0.247 0.247-0.247 0.565v2.402zM28.397 2.366q0.883 0.071 1.413 0.6 0.494 0.565 0.565 1.413v25.607q-0.071 0.848-0.565 1.413-0.53 0.53-1.413 0.6h-24.795q-0.883-0.071-1.377-0.6-0.53-0.53-0.6-1.413v-25.607q0.071-0.883 0.6-1.413 0.494-0.53 1.377-0.6h3.603q0.071-1.060 0.706-1.695 0.671-0.671 1.695-0.671t1.695 0.671q0.636 0.636 0.706 1.695h7.982q0.071-1.060 0.706-1.695 0.671-0.671 1.695-0.671t1.695 0.671q0.636 0.636 0.706 1.695h3.603z"></path>
</svg>
