<!-- Generated by IcoMoon.io -->
<svg version="1.1" xmlns="http://www.w3.org/2000/svg" width="32" height="32" viewBox="0 0 32 32">
<title>cam-filled</title>
<path d="M0 9.6c0-1.76 1.44-3.2 3.2-3.2h4.8l3.2-3.2h9.6l3.2 3.2h4.8c1.767 0 3.2 1.433 3.2 3.2v0 16c0 1.767-1.433 3.2-3.2 3.2v0h-25.6c-1.767 0-3.2-1.433-3.2-3.2v0-16zM16 25.6c4.418 0 8-3.582 8-8s-3.582-8-8-8v0c-4.418 0-8 3.582-8 8s3.582 8 8 8v0zM16 22.4c-2.651 0-4.8-2.149-4.8-4.8s2.149-4.8 4.8-4.8v0c2.651 0 4.8 2.149 4.8 4.8s-2.149 4.8-4.8 4.8v0z"></path>
</svg>
