<!-- Generated by IcoMoon.io -->
<svg version="1.1" xmlns="http://www.w3.org/2000/svg" width="32" height="32" viewBox="0 0 32 32">
<title>cam</title>
<path d="M15.984 23.27q2.439-0.032 4.14-1.701 1.669-1.669 1.701-4.14-0.032-2.471-1.701-4.14-1.669-1.637-4.14-1.669-2.504 0.064-4.108 1.701-1.605 1.605-1.669 4.076-0.032 2.439 1.669 4.173 1.701 1.701 4.108 1.701zM27.635 10.913q0.61 0 1.027 0.417t0.417 1.027-0.417 1.027-1.027 0.417-1.027-0.417-0.417-1.027 0.417-1.027 1.027-0.417zM15.984 10.175q3.049 0.032 5.135 2.118t2.118 5.168q-0.032 3.081-2.118 5.168t-5.135 2.118q-3.017-0.032-5.135-2.15-2.086-2.086-2.118-5.135 0-3.113 2.118-5.168 2.118-2.118 5.135-2.118zM30.556 10.913q-0.032-0.642-0.449-1.027-0.385-0.417-1.027-0.449h-4.012q-0.674 0-1.252-0.385-0.546-0.353-0.899-0.963l-1.573-2.118q-0.257-0.417-0.738-0.642t-0.995-0.225h-7.254q-0.514 0-0.963 0.225t-0.77 0.642l-1.573 2.118q-0.353 0.61-0.899 0.963-0.578 0.385-1.252 0.385h-3.98q-0.61 0.032-1.027 0.449-0.385 0.385-0.449 1.027v14.54q0.064 0.61 0.449 1.027 0.417 0.417 1.027 0.417h26.158q0.61 0 1.027-0.417t0.449-1.027v-14.54zM29.079 7.992q1.316 0.064 2.086 0.835t0.834 2.086v14.54q-0.064 1.284-0.834 2.054-0.802 0.802-2.086 0.867h-26.158q-1.22-0.032-2.054-0.867t-0.867-2.054v-14.54q0.064-1.284 0.867-2.086 0.77-0.77 2.054-0.835h3.98q0.642 0 0.867-0.578l1.669-2.311q0.546-0.674 1.316-1.091 0.835-0.385 1.605-0.385h7.254q0.802 0 1.605 0.417t1.316 1.027l1.669 2.343q0.257 0.578 0.867 0.578h4.012z"></path>
</svg>
