<!-- Generated by IcoMoon.io -->
<svg version="1.1" xmlns="http://www.w3.org/2000/svg" width="32" height="32" viewBox="0 0 32 32">
<title>check-circle-filled</title>
<path d="M4.704 4.672q-4.544 4.544-4.704 11.328 0.16 6.784 4.704 11.296 4.512 4.544 11.296 4.704 6.784-0.16 11.328-4.704t4.672-11.296q-0.128-6.752-4.672-11.328-4.576-4.544-11.328-4.672-6.752 0.128-11.296 4.672zM14.464 21.632q-0.096 0.16-0.256 0.224-0.128 0.032-0.384 0.032-0.16 0-0.32-0.096l-0.32-0.16-5.12-5.12q-0.288-0.288-0.288-0.64 0-0.32 0.288-0.512 0.288-0.288 0.64-0.288 0.32 0 0.512 0.288l4.608 4.48 9.6-9.6q0.288-0.288 0.64-0.288 0.32 0 0.512 0.288 0.288 0.288 0.288 0.64t-0.288 0.64z"></path>
</svg>
