<!-- Generated by IcoMoon.io -->
<svg version="1.1" xmlns="http://www.w3.org/2000/svg" width="32" height="32" viewBox="0 0 32 32">
<title>check-circle</title>
<path d="M13.583 19.687l9.032-9.067q0.635-0.494 1.129 0t0 1.129l-9.596 9.632q-0.212 0.212-0.529 0.212t-0.6-0.212l-4.798-4.798q-0.459-0.635 0-1.164 0.494-0.494 1.129 0zM15.982 30.377q6.174-0.176 10.196-4.198t4.198-10.161q-0.176-6.174-4.198-10.196t-10.196-4.198q-6.139 0.176-10.161 4.198t-4.198 10.196q0 5.962 4.198 10.161t10.161 4.198zM15.982 0q6.774 0.141 11.325 4.657 4.551 4.551 4.692 11.325-0.141 6.774-4.692 11.325-4.587 4.551-11.325 4.692-6.739-0.141-11.29-4.692t-4.692-11.29q0-6.668 4.692-11.361 4.728-4.657 11.29-4.657z"></path>
</svg>
