<!-- Generated by IcoMoon.io -->
<svg version="1.1" xmlns="http://www.w3.org/2000/svg" width="32" height="32" viewBox="0 0 32 32">
<title>checklist</title>
<path d="M31.313 0.571h-23.664c-0.38 0-0.687 0.308-0.687 0.687v13.665h-6.274c-0.38 0-0.687 0.308-0.687 0.687v11.651c0 2.298 1.87 4.168 4.168 4.168 0.059 0 23.664 0 23.664 0 2.298 0 4.168-1.87 4.168-4.168v-26.003c-0-0.38-0.308-0.687-0.687-0.687zM1.375 27.261v-10.963h5.586v10.963c0 1.54-1.253 2.793-2.793 2.793s-2.793-1.253-2.793-2.793zM30.625 27.261c0 1.54-1.253 2.793-2.793 2.793h-20.573c0.669-0.74 1.077-1.72 1.077-2.793v-25.316h22.289v25.316z"></path>
<path d="M18.515 8.51h8.81c0.38 0 0.687-0.308 0.687-0.687s-0.308-0.687-0.687-0.687h-8.81c-0.38 0-0.687 0.308-0.687 0.687s0.308 0.687 0.687 0.687z"></path>
<path d="M18.515 16.061h8.81c0.38 0 0.687-0.308 0.687-0.687s-0.308-0.687-0.687-0.687h-8.81c-0.38 0-0.687 0.308-0.687 0.687s0.308 0.687 0.687 0.687z"></path>
<path d="M18.515 23.613h8.81c0.38 0 0.687-0.308 0.687-0.687s-0.308-0.687-0.687-0.687h-8.81c-0.38 0-0.687 0.308-0.687 0.687s0.308 0.687 0.687 0.687z"></path>
<path d="M12.172 9.284c0.13 0.137 0.311 0.215 0.5 0.215 0.002 0 0.004 0 0.006 0 0.191-0.002 0.373-0.083 0.502-0.224l3.776-4.135c0.256-0.28 0.236-0.715-0.044-0.971s-0.715-0.236-0.971 0.044l-3.277 3.589-1.020-1.080c-0.261-0.276-0.696-0.288-0.972-0.028s-0.288 0.696-0.028 0.972l1.528 1.618z"></path>
<path d="M15.94 12.092l-3.277 3.588-1.020-1.080c-0.261-0.276-0.696-0.289-0.972-0.028s-0.288 0.696-0.028 0.972l1.528 1.618c0.13 0.137 0.311 0.215 0.5 0.215 0.002 0 0.004 0 0.006 0 0.191-0.002 0.373-0.083 0.502-0.224l3.776-4.135c0.256-0.28 0.236-0.715-0.044-0.971s-0.715-0.236-0.971 0.044z"></path>
<path d="M15.94 19.972l-3.277 3.588-1.020-1.080c-0.261-0.276-0.696-0.289-0.972-0.028s-0.288 0.696-0.028 0.972l1.528 1.618c0.13 0.137 0.311 0.215 0.5 0.215 0.002 0 0.004 0 0.006 0 0.191-0.002 0.373-0.083 0.502-0.224l3.776-4.135c0.256-0.28 0.236-0.715-0.044-0.971s-0.715-0.236-0.971 0.044z"></path>
</svg>
