<!-- Generated by IcoMoon.io -->
<svg version="1.1" xmlns="http://www.w3.org/2000/svg" width="32" height="32" viewBox="0 0 32 32">
<title>chronometer-filled</title>
<path d="M14.64 16.576q-0.576 0.576-0.576 1.44t0.576 1.408q0.544 0.544 1.376 0.544t1.408-0.576q0.576-0.544 0.576-1.376 0-0.8-0.544-1.408-0.544-0.544-1.44-0.608-0.864 0.064-1.376 0.576zM27.888 9.696q0.352 0.288 0.736 0.288t0.704-0.32q0.288-0.288 0.288-0.704 0-0.384-0.32-0.672l-2.432-2.464q-0.288-0.288-0.672-0.288-0.416 0-0.704 0.288-0.32 0.288-0.32 0.672 0 0.416 0.288 0.768l0.576 0.544-1.472 1.472q-1.344-1.216-2.976-2.016t-3.552-1.088v-2.176h0.992q0.416 0 0.704-0.288t0.288-0.704v-2.016q0-0.416-0.288-0.704t-0.704-0.288h-6.016q-0.416 0-0.704 0.288t-0.288 0.704v2.016q0 0.416 0.288 0.704t0.704 0.288h1.024v2.176q-1.792 0.224-3.52 1.024-1.696 0.768-3.008 1.952l-1.44-1.44 0.448-0.448q0.288-0.352 0.288-0.736t-0.288-0.704q-0.288-0.288-0.672-0.288t-0.736 0.288l-2.432 2.464q-0.288 0.288-0.288 0.672 0 0.416 0.32 0.704 0.288 0.32 0.704 0.32 0.384 0 0.672-0.288l0.576-0.576 1.44 1.44q-1.504 1.728-2.304 3.872-0.832 2.208-0.832 4.576 0.16 5.504 3.808 9.184 3.68 3.648 9.184 3.808 5.568-0.16 9.216-3.808 3.68-3.68 3.808-9.184 0-2.432-0.8-4.512-0.832-2.080-2.208-3.808l1.472-1.44zM19.504 16.096q0.512 0.832 0.512 1.92-0.064 1.728-1.152 2.816-1.12 1.12-2.848 1.184-1.728-0.064-2.816-1.184-1.12-1.088-1.184-2.816 0.064-1.728 1.184-2.848 1.088-1.088 2.816-1.152 1.216 0 2.144 0.608l3.84-3.872q0.352-0.288 0.736-0.288t0.672 0.288 0.288 0.704q0 0.384-0.288 0.736z"></path>
</svg>
