<!-- Generated by IcoMoon.io -->
<svg version="1.1" xmlns="http://www.w3.org/2000/svg" width="32" height="32" viewBox="0 0 32 32">
<title>chronometer</title>
<path d="M15.983 20.288q0.654 0 1.102-0.448t0.448-1.102-0.448-1.102-1.102-0.448-1.102 0.448-0.448 1.102 0.448 1.102 1.102 0.448zM20.874 12.745q0.241-0.241 0.586-0.241 0.31 0 0.517 0.241 0.551 0.551 0 1.102l-3.307 3.307q0.448 0.758 0.448 1.584-0.069 1.343-0.93 2.205-0.896 0.896-2.205 0.896t-2.205-0.896-0.896-2.205 0.896-2.205q0.827-0.827 2.205-0.896 0.861-0.034 1.585 0.413zM15.983 30.45q4.995-0.172 8.267-3.445 3.272-3.307 3.41-8.301-0.138-5.029-3.41-8.267-3.307-3.272-8.267-3.41-4.995 0.172-8.232 3.41-3.272 3.272-3.445 8.301 0 4.822 3.445 8.267 3.41 3.445 8.232 3.445zM13.64 2.308h0.792q0.31 0 0.551 0.241 0.207 0.241 0.207 0.586v2.342l1.206-0.034q0.172 0.034 0.379 0.034v-2.342q0-0.344 0.241-0.586 0.207-0.241 0.517-0.241h0.792v-0.758h-4.685v0.758zM26.558 6.958l-1.826 1.791q2.205 1.929 3.376 4.444 1.171 2.549 1.171 5.511-0.172 5.684-3.892 9.404t-9.404 3.892q-5.684-0.172-9.369-3.892-3.72-3.755-3.892-9.369 0-2.928 1.206-5.546 1.206-2.549 3.341-4.444l-1.826-1.791-0.586 0.62q-0.241 0.241-0.551 0.241-0.344 0-0.551-0.241-0.551-0.551 0-1.102l2.308-2.342q0.241-0.241 0.586-0.241 0.31 0 0.517 0.241 0.551 0.551 0 1.102l-0.62 0.62 1.963 1.929q2.48-1.688 5.132-2.136v-1.757h-0.792q-0.31 0-0.517-0.241-0.241-0.207-0.241-0.517v-2.342q0-0.344 0.241-0.586 0.207-0.207 0.517-0.207h6.269q0.31 0 0.551 0.207 0.207 0.241 0.207 0.586v2.342q0 0.31-0.207 0.517-0.241 0.241-0.551 0.241h-0.792v1.757q2.721 0.448 5.167 2.136l1.963-1.929-0.62-0.62q-0.551-0.551 0-1.102 0.207-0.241 0.551-0.241 0.31 0 0.551 0.241l2.308 2.342q0.551 0.551 0 1.102-0.207 0.241-0.517 0.241-0.344 0-0.586-0.241z"></path>
</svg>
