<!-- Generated by IcoMoon.io -->
<svg version="1.1" xmlns="http://www.w3.org/2000/svg" width="32" height="32" viewBox="0 0 32 32">
<title>clock-filled</title>
<path d="M4.704 4.672q-4.544 4.544-4.704 11.328 0.16 6.784 4.704 11.296 4.512 4.544 11.296 4.704 6.784-0.16 11.328-4.704t4.672-11.296q-0.128-6.752-4.672-11.328-4.576-4.544-11.328-4.672-6.752 0.128-11.296 4.672zM21.056 24q-0.416 0-0.768-0.288l-6.176-6.208q-0.16-0.16-0.16-0.384v-12.192q0-0.448 0.32-0.672 0.352-0.256 0.736-0.256 0.416 0 0.704 0.288t0.288 0.704v11.776l5.632 5.536q0.32 0.32 0.352 0.672 0.032 0.384-0.256 0.736-0.288 0.288-0.672 0.288z"></path>
</svg>
