<!-- Generated by IcoMoon.io -->
<svg version="1.1" xmlns="http://www.w3.org/2000/svg" width="32" height="32" viewBox="0 0 32 32">
<title>clock</title>
<path d="M16.759 15.488l4.41 2.187q0.67 0.459 0.459 0.953-0.247 0.529-0.811 0.564-0.176 0-0.353-0.106l-4.834-2.399q-0.459-0.212-0.459-0.706v-11.149q0-0.353 0.247-0.6 0.212-0.212 0.565-0.212 0.318 0 0.565 0.212 0.212 0.247 0.212 0.6v10.655zM15.982 30.377q6.174-0.176 10.196-4.198t4.198-10.161q-0.176-6.174-4.198-10.196t-10.196-4.198q-6.139 0.176-10.161 4.198t-4.198 10.196q0 5.962 4.198 10.161t10.161 4.198zM15.982 0q6.739 0.141 11.325 4.692 4.551 4.551 4.692 11.29-0.141 6.739-4.692 11.29-4.587 4.587-11.325 4.728-6.739-0.141-11.29-4.692t-4.692-11.29q0-6.668 4.692-11.361 4.728-4.657 11.29-4.657z"></path>
</svg>
