<!-- Generated by IcoMoon.io -->
<svg version="1.1" xmlns="http://www.w3.org/2000/svg" width="32" height="32" viewBox="0 0 32 32">
<title>closet</title>
<path d="M27.043 0h-22.085c-0.393 0-0.711 0.318-0.711 0.711v27.979c0 0.393 0.318 0.711 0.711 0.711h1.876v1.887c0 0.393 0.318 0.711 0.711 0.711s0.711-0.318 0.711-0.711v-1.887h15.489v1.887c0 0.393 0.318 0.711 0.711 0.711s0.711-0.318 0.711-0.711v-1.887h1.876c0.393 0 0.711-0.318 0.711-0.711v-27.979c-0-0.393-0.318-0.711-0.711-0.711zM5.668 1.422h9.621v26.557h-9.621v-26.557zM26.332 27.979h-9.621v-26.557h9.621v26.557z"></path>
<path d="M13.352 16c0 0.465-0.377 0.842-0.842 0.842s-0.842-0.377-0.842-0.842c0-0.465 0.377-0.842 0.842-0.842s0.842 0.377 0.842 0.842z"></path>
<path d="M20.332 16c0 0.465-0.377 0.842-0.842 0.842s-0.842-0.377-0.842-0.842c0-0.465 0.377-0.842 0.842-0.842s0.842 0.377 0.842 0.842z"></path>
</svg>
