<!-- Generated by IcoMoon.io -->
<svg version="1.1" xmlns="http://www.w3.org/2000/svg" width="32" height="32" viewBox="0 0 32 32">
<title>cloud</title>
<path d="M9.881 11.108l0.71 0.517 0.355-0.775q1.13-2.196 3.1-3.455 1.97-1.227 4.424-1.292 3.584 0.097 5.909 2.422 2.325 2.357 2.422 5.909v1.066l0.452 0.161q1.485 0.678 2.357 1.97 0.84 1.292 0.904 2.938-0.032 2.228-1.55 3.746-1.55 1.55-3.746 1.582l-0.161-0.097h-18.18v0.743l-0.097-0.743q-2.228-0.097-3.746-1.615-1.55-1.55-1.582-3.778 0-1.485 0.71-2.68 0.646-1.162 1.937-2.002l0.42-0.258-0.129-0.743q-0.129-0.646-0.129-0.872 0.065-1.518 1.033-2.454 0.936-0.936 2.486-1.001 1.098 0 2.099 0.71zM25.219 27.35q2.874-0.065 4.811-2.002t1.97-4.779q0-1.937-0.969-3.52-1.033-1.615-2.745-2.519v-0.097q0-4.036-2.874-6.91-2.777-2.874-6.942-2.874-2.648 0.065-4.844 1.292-2.293 1.324-3.617 3.552-1.162-0.549-2.228-0.549-2.131 0.065-3.52 1.453-1.453 1.453-1.485 3.487 0 0.355 0.129 0.904-1.356 1.033-2.131 2.454-0.775 1.485-0.775 3.164 0.065 2.842 2.002 4.811 1.873 1.97 4.779 2.067h17.954z"></path>
</svg>
