<!-- Generated by IcoMoon.io -->
<svg version="1.1" xmlns="http://www.w3.org/2000/svg" width="32" height="32" viewBox="0 0 32 32">
<title>code</title>
<path d="M21.063 21.733l4.587-4.587q0.494-0.564 0.494-1.27 0-0.741-0.529-1.27l-4.551-4.551q-0.247-0.247-0.564-0.247-0.353 0-0.564 0.247-0.564 0.565 0 1.129l4.587 4.587q0.141 0.106-0.035 0.282l-4.551 4.551q-0.564 0.564 0 1.129 0.247 0.247 0.564 0.247 0.282 0 0.564-0.247zM12.243 21.733q0.565-0.564 0-1.129l-4.551-4.551q-0.141-0.141 0-0.282l4.551-4.587q0.494-0.635 0-1.129t-1.129 0l-4.551 4.551q-0.529 0.529-0.529 1.27t0.529 1.27l4.551 4.587q0.282 0.247 0.565 0.247 0.318 0 0.565-0.247zM15.030 23.991q0.67 0 0.776-0.706l1.94-14.642q0.106-0.776-0.67-0.917-0.282-0.035-0.6 0.141-0.282 0.212-0.318 0.564l-1.94 14.642q-0.106 0.741 0.706 0.917h0.106zM15.982 1.623q6.174 0.176 10.196 4.198t4.198 10.161q-0.176 6.139-4.198 10.161-4.057 4.057-10.196 4.234-6.068-0.176-10.161-4.234-4.022-4.057-4.198-10.126 0-5.998 4.198-10.196t10.161-4.198zM15.982 32q6.739-0.141 11.325-4.692 4.551-4.551 4.692-11.29-0.141-6.774-4.692-11.325-4.587-4.551-11.325-4.692-6.809 0.176-11.29 4.657-4.516 4.516-4.692 11.361 0 6.598 4.692 11.29t11.29 4.692z"></path>
</svg>
