<!-- Generated by IcoMoon.io -->
<svg version="1.1" xmlns="http://www.w3.org/2000/svg" width="32" height="32" viewBox="0 0 32 32">
<title>comment-like</title>
<path d="M22.393 14.146q-0.071-1.307-0.812-2.119-0.812-0.812-1.978-0.848-1.554 0-2.861 1.413l-0.141 0.141q-0.247 0.247-0.6 0.247-0.353 0.035-0.6-0.212l-0.177-0.177q-1.307-1.413-2.861-1.413-1.201 0.035-1.943 0.848t-0.812 2.119q0 3.497 6.393 8.83 6.393-5.439 6.393-8.83zM22.746 10.896q1.236 1.307 1.272 3.285 0 4.238-7.453 10.384-0.247 0.247-0.6 0.247t-0.565-0.247q-7.417-6.11-7.417-10.419 0.035-1.907 1.272-3.249 1.201-1.236 3.108-1.307 2.013 0 3.638 1.483 1.554-1.483 3.603-1.483 1.907 0.071 3.143 1.307zM26.207 25.060q4.027-3.567 4.203-9.042-0.141-5.439-4.203-9.077-4.062-3.567-10.207-3.744-6.11 0.177-10.172 3.744-4.062 3.603-4.238 9.077 0 3.567 2.049 6.57 0.212 0.318 0.106 0.706l-1.695 5.051 5.298-1.766q0.071-0.035 0.283-0.035 0.177 0 0.389 0.106 3.532 2.155 7.982 2.155 6.146-0.177 10.207-3.744zM16.035 1.607q4.344 0.035 8.018 1.907 3.638 1.907 5.828 5.227 2.119 3.32 2.119 7.276-0.035 3.956-2.119 7.205-2.119 3.285-5.863 5.227-3.638 1.943-8.018 1.943-4.698 0-8.477-2.19l-6.464 2.155q-0.035 0.035-0.247 0.035-0.318 0-0.6-0.283-0.247-0.247-0.177-0.742l2.049-6.216q-2.084-3.426-2.084-7.135 0.071-4.027 2.155-7.276 2.084-3.285 5.828-5.227 3.673-1.907 8.053-1.907z"></path>
</svg>
