<!-- Generated by IcoMoon.io -->
<svg version="1.1" xmlns="http://www.w3.org/2000/svg" width="32" height="32" viewBox="0 0 32 32">
<title>cross-mark</title>
<path d="M17.124 15.991l14.591 14.591q0.571 0.571 0 1.142-0.25 0.25-0.535 0.25-0.321 0-0.606-0.25l-14.591-14.555-14.555 14.555q-0.285 0.25-0.606 0.25-0.285 0-0.535-0.25-0.571-0.571 0-1.142l14.555-14.591-14.555-14.591q-0.25-0.214-0.25-0.571 0-0.321 0.25-0.571 0.571-0.464 1.142 0l14.555 14.591 14.591-14.591q0.571-0.464 1.142 0 0.25 0.25 0.25 0.571 0 0.357-0.25 0.571z"></path>
</svg>
