<!-- Generated by IcoMoon.io -->
<svg version="1.1" xmlns="http://www.w3.org/2000/svg" width="32" height="32" viewBox="0 0 32 32">
<title>dislike-filled</title>
<path d="M29.872 19.2q0 0.672-0.384 1.12-0.448 0.448-1.024 0.48h-4.16q-0.576-0.064-0.96-0.48-0.352-0.416-0.416-1.12v-17.6q0-0.736 0.416-1.152 0.384-0.448 0.96-0.448h4.16q0.576 0 1.024 0.448 0.384 0.416 0.384 1.152v17.6zM10.384 20.8q0.224 0 0.384 0.16 0.128 0.128 0.128 0.384v6.272q0.064 1.984 0.928 3.136 0.928 1.184 2.304 1.248h1.216q0.832-0.064 1.344-0.64 0.544-0.576 0.576-1.472-0.032-2.24 0.384-5.312 0.448-3.072 2.176-4.16 0.576-0.288 1.12-0.736l0.608-0.48-0.032-8.832q-0.064-7.904 0.032-8.768-1.248-0.768-2.912-1.184-1.696-0.416-4.352-0.416h-8.512q-1.568 0.064-2.56 1.152-1.024 1.12-1.088 2.848v12.8q0.064 1.728 1.088 2.816 0.992 1.12 2.56 1.184h4.608z"></path>
</svg>
