<!-- Generated by IcoMoon.io -->
<svg version="1.1" xmlns="http://www.w3.org/2000/svg" width="32" height="32" viewBox="0 0 32 32">
<title>dislike</title>
<path d="M7.991 2.576q0-0.176-0.176-0.176h-5.222q-0.176 0-0.176 0.176v15.665q0 0.176 0.176 0.176h5.222q0.176 0 0.176-0.176v-15.665zM29.619 4.022q-0.071-1.058-0.706-1.694t-1.694-0.706h-9.349q-4.445 0-8.22 2.293l-0.035 13.407q1.976 1.27 2.822 1.658 1.764 0.741 2.576 2.823 0.388 0.988 0.635 1.905 0.212 0.67 0.388 2.258l0.141 2.011q0 1.058 0.035 1.87 0 0.529 0.529 0.529h1.305q0.776 0 1.341-0.741 0.529-0.706 0.6-2.011v-6.28q0.071-0.917 0.67-1.482 0.6-0.6 1.482-0.635h5.045q1.094-0.071 1.729-0.706t0.706-1.694v-12.807zM27.184 0q1.729 0.071 2.822 1.164 1.129 1.164 1.164 2.858v12.807q-0.071 1.729-1.164 2.823-1.164 1.094-2.822 1.164h-5.045q-0.247 0-0.388 0.141-0.176 0.176-0.176 0.388v6.28q-0.071 1.905-0.988 3.105-0.988 1.2-2.54 1.27h-1.305q-0.882-0.071-1.482-0.635t-0.67-1.482q0-1.058-0.071-2.54-0.035-1.023-0.318-2.681-0.459-3.316-2.399-4.234-0.494-0.212-2.399-1.341-0.6 0.917-1.588 0.917h-5.186q-0.776-0.071-1.27-0.529-0.459-0.494-0.529-1.27v-15.594q0.071-0.811 0.529-1.27 0.494-0.494 1.27-0.529h5.186q1.376 0 1.729 1.305 3.881-2.117 8.326-2.117h9.314z"></path>
</svg>
