<!-- Generated by IcoMoon.io -->
<svg version="1.1" xmlns="http://www.w3.org/2000/svg" width="31" height="32" viewBox="0 0 31 32">
<title>dumbbell</title>
<path d="M28.345 16.671h0.686q0.269 0 0.477-0.209 0.179-0.239 0.179-0.477 0-0.269-0.179-0.477-0.209-0.209-0.477-0.209h-0.686v1.372zM21.572 15.329h-12.173v1.372h12.173v-1.372zM2.655 15.329h-0.686q-0.269 0-0.448 0.209-0.209 0.209-0.209 0.477t0.209 0.477q0.179 0.209 0.448 0.209h0.686v-1.372zM27.002 9.898q0-0.269-0.179-0.477-0.209-0.179-0.507-0.179t-0.477 0.179q-0.209 0.209-0.209 0.477v12.173q0 0.269 0.209 0.477 0.179 0.209 0.477 0.209h0.030q0.269 0 0.477-0.209 0.179-0.239 0.179-0.477v-12.173zM5.37 9.898q0-0.269-0.179-0.477-0.209-0.179-0.507-0.179t-0.477 0.179q-0.209 0.209-0.209 0.477v12.203q0 0.269 0.209 0.448 0.179 0.209 0.448 0.209h0.030q0.298 0 0.507-0.209 0.179-0.179 0.179-0.448v-12.203zM24.257 8.556q0-0.298-0.179-0.507-0.209-0.179-0.477-0.179-0.298 0-0.477 0.179-0.209 0.209-0.209 0.507v14.888q0 0.269 0.209 0.477 0.179 0.209 0.448 0.209h0.030q0.269 0 0.477-0.209 0.179-0.239 0.179-0.477v-14.888zM8.056 8.556q0-0.298-0.179-0.507-0.209-0.179-0.477-0.179-0.298 0-0.477 0.179-0.209 0.209-0.209 0.507v14.888q0 0.269 0.209 0.477 0.179 0.209 0.448 0.209h0.030q0.269 0 0.477-0.209 0.179-0.239 0.179-0.477v-14.888zM28.345 13.986h0.686q0.865 0.030 1.402 0.597 0.567 0.567 0.567 1.432t-0.567 1.432q-0.537 0.537-1.402 0.597h-0.686v4.028q-0.060 0.895-0.597 1.432-0.597 0.597-1.402 0.627h-0.030q-0.298 0-0.746-0.149-0.179 0.656-0.686 1.074-0.567 0.418-1.253 0.418h-0.030q-0.835-0.060-1.402-0.597-0.537-0.537-0.597-1.432v-5.4h-12.203v5.4q-0.060 0.895-0.597 1.432t-1.402 0.597h-0.030q-0.716 0-1.223-0.418-0.537-0.418-0.716-1.074-0.448 0.149-0.746 0.149h-0.030q-0.835-0.060-1.402-0.597-0.537-0.537-0.597-1.432v-4.058h-0.686q-0.835-0.060-1.402-0.597-0.567-0.567-0.567-1.432t0.567-1.432 1.402-0.597h0.686v-4.088q0.060-0.865 0.597-1.402 0.567-0.567 1.402-0.597 0.328 0 0.776 0.149 0.179-0.656 0.716-1.104 0.507-0.418 1.223-0.418 0.895 0.060 1.462 0.567 0.507 0.567 0.567 1.462v5.43h12.173v-5.43q0.060-0.895 0.597-1.432 0.567-0.567 1.402-0.597 0.686 0 1.253 0.418 0.537 0.388 0.716 1.074 0.448-0.149 0.746-0.149 0.925 0.060 1.462 0.597t0.597 1.432v4.088z"></path>
</svg>
