<!-- Generated by IcoMoon.io -->
<svg version="1.1" xmlns="http://www.w3.org/2000/svg" width="32" height="32" viewBox="0 0 32 32">
<title>elevator</title>
<path d="M19.405 17.394q-0.247-0.247-0.247-0.6 0-0.318 0.247-0.529 0.564-0.565 1.129 0l1.023 1.023v-6.104q0-0.318 0.247-0.565 0.212-0.212 0.564-0.212t0.6 0.212q0.212 0.247 0.212 0.565v6.104l1.023-1.023q0.564-0.565 1.129 0 0.247 0.212 0.247 0.529 0 0.353-0.247 0.6l-2.399 2.399q-0.212 0.212-0.564 0.212t-0.564-0.212zM8.785 13.125l-1.023 1.023q-0.635 0.494-1.129 0t0-1.129l2.399-2.399q0.565-0.565 1.129 0l2.399 2.399q0.494 0.635 0 1.129t-1.129 0l-1.023-1.023v6.104q0 0.318-0.212 0.529-0.247 0.247-0.6 0.247t-0.565-0.247q-0.247-0.212-0.247-0.529v-6.104zM27.978 1.623h-11.184v28.754h11.184v-28.754zM15.171 1.623h-11.149v28.754h11.149v-28.754zM29.601 30.377h1.588q0.318 0 0.564 0.247t0.247 0.564-0.247 0.564-0.564 0.247h-30.377q-0.318 0-0.565-0.247t-0.247-0.564 0.247-0.564 0.565-0.247h1.588v-28.754h-1.588q-0.318 0-0.565-0.247t-0.247-0.565 0.247-0.565 0.565-0.247h30.377q0.318 0 0.564 0.247t0.247 0.565-0.247 0.565-0.564 0.247h-1.588v28.754z"></path>
</svg>
