<!-- Generated by IcoMoon.io -->
<svg version="1.1" xmlns="http://www.w3.org/2000/svg" width="32" height="32" viewBox="0 0 32 32">
<title>enery</title>
<path d="M11.771 17.666h3.78q0.449 0 0.449 0.374v7.036l4.154-9.095h-3.668q-0.15 0-0.337-0.187-0.15-0.15-0.15-0.337v-8.009zM17.684 0.262v13.773q0 0.225 0.262 0.225h4.454q0.187 0 0.225 0.112 0.037 0.15 0 0.262l-7.822 17.216q-0.037 0.15-0.225 0.15-0.262 0-0.262-0.262v-12.126q0-0.262-0.262-0.262h-4.454q-0.15 0-0.225-0.112-0.037-0.112 0-0.225l7.822-18.863q0.15-0.15 0.262-0.15 0.225 0 0.225 0.262z"></path>
</svg>
