<!-- Generated by IcoMoon.io -->
<svg version="1.1" xmlns="http://www.w3.org/2000/svg" width="32" height="32" viewBox="0 0 32 32">
<title>fan</title>
<path d="M23.815 30.377l-3.387-3.951q-2.046 0.741-4.41 0.741-2.399 0-4.481-0.741l-3.387 3.951h15.665zM18.276 11.325q-0.847-0.847-2.293-0.917-0.353 0-0.565-0.247-0.247-0.247-0.247-0.6 0-0.318 0.247-0.565 0.212-0.212 0.565-0.212 2.082 0.035 3.422 1.411 1.376 1.411 1.411 3.422 0 0.353-0.212 0.565-0.247 0.247-0.6 0.212-0.353 0-0.564-0.247-0.247-0.212-0.247-0.565-0.071-1.411-0.917-2.258zM9.596 13.619q0.071 2.681 1.87 4.516 1.835 1.799 4.516 1.87 2.681-0.035 4.551-1.87 1.835-1.835 1.87-4.516-0.035-2.681-1.87-4.551-1.835-1.835-4.551-1.87-2.646 0-4.516 1.87t-1.87 4.551zM23.956 13.619q-0.035 3.352-2.329 5.645t-5.645 2.329q-3.352-0.035-5.645-2.329t-2.329-5.645q0.071-3.422 2.329-5.68 2.293-2.293 5.645-2.329 3.316 0 5.645 2.329 2.329 2.258 2.329 5.68zM4.022 13.583q0.176 5.116 3.528 8.503 3.316 3.352 8.432 3.528 5.116-0.176 8.467-3.528 3.352-3.387 3.493-8.467-0.141-5.080-3.493-8.467-3.352-3.352-8.467-3.528-4.939 0-8.432 3.493-3.528 3.528-3.528 8.467zM25.932 30.377h2.011q0.353 0 0.6 0.212 0.212 0.247 0.212 0.6t-0.212 0.564q-0.247 0.247-0.6 0.247h-23.921q-0.353 0-0.564-0.247-0.247-0.212-0.247-0.564t0.247-0.6q0.212-0.212 0.564-0.212h2.011l3.951-4.587q-3.422-1.764-5.504-4.975-2.011-3.175-2.082-7.197 0.176-5.821 3.987-9.632 3.846-3.846 9.596-3.987 5.821 0.176 9.632 3.987t3.987 9.632q-0.071 4.022-2.082 7.197-2.046 3.211-5.539 4.975z"></path>
</svg>
