<!-- Generated by IcoMoon.io -->
<svg version="1.1" xmlns="http://www.w3.org/2000/svg" width="32" height="32" viewBox="0 0 32 32">
<title>faucet</title>
<path d="M30.429 17.524c-0-0-0-0.001-0-0.001h0.001l-0.554-2.062c-0.689-2.56-3.32-4.078-5.881-3.394l-11.769 3.155v-6.419c0-0.239 0.159-0.45 0.39-0.514l8.347-2.332c1.982-0.556 3.142-2.609 2.595-4.594l-0.269-0.972c-0.076-0.272-0.35-0.438-0.625-0.379l-17.088 3.648c-1.719 0.374-2.948 1.893-2.955 3.653v21.584c-0.637 0.225-1.064 0.827-1.067 1.503v1.067c0 0.295 0.239 0.534 0.534 0.534h10.672c0.295 0 0.534-0.239 0.534-0.534v-1.067c-0.003-0.676-0.43-1.277-1.067-1.503v-5.943l10.095-2.704 0.139 0.517c0.226 0.852 1.101 1.36 1.953 1.134 0.003-0.001 0.005-0.001 0.008-0.002l4.123-1.104c0.854-0.229 1.36-1.107 1.131-1.961 0 0 0 0 0 0l-0.139-0.518 0.517-0.138c0.285-0.076 0.454-0.369 0.377-0.653zM3.687 13.857h7.471v14.941h-7.471v-14.941zM12.225 30.933h-9.605v-0.534c0-0.295 0.239-0.534 0.534-0.534h8.538c0.295 0 0.534 0.239 0.534 0.534v0.534zM11.158 8.802v3.988h-7.471v-5.478c0.005-1.257 0.883-2.342 2.111-2.609l16.595-3.543 0.135 0.487c0.389 1.418-0.439 2.884-1.854 3.282l-8.347 2.332c-0.691 0.194-1.169 0.824-1.17 1.541zM28.266 19.763v0.002l-4.123 1.105c-0.285 0.077-0.577-0.092-0.654-0.377-0-0-0-0.001-0-0.001l-0.138-0.515 5.155-1.381 0.138 0.515c0.075 0.284-0.094 0.576-0.378 0.652zM12.225 21.85v-5.523l12.045-3.229c1.992-0.53 4.037 0.65 4.575 2.64l0.416 1.547-17.035 4.564z"></path>
<path d="M27.605 23.159l-0.439-0.636-0.439 0.636c-0.283 0.41-2.762 4.045-2.762 5.639 0 1.768 1.433 3.202 3.202 3.202s3.202-1.433 3.202-3.202c0-1.594-2.48-5.229-2.762-5.639zM27.166 30.933c-1.179 0-2.134-0.956-2.134-2.134 0-0.82 1.174-2.896 2.134-4.376 0.96 1.48 2.134 3.556 2.134 4.376 0 1.179-0.956 2.134-2.134 2.134z"></path>
</svg>
