<!-- Generated by IcoMoon.io -->
<svg version="1.1" xmlns="http://www.w3.org/2000/svg" width="32" height="32" viewBox="0 0 32 32">
<title>filters</title>
<path d="M16.035 26.355q0.988 0 1.658-0.67t0.67-1.694-0.67-1.694-1.694-0.67-1.694 0.67-0.67 1.658q-0.035 0.988 0.67 1.729 0.741 0.706 1.729 0.67zM25.596 14.359q0.988 0 1.658-0.67t0.67-1.694-0.67-1.694-1.694-0.67-1.658 0.635q-0.67 0.67-0.67 1.694-0.035 0.988 0.67 1.729 0.706 0.706 1.694 0.67zM8.132 10.479q0.635-0.706 0.635-1.694 0-1.023-0.67-1.694t-1.658-0.67q-1.023 0-1.694 0.67t-0.67 1.694 0.67 1.694q0.67 0.635 1.658 0.706 1.094-0.071 1.729-0.706zM26.373 8.079q1.376 0.318 2.293 1.376 0.882 1.023 0.882 2.54t-0.882 2.54q-0.917 1.058-2.293 1.376v15.277q0 0.282-0.212 0.564-0.247 0.247-0.564 0.247-0.353 0-0.564-0.247-0.247-0.247-0.247-0.564v-15.241q-1.376-0.318-2.293-1.376-0.882-1.023-0.882-2.54t0.882-2.54q0.917-1.058 2.293-1.376v-7.303q0-0.318 0.247-0.565 0.212-0.247 0.564-0.247 0.318 0 0.564 0.247 0.212 0.247 0.212 0.565v7.268zM16.811 20.075q1.376 0.318 2.293 1.376 0.882 1.094 0.882 2.54 0 1.517-0.882 2.54-0.917 1.058-2.293 1.376v3.281q0 0.318-0.247 0.564t-0.565 0.247-0.565-0.247-0.247-0.564v-3.281q-1.376-0.318-2.293-1.376-0.882-1.023-0.882-2.54 0-1.447 0.882-2.54 0.917-1.058 2.293-1.376v-19.264q0-0.318 0.247-0.565t0.565-0.247 0.565 0.247 0.247 0.565v19.264zM7.215 4.869q1.376 0.318 2.293 1.376 0.882 1.094 0.882 2.54 0 1.517-0.882 2.54-0.917 1.058-2.293 1.376v18.487q0 0.282-0.212 0.564-0.247 0.247-0.564 0.247-0.353 0-0.564-0.247-0.247-0.247-0.247-0.564v-18.487q-1.376-0.318-2.293-1.376-0.882-1.023-0.882-2.54 0-1.447 0.882-2.54 0.917-1.058 2.293-1.376v-4.057q0-0.318 0.247-0.565 0.212-0.247 0.564-0.247 0.318 0 0.564 0.247 0.212 0.247 0.212 0.565v4.057z"></path>
</svg>
