<!-- Generated by IcoMoon.io -->
<svg version="1.1" xmlns="http://www.w3.org/2000/svg" width="32" height="32" viewBox="0 0 32 32">
<title>fire-extinguisher</title>
<path d="M11.259 13.037h1.185v15.407h-1.185v-15.407z"></path>
<path d="M20.723 0.904c-1.126 0.141-2.031 0.972-2.279 2.059h-2.527c-0.265-1.020-1.184-1.778-2.287-1.778-0.597 0-1.137 0.229-1.553 0.593h-7.929v1.185h7.195c-0.025 0.096-0.040 0.193-0.053 0.293-2.654 0.639-4.988 2.328-6.385 4.743l1.025 0.594c1.21-2.091 3.215-3.571 5.502-4.159 0.101 0.252 0.248 0.48 0.425 0.681v1.704c-2.401 0.756-4.154 2.974-4.154 5.625v17.185c0 1.31 1.061 2.37 2.37 2.37h7.111c1.31 0 2.37-1.061 2.37-2.37v-17.185c0-2.649-1.751-4.865-4.148-5.625v-1.711c0.238-0.273 0.415-0.599 0.508-0.96h2.528c0.248 1.086 1.153 1.916 2.278 2.056l7.13 0.907v-7.111l-7.129 0.904zM13.63 2.37c0.653 0 1.185 0.532 1.185 1.185s-0.532 1.185-1.185 1.185-1.185-0.532-1.185-1.185 0.532-1.185 1.185-1.185zM14.222 5.842v0.676h-1.18v-0.673c0.19 0.047 0.384 0.082 0.588 0.082 0.206 0 0.402-0.034 0.593-0.084zM18.37 12.444v17.185c0 0.653-0.532 1.185-1.185 1.185h-7.111c-0.653 0-1.185-0.532-1.185-1.185v-17.185c0-2.615 2.126-4.741 4.741-4.741s4.741 2.126 4.741 4.741zM26.667 5.766l-5.798-0.737c-0.749-0.094-1.313-0.728-1.313-1.474s0.565-1.381 1.316-1.474l5.796-0.735v4.421z"></path>
</svg>
