<!-- Generated by IcoMoon.io -->
<svg version="1.1" xmlns="http://www.w3.org/2000/svg" width="32" height="32" viewBox="0 0 32 32">
<title>fire-filled</title>
<path d="M4.95 14.144q-1.088 3.744-1.056 6.624 0.16 4.768 3.488 7.936 3.296 3.136 8.352 3.296 5.056-0.16 8.384-3.296 3.328-3.168 3.488-7.936-0.032-3.616-1.376-6.272-1.248-2.464-3.104-4.896-1.44-1.888-2.816-4.288-1.28-2.24-1.728-5.312-3.232 3.712-3.168 8.48 0.064 4.736 0.288 5.28 0.064 0.288-0.032 0.512-0.128 0.288-0.32 0.416-0.512 0.256-1.024 0.032-2.72-1.856-3.776-4.128-1.088-2.208-1.184-4.032-3.296 3.84-4.416 7.584z"></path>
</svg>
