<!-- Generated by IcoMoon.io -->
<svg version="1.1" xmlns="http://www.w3.org/2000/svg" width="32" height="32" viewBox="0 0 32 32">
<title>first-aid-box</title>
<path d="M26.357 7.649h-5.315c0.002-0.054 0.002-0.103 0-0.156v-3.060c0-0.834-0.675-1.509-1.509-1.509h-7.089c-0.829 0.004-1.5 0.677-1.5 1.509v3.035c-0.002 0.051-0.002 0.103 0 0.156h-5.302c-2.7 0-5.643 1.479-5.643 5.643v10.66c0 4.166 2.912 5.645 5.643 5.645h20.715c2.7 0 5.643-1.479 5.643-5.645v-10.632c0-4.132-2.921-5.645-5.643-5.645zM12.295 7.492v-3.060c0-0.086 0.071-0.154 0.156-0.154h7.104c0.086 0 0.154 0.069 0.154 0.154v3.035c0 0.084-0.069 0.156-0.154 0.156h-7.111c-0.075-0.002-0.137-0.056-0.15-0.131zM30.65 23.919c0 3.875-3.005 4.293-4.293 4.293h-20.715c-1.288 0-4.293-0.418-4.293-4.293v-10.625c0-3.873 3.005-4.293 4.293-4.293h20.715c1.288 0 4.293 0.42 4.293 4.293z"></path>
<path d="M21.206 16.036h-2.632v-2.63c0-0.373-0.302-0.675-0.675-0.675h-3.797c-0.373 0-0.675 0.302-0.675 0.675v2.63h-2.632c-0.371 0-0.675 0.304-0.675 0.677v3.791c0 0.373 0.304 0.677 0.675 0.677h2.632v2.63c0 0.373 0.302 0.675 0.675 0.675h3.797c0.373 0 0.675-0.302 0.675-0.675v-2.63h2.632c0.371 0 0.675-0.304 0.675-0.677v-3.791c0-0.373-0.304-0.677-0.675-0.677zM20.528 19.83h-2.63c-0.373 0-0.675 0.304-0.675 0.675v2.632h-2.447v-2.632c0-0.371-0.302-0.675-0.675-0.675h-2.63v-2.441h2.63c0.373 0 0.675-0.304 0.675-0.675v-2.632h2.447v2.632c0 0.371 0.302 0.675 0.675 0.675h2.63z"></path>
</svg>
