<!-- Generated by IcoMoon.io -->
<svg version="1.1" xmlns="http://www.w3.org/2000/svg" width="32" height="32" viewBox="0 0 32 32">
<title>flag</title>
<path d="M29.611 13.784l-4.315-12.168q-0.99 1.132-2.193 1.91-1.167 0.743-2.158 1.061-0.99 0.354-2.405 0.424-1.309 0.106-2.228 0.035l-2.441-0.177q-2.653-0.212-3.714-0.248-1.733-0.071-3.608 0.637t-3.466 2.228l4.103 11.849q1.309-1.167 2.83-1.804 1.415-0.637 3.148-0.743 1.592-0.071 2.759 0 1.132 0.071 2.936 0.318l2.016 0.248 1.875 0.106q0.955 0.035 1.875-0.141 0.955-0.212 1.698-0.495 0.92-0.318 1.733-1.026t1.521-1.662q0.106-0.106 0.035-0.354zM31.132 13.324q0.318 0.99-0.283 1.839-1.096 1.379-2.334 2.228-1.132 0.849-2.334 1.238-1.096 0.354-2.547 0.424-1.592 0.071-2.37-0.035-0.672-0.035-2.617-0.283-1.804-0.283-2.9-0.318-1.273-0.071-2.617 0.035-1.556 0.106-2.9 0.743-1.309 0.637-2.476 1.839l3.396 9.904q0.248 0.707-0.495 0.99l-0.248 0.071q-0.637 0-0.778-0.566l-8.807-25.644q-0.248-0.707 0.495-0.99 0.318-0.177 0.637 0 0.283 0.177 0.389 0.495l0.177 0.531q1.804-1.521 3.891-2.228 2.016-0.672 3.891-0.566l3.749 0.248q1.981 0.177 3.643 0.212 1.627 0.035 3.36-0.672 1.698-0.707 3.042-2.264 0.672-0.672 1.521-0.531 0.814 0.141 1.203 1.061z"></path>
</svg>
