<!-- Generated by IcoMoon.io -->
<svg version="1.1" xmlns="http://www.w3.org/2000/svg" width="32" height="32" viewBox="0 0 32 32">
<title>floor</title>
<path d="M5.385 22.131c-1.157 0-2.098 0.941-2.098 2.098s0.941 2.098 2.098 2.098c1.157 0 2.098-0.941 2.098-2.098s-0.941-2.098-2.098-2.098zM5.385 25.358c-0.623 0-1.129-0.507-1.129-1.129s0.507-1.129 1.129-1.129c0.623 0 1.129 0.507 1.129 1.129s-0.507 1.129-1.129 1.129z"></path>
<path d="M27.365 9.662v-0.685c0-2.711-2.205-4.916-4.916-4.916s-4.916 2.205-4.916 4.916v7.414c0 1.512-1.23 2.743-2.743 2.743h-0.418c-0.928-1.122-2.244-1.922-3.774-2.188l-7.007-1.219c-0.893-0.155-1.804 0.090-2.498 0.674s-1.093 1.439-1.093 2.346v5.966c0 0.979 0.796 1.775 1.775 1.775h0.668c0.679 0.882 1.745 1.452 2.942 1.452s2.262-0.57 2.941-1.452h5.711c0.979 0 1.775-0.796 1.775-1.775v-1.568c0-1.102-0.284-2.143-0.787-3.051 1.937-0.122 3.476-1.736 3.476-3.703v-7.414c0-2.177 1.771-3.948 3.948-3.948s3.948 1.771 3.948 3.948v0.685c-0.563 0.2-0.968 0.738-0.968 1.369v6.712c0 0.631 0.405 1.169 0.968 1.369v4.924h0.968v-4.924c0.563-0.2 0.968-0.738 0.968-1.369v-6.712c-0-0.631-0.405-1.169-0.968-1.369zM4.664 16.896l5.314 0.924v0.782c0 0.243-0.108 0.471-0.297 0.625s-0.434 0.214-0.672 0.165l-3.7-0.76c-0.374-0.077-0.645-0.41-0.645-0.79v-0.946zM1.775 25.52c-0.445 0-0.807-0.362-0.807-0.807v-0.032h0.734c0.036 0.291 0.104 0.572 0.203 0.839h-0.131zM5.385 26.972c-1.513 0-2.743-1.23-2.743-2.743s1.23-2.743 2.743-2.743c1.513 0 2.743 1.23 2.743 2.743s-1.231 2.743-2.743 2.743zM14.844 24.713c0 0.445-0.362 0.807-0.807 0.807h-5.174c0.099-0.267 0.168-0.548 0.203-0.839h5.777v0.032zM14.844 23.712h-5.785c-0.252-1.803-1.803-3.195-3.674-3.195s-3.422 1.392-3.674 3.195h-0.742v-4.966c0-0.621 0.273-1.206 0.748-1.606s1.098-0.567 1.709-0.461l0.271 0.047v1.114c0 0.838 0.596 1.569 1.418 1.738l3.7 0.76c0.12 0.025 0.24 0.037 0.36 0.037 0.405 0 0.799-0.139 1.119-0.4 0.415-0.338 0.653-0.84 0.653-1.375v-0.587c2.287 0.633 3.898 2.712 3.898 5.13v0.568zM27.365 17.743c0 0.267-0.217 0.484-0.484 0.484s-0.484-0.217-0.484-0.484v-6.712c0-0.267 0.217-0.484 0.484-0.484s0.484 0.217 0.484 0.484v6.712z"></path>
<path d="M30.122 24.842h-6.483l-1.878 3.098h10.238l-1.878-3.098zM24.185 25.81h5.392l0.704 1.162h-6.801l0.704-1.162z"></path>
</svg>
