<!-- Generated by IcoMoon.io -->
<svg version="1.1" xmlns="http://www.w3.org/2000/svg" width="32" height="32" viewBox="0 0 32 32">
<title>flower</title>
<path d="M23.17 23.982q-1.695 0-2.861 0.318t-2.013 1.166-1.166 2.013q-0.318 1.201-0.318 2.896h0.177q0.212 0.035 0.918 0.035 2.649 0 3.709-1.448 1.448-1.978 1.554-4.98zM15.188 30.375q0-1.695-0.318-2.896-0.318-1.166-1.166-2.013t-2.013-1.166-2.861-0.318q0.106 3.073 1.377 4.698 1.201 1.66 3.885 1.731 0.706 0 0.918-0.035h0.177zM24.583 22.605q0.212 0.247 0.212 0.565 0 4.203-1.695 6.499-1.731 2.261-5.192 2.331h-0.954q-0.954-0.071-1.907 0h-0.954q-3.461-0.071-5.157-2.331-1.731-2.261-1.731-6.499 0-0.318 0.247-0.565 0.212-0.212 0.565-0.212 1.095-0.035 2.437 0.035 0.954 0.106 2.155 0.53 1.342 0.494 2.119 1.307 0.812 0.883 1.272 1.731 0.459-0.848 1.272-1.731 0.777-0.812 2.119-1.307 1.201-0.424 2.19-0.53 1.272-0.071 2.402-0.035 0.353 0 0.6 0.212zM16.035 13.528q0.989 0 1.66-0.671t0.671-1.695-0.671-1.695-1.695-0.671-1.695 0.671-0.671 1.66q-0.035 0.989 0.671 1.731 0.742 0.706 1.731 0.671zM16.035 7.17q1.695 0.071 2.79 1.166t1.166 2.826q-0.071 1.695-1.166 2.79-1.095 1.13-2.826 1.201-1.731-0.071-2.826-1.201-1.13-1.13-1.13-2.79-0.035-1.66 1.13-2.826t2.861-1.166zM24.724 12.362q0.848-0.53 0.848-1.201t-0.848-1.236q-0.848-0.53-2.296-0.6-0.035 0-0.071 0.035-0.565 0.035-0.777-0.494-0.247-0.494 0.141-0.883 1.342-1.342 1.342-2.649 0-1.272-1.307-1.272-0.848 0-2.684 1.307-0.459 0.283-0.812 0.035-0.424-0.247-0.459-0.706 0-1.766-0.918-2.684-0.459-0.459-0.883-0.459-0.671 0.035-1.201 0.883-0.53 0.777-0.6 2.26 0.071 0.636-0.424 0.848-0.459 0.247-0.954-0.141-1.272-1.342-2.684-1.342-1.236 0-1.236 1.236 0 1.413 1.342 2.684 0.353 0.353 0.212 0.883-0.212 0.459-0.777 0.494h-0.141q-1.448 0.071-2.261 0.565-0.848 0.565-0.848 1.236t0.848 1.201q0.777 0.53 2.261 0.6h0.106q0.565-0.035 0.812 0.424 0.212 0.459-0.177 0.954-1.342 1.307-1.307 2.578 0 1.342 1.272 1.342 0.848 0 2.684-1.307 0.141-0.141 0.459-0.141 0.247 0 0.389 0.071 0.424 0.247 0.424 0.706 0 1.695 0.918 2.72 0.424 0.424 0.883 0.424 0.671-0.035 1.236-0.883 0.494-0.777 0.565-2.225v-0.106q-0.035-0.53 0.459-0.812 0.424-0.212 0.918 0.177 1.342 1.342 2.649 1.342 1.236 0 1.272-1.307 0-0.777-1.307-2.72-0.283-0.494-0.035-0.883t0.671-0.353q1.448-0.071 2.296-0.6zM26.278 9.113q0.883 0.883 0.883 2.049t-0.883 2.013q-0.848 0.848-2.437 1.236 0.848 1.377 0.848 2.508 0 1.272-0.742 2.084-0.777 0.777-2.119 0.777-1.377 0-2.578-0.777-0.353 1.519-1.201 2.402-0.918 0.918-2.013 0.918-1.095 0.035-2.013-0.848-0.918-0.918-1.272-2.472-1.483 0.848-2.508 0.848-1.307-0.071-2.084-0.812-0.777-0.777-0.777-2.119-0.035-1.236 0.777-2.508-1.519-0.389-2.402-1.236-0.918-0.848-0.918-2.013 0-1.13 0.918-2.049 0.883-0.812 2.366-1.201-0.812-1.342-0.812-2.614 0-1.307 0.777-2.084 0.742-0.742 2.119-0.742 1.377 0.071 2.543 0.812 0.389-1.554 1.236-2.402 0.848-0.883 2.013-0.883 1.13 0 2.013 0.883 0.848 0.848 1.236 2.437 1.377-0.848 2.508-0.848 1.307 0 2.084 0.742 0.742 0.742 0.812 2.155 0 1.272-0.812 2.508 1.589 0.389 2.437 1.236z"></path>
</svg>
