<!-- Generated by IcoMoon.io -->
<svg version="1.1" xmlns="http://www.w3.org/2000/svg" width="32" height="32" viewBox="0 0 32 32">
<title>food</title>
<path d="M30.412 28.366q0-0.388-0.388-0.388h-28.013q-0.388 0-0.388 0.388v0.811q0 0.388 0.388 0.388h28.013q0.388 0 0.388-0.388v-0.811zM29.989 21.592q0.388 0 0.388-0.388v-1.129q-0.106-6.104-4.057-9.843t-10.337-3.846q-6.351 0.106-10.302 3.846t-4.057 9.843v1.129q0 0.388 0.388 0.388h27.978zM16.794 23.215v3.175h13.195q0.882 0.071 1.411 0.6t0.6 1.411v0.776q-0.071 0.917-0.6 1.411-0.529 0.529-1.411 0.6h-27.978q-0.882-0.071-1.411-0.6-0.529-0.494-0.6-1.411v-0.776q0.071-0.882 0.6-1.411t1.411-0.6h13.16v-3.175h-13.16q-0.882-0.071-1.411-0.6t-0.6-1.411v-1.129q0.106-6.562 4.269-10.725t10.902-4.516v-2.434h-3.175q-0.353 0-0.565-0.247-0.247-0.212-0.247-0.565 0-0.318 0.247-0.565 0.212-0.212 0.565-0.212h7.974q0.353 0 0.6 0.212 0.212 0.247 0.212 0.565 0 0.353-0.212 0.565-0.247 0.247-0.6 0.247h-3.175v2.434q6.739 0.353 10.937 4.516 4.163 4.163 4.269 10.725v1.129q-0.071 0.882-0.6 1.411t-1.411 0.6h-13.195z"></path>
</svg>
