<!-- Generated by IcoMoon.io -->
<svg version="1.1" xmlns="http://www.w3.org/2000/svg" width="32" height="32" viewBox="0 0 32 32">
<title>fork-spoon</title>
<path d="M25.978 20.803q0-0.318-0.212-0.565-0.247-0.212-0.6-0.212t-0.565 0.212q-0.212 0.247-0.212 0.565v8.83q0 0.318 0.212 0.53 0.212 0.247 0.565 0.247t0.6-0.247q0.212-0.212 0.212-0.53v-8.83zM9.201 20.803q0-0.318-0.247-0.565-0.247-0.212-0.494-0.212h-0.106q-0.742 0.035-0.742 0.777v8.83q0 0.318 0.212 0.53 0.212 0.247 0.565 0.247t0.6-0.247q0.212-0.212 0.212-0.53v-8.83zM25.201 14.411v-12.397q0-0.389-0.424-0.389h-0.389q-1.095 0.071-1.695 0.671-0.636 0.636-0.706 1.731v7.982q0.071 1.060 0.706 1.695t1.695 0.706h0.812zM26.79 19.038q0.812 0.706 0.812 1.766v8.83q-0.071 1.060-0.706 1.695-0.671 0.671-1.695 0.671t-1.695-0.671q-0.636-0.636-0.706-1.695v-8.83q0.071-1.024 0.706-1.66t1.695-0.706v-2.402h-0.812q-1.731-0.071-2.826-1.166t-1.166-2.826v-8.018q0.071-1.695 1.166-2.861 1.095-1.095 2.826-1.166h0.389q0.883 0.071 1.413 0.6t0.6 1.413v17.024zM12.168 0.247q0.247 0.247 0.247 0.565v8.406q-0.071 0.883-0.6 1.377-0.53 0.53-1.413 0.6h-1.201v7.382q0.53 0.141 0.883 0.565 0.706 0.636 0.706 1.66v8.83q-0.071 1.060-0.706 1.695-0.671 0.671-1.66 0.671-1.024 0-1.695-0.671-0.636-0.636-0.706-1.695v-8.83q0-0.742 0.424-1.377 0.424-0.6 1.166-0.848v-7.382h-1.236q-0.883-0.071-1.377-0.6-0.53-0.494-0.6-1.377v-8.406q0-0.318 0.247-0.565 0.212-0.247 0.565-0.247 0.318 0 0.565 0.247t0.247 0.565v8.406q0 0.389 0.353 0.389h1.236v-8.795q0-0.318 0.247-0.565 0.212-0.247 0.53-0.247t0.565 0.247 0.247 0.565v8.795h1.201q0.389 0 0.389-0.389v-8.406q0-0.318 0.247-0.565 0.212-0.247 0.565-0.247 0.318 0 0.565 0.247z"></path>
</svg>
