<!-- Generated by IcoMoon.io -->
<svg version="1.1" xmlns="http://www.w3.org/2000/svg" width="32" height="32" viewBox="0 0 32 32">
<title>fullscreen-mark</title>
<path d="M17.821 1.375q0.223 0.297 0.558 0.297h11.038l-11.038 10.89q-0.223 0.223-0.297 0.557-0.037 0.26 0.223 0.557 0.297 0.26 0.558 0.223 0.334-0.074 0.558-0.297l10.89-11.075v11.075q0 0.335 0.26 0.595 0.223 0.26 0.595 0.26 0.334 0 0.595-0.26 0.223-0.297 0.223-0.595v-13.082q0-0.297-0.074-0.446-0.149-0.074-0.446-0.074h-12.934q-0.297 0-0.595 0.186-0.26 0.223-0.334 0.557 0 0.335 0.223 0.632zM0.539 32q-0.335 0-0.409-0.111-0.112-0.074-0.112-0.409v-13.082q0-0.372 0.26-0.632 0.223-0.223 0.595-0.223 0.335 0 0.595 0.223 0.223 0.26 0.223 0.632v11.038l10.89-11.038q0.223-0.223 0.557-0.297 0.297-0.074 0.557 0.223 0.297 0.26 0.223 0.558-0.074 0.334-0.297 0.558l-11.038 10.89h11.038q0.335 0 0.557 0.26t0.223 0.632q0 0.446-0.26 0.595-0.297 0.186-0.669 0.186h-12.934z"></path>
</svg>
