<!-- Generated by IcoMoon.io -->
<svg version="1.1" xmlns="http://www.w3.org/2000/svg" width="32" height="32" viewBox="0 0 32 32">
<title>furniture</title>
<path d="M25.589 23.047h-1.271v2.231q0 0.311 0.339 0.311h0.621q0.311 0 0.311-0.311v-2.231zM7.682 23.047h-1.299v2.231q0 0.311 0.367 0.311h0.65q0.282 0 0.282-0.311v-2.231zM30.136 15.703q0.508-0.65 0.565-1.61-0.056-1.214-0.819-1.921t-1.977-0.65q-0.989 0.113-1.638 0.847-0.621 0.763-0.678 1.864v4.349q0 0.254-0.169 0.424-0.198 0.198-0.452 0.198h-17.935q-0.254 0-0.452-0.198-0.198-0.169-0.198-0.424v-4.378q-0.056-1.13-0.65-1.864-0.621-0.706-1.666-0.847-1.186-0.056-1.949 0.65-0.791 0.706-0.819 1.921 0.056 0.989 0.565 1.638 0.537 0.706 1.412 0.904 0.508 0.169 0.876 0.565 0.339 0.424 0.339 0.96v3.305q0 0.113 0.113 0.226t0.226 0.113h22.312q0.311-0.028 0.367-0.339v-3.276q0-0.593 0.339-1.017 0.311-0.395 0.847-0.508 0.904-0.226 1.44-0.932zM6.383 11.213q1.299 1.214 1.299 2.994v3.7h16.635v-3.7q0-1.808 1.271-2.994v-2.909q-0.028-0.819-0.565-1.327-0.508-0.508-1.356-0.565h-15.308q-0.876 0.056-1.384 0.565-0.565 0.565-0.593 1.327v2.909zM32 14.065q-0.028 1.356-0.847 2.429-0.791 1.045-2.175 1.384-0.169 0.028-0.169 0.282v3.276q-0.056 0.706-0.48 1.13t-1.186 0.48h-0.254v2.231q-0.056 0.706-0.48 1.13t-1.13 0.48h-0.621q-0.734-0.056-1.13-0.48-0.424-0.424-0.48-1.13v-2.231h-14.094v2.231q-0.028 0.706-0.452 1.13-0.395 0.424-1.101 0.48h-0.65q-0.706-0.056-1.13-0.48-0.48-0.48-0.508-1.13v-2.231h-0.282q-0.706-0.056-1.13-0.48-0.48-0.48-0.508-1.13v-3.276q0-0.226-0.226-0.282-1.299-0.311-2.118-1.356-0.791-1.017-0.847-2.457 0.028-1.808 1.243-2.881t2.937-0.96q0.763 0.141 0.932 0.226v-2.146q0.056-1.384 0.96-2.26 0.904-0.904 2.288-0.932h15.308q1.356 0.028 2.288 0.932 0.876 0.876 0.932 2.26v2.146q0.198-0.085 0.904-0.226 1.751-0.141 2.937 0.989 1.271 1.186 1.271 2.853z"></path>
</svg>
