<!-- Generated by IcoMoon.io -->
<svg version="1.1" xmlns="http://www.w3.org/2000/svg" width="32" height="32" viewBox="0 0 32 32">
<title>gift</title>
<path d="M28.789 16.018h-11.996v14.359h11.572q0.423 0 0.423-0.388v-13.971zM15.171 16.018h-11.96v13.971q0 0.388 0.388 0.388h11.572v-14.359zM30.377 9.985q0-0.388-0.388-0.388h-13.195v4.834h13.195q0.388-0.071 0.388-0.459v-3.987zM15.171 9.596h-13.16q-0.388 0-0.388 0.388v3.987q0 0.423 0.388 0.423h13.16v-4.798zM16.794 7.303q0.035 0.176 0.035 0.67 3.563-0.176 5.716-2.258 0.706-0.706 0.706-1.729-0.071-1.058-0.706-1.658-0.67-0.6-1.694-0.67-1.058 0-1.729 0.67-2.046 2.046-2.329 4.975zM15.206 7.303q-0.247-2.928-2.329-4.975-0.706-0.706-1.658-0.706-1.023 0.071-1.694 0.67-0.67 0.67-0.67 1.694-0.071 1.023 0.635 1.729 2.223 2.117 5.68 2.258 0-0.494 0.035-0.67zM29.989 8.009q0.847 0.071 1.411 0.565 0.529 0.529 0.6 1.411v3.987q0 0.741-0.423 1.27-0.459 0.529-1.2 0.706v14.042q-0.071 0.847-0.564 1.411-0.529 0.529-1.411 0.6h-24.803q-0.882-0.071-1.376-0.6-0.529-0.529-0.6-1.411v-14.007q-0.776-0.176-1.164-0.706-0.459-0.494-0.459-1.27v-3.987q0.071-0.882 0.6-1.411 0.565-0.494 1.411-0.565h7.762q-0.811-0.459-1.658-1.411-0.847-0.917-0.917-2.576 0.071-1.764 1.2-2.893 1.094-1.094 2.822-1.164 1.694 0 2.787 1.2 1.341 1.2 2.011 2.858 0.706-1.658 1.905-2.822 1.235-1.2 2.893-1.235 1.764 0.035 2.858 1.164 1.058 1.129 1.129 2.858-0.035 1.623-0.882 2.576-0.917 0.988-1.694 1.411h7.762z"></path>
</svg>
