<!-- Generated by IcoMoon.io -->
<svg version="1.1" xmlns="http://www.w3.org/2000/svg" width="32" height="32" viewBox="0 0 32 32">
<title>globe</title>
<path d="M21.638 18.456h-3.174q-0.529 1.693-1.34 3.28 2.786-0.917 4.515-3.28zM14.302 22.195q0.6 0 0.776-0.035 1.023-1.622 1.763-3.703h-5.079q0.705 1.94 1.728 3.703 0.176 0.035 0.811 0.035zM6.86 18.456q1.799 2.434 4.62 3.315-0.811-1.693-1.376-3.315h-3.245zM22.626 16.834q0.705-1.481 0.846-3.174h-4.127q-0.035 1.481-0.423 3.174h3.703zM10.775 13.624q0.176 1.94 0.494 3.174h6.031q0.317-1.234 0.494-3.174h-7.019zM5.061 13.624q0.176 1.693 0.846 3.174h3.774q-0.353-1.446-0.459-3.174h-4.162zM23.507 12.002q-0.212-1.764-0.917-3.174h-3.598q0.282 1.622 0.388 3.174h4.127zM17.829 12.002q-0.106-1.94-0.459-3.174h-6.137q-0.388 1.517-0.459 3.174h7.054zM5.943 8.828q-0.705 1.552-0.882 3.174h4.162q0.071-1.446 0.423-3.174h-3.703zM21.567 7.24q-1.622-2.151-4.268-3.104 0.811 1.517 1.27 3.104h2.998zM6.966 7.24h3.104q0.459-1.376 1.27-3.139-2.645 0.882-4.373 3.139zM14.302 3.643q-0.67 0-0.846 0.035-1.023 1.446-1.764 3.562h5.22q-0.741-2.116-1.764-3.562-0.176-0.035-0.846-0.035zM25.094 12.884q-0.106 4.62-3.174 7.689-3.069 3.104-7.654 3.21-4.62-0.106-7.689-3.174t-3.174-7.724q0.106-4.585 3.21-7.654 3.069-3.068 7.654-3.174 4.479 0 7.654 3.174t3.174 7.654zM26.364 5.265q2.081 3.21 2.222 6.983 0.141 3.598-1.622 7.301-1.728 3.21-4.691 5.114t-6.56 2.293q0.035 0.035 0.035 0.247v3.21h4.797q0.353 0 0.6 0.212 0.212 0.247 0.212 0.564 0 0.353-0.212 0.564-0.247 0.247-0.6 0.247h-11.216q-0.317 0-0.529-0.247-0.247-0.212-0.247-0.564 0-0.317 0.247-0.564 0.212-0.212 0.529-0.212h4.797v-3.21l0.035-0.176q-3.456-0.035-6.772-1.728-0.282-0.247-0.388-0.529-0.106-0.317 0.035-0.564 0.388-0.705 1.093-0.317 4.867 2.469 9.84 1.023 4.938-1.446 7.548-6.102 2.398-4.832 0.846-9.735-1.517-4.867-6.384-7.583-0.67-0.388-0.317-1.058 0.247-0.282 0.529-0.388 0.317-0.106 0.564 0.035 3.562 1.94 5.608 5.185z"></path>
</svg>
