<!-- Generated by IcoMoon.io -->
<svg version="1.1" xmlns="http://www.w3.org/2000/svg" width="32" height="32" viewBox="0 0 32 32">
<title>google-plus</title>
<path d="M5.998 28.86q2.082 1.305 5.080 1.376 2.681 0 4.375-1.164 1.623-1.164 1.694-3.352 0.035-1.552-0.988-2.752-0.917-1.058-3.528-2.787-0.529-0.106-1.2-0.106-3.211 0-5.327 1.27-2.187 1.341-2.223 3.74 0.071 2.47 2.117 3.775zM7.55 10.972q1.447 2.223 3.775 2.399 1.764-0.071 2.646-1.164 0.847-1.129 0.847-3.105-0.035-3.034-1.376-5.292-1.376-2.293-3.705-2.399-1.764 0.035-2.787 1.27-0.988 1.235-0.988 3.211 0.071 2.858 1.588 5.080zM20.675 6.739h4.445v4.375h2.152v-4.375h4.41v-2.152h-4.41v-4.41h-2.152v4.41h-4.445v2.152zM2.011 22.086q1.588-1.588 4.057-2.329 2.576-0.706 5.469-0.811-1.235-1.447-1.235-2.823 0-0.565 0.423-1.658-0.282 0.071-0.67 0.071h-0.706q-2.928-0.035-4.904-1.905-2.011-1.87-2.046-4.692 0.035-2.646 1.835-4.763 1.764-2.082 4.481-2.787 1.94-0.388 3.599-0.388h8.362l-2.576 1.517h-2.576q1.376 0.847 2.152 2.364 0.741 1.517 0.741 3.316 0 2.822-2.152 5.010l-1.411 1.305-0.388 0.459q-0.212 0.247-0.282 0.6t-0.071 0.67q0 0.882 0.882 1.658l0.635 0.494q0.423 0.353 0.67 0.6 0.388 0.282 1.411 1.27 0.635 0.67 1.235 1.482 0.917 1.341 0.917 3.316-0.106 3.669-3.14 5.786-3.034 2.082-7.621 2.152-3.634-0.071-6.139-1.588-2.54-1.517-2.646-4.41 0.071-2.329 1.693-3.916z"></path>
</svg>
