<!-- Generated by IcoMoon.io -->
<svg version="1.1" xmlns="http://www.w3.org/2000/svg" width="32" height="32" viewBox="0 0 32 32">
<title>hairdryer</title>
<path d="M21.34 6.37q0.64 0.192 0.96 0.672 0.352 0.512 0.352 1.12v5.279q0 0.64-0.352 1.088-0.32 0.48-0.96 0.672-0.416 0.128-2.112 0.768-2.944 1.056-4.639 1.632-0.128 0.416-0.448 0.544-1.248 0.576-2.080 2.944-0.832 2.304-1.088 6.111-0.096 0.896-0.672 1.472-0.544 0.576-1.472 0.64h-2.272q-0.896-0.064-1.536-0.672-0.608-0.608-0.672-1.568v-1.504q0-2.368-0.48-4.991-0.48-2.656-1.248-3.647-2.624-2.4-2.624-5.919v-0.352q0.096-3.391 2.336-5.631 2.208-2.24 5.503-2.336 3.359 0 11.454 2.976zM21.148 8.129q0-0.256-0.224-0.352-1.632-0.544-2.144-0.736-7.711-2.88-10.942-2.848-2.72 0.032-4.511 1.888-1.856 1.888-1.888 4.575 0 0.128-0.032 0.16 0.032 0.032 0.032 0.16 0 2.848 2.080 4.767l0.128 0.128q1.856 1.6 4.191 1.6 3.199 0 10.878-2.88l2.208-0.832q0.224-0.032 0.224-0.32v-5.311zM10.526 8.033q1.056 1.024 1.088 2.624-0.064 1.6-1.088 2.592-1.056 1.024-2.624 1.056-1.504-0.064-2.56-1.056-1.024-0.992-1.088-2.592 0.064-1.6 1.088-2.624 1.056-0.992 2.56-1.056 1.568 0.032 2.624 1.056zM24.54 9.889q-0.32-0.064-0.448-0.256-0.192-0.224-0.128-0.512 0.032-0.224 0.32-0.448 0.96-0.576 1.888-0.736 0.8-0.096 1.28 0.096 0.48 0.256 0.96 0.704 0.512 0.48 0.928 0.512t1.504-0.576q0.608-0.32 1.024 0.192 0.352 0.576-0.224 0.96-1.28 0.768-2.272 0.768-0.864 0-1.92-0.864-0.32-0.32-0.576-0.416-0.224-0.096-0.672 0-0.48 0.096-1.152 0.512-0.192 0.128-0.512 0.064zM7.935 12.801q0.928 0 1.536-0.608t0.608-1.568q0-0.928-0.608-1.536t-1.568-0.608q-0.928 0-1.536 0.608t-0.576 1.536q0 0.96 0.608 1.568 0.64 0.64 1.536 0.608zM31.834 11.521q0.16 0.224 0.096 0.48-0.032 0.256-0.32 0.48-1.28 0.768-2.208 0.768t-1.952-0.832q-0.448-0.448-0.864-0.512-0.416-0.032-1.504 0.576-0.192 0.128-0.512 0.064t-0.48-0.256q-0.384-0.64 0.224-0.96 1.088-0.64 1.856-0.736 0.8-0.096 1.28 0.096 0.576 0.32 0.992 0.736 0.288 0.288 0.608 0.416 0.256 0.096 0.672-0.032 0.416-0.096 1.088-0.48 0.64-0.384 1.024 0.192zM11.742 18.4q-2.432 0.544-3.871 0.544-1.504 0-3.039-0.576 0.992 3.199 0.992 7.231v1.504q0 0.288 0.224 0.48 0.224 0.224 0.512 0.224h2.272q0.288 0 0.512-0.192 0.192-0.192 0.192-0.48 0.384-6.047 2.208-8.735z"></path>
</svg>
