<!-- Generated by IcoMoon.io -->
<svg version="1.1" xmlns="http://www.w3.org/2000/svg" width="32" height="32" viewBox="0 0 32 32">
<title>heart</title>
<path d="M30.475 9.506q-0.035-3.086-1.951-5.144-1.916-2.022-4.86-2.093-1.667 0.035-3.122 0.639-1.348 0.568-2.058 1.135-0.674 0.568-1.561 1.455l-0.355 0.39q-0.213 0.213-0.603 0.213t-0.568-0.213q0-0.071-0.035-0.106l-0.319-0.284q-0.568-0.603-1.526-1.419-0.639-0.532-2.093-1.206-1.49-0.603-3.122-0.603-2.909 0.035-4.789 2.093-1.951 2.058-1.987 5.144 0 7.84 14.475 19.973 14.475-12.098 14.475-19.973zM29.588 3.298q2.377 2.519 2.412 6.208-0.071 8.692-15.432 21.463l-0.035 0.035q-0.284 0.248-0.532 0.248-0.213 0.035-0.603-0.284-15.397-12.843-15.397-21.463 0.035-3.69 2.412-6.208 2.271-2.448 5.889-2.554 1.951 0.071 3.548 0.674 1.703 0.71 2.448 1.313 0.71 0.568 1.703 1.561 0.639-0.745 1.667-1.561 0.78-0.568 2.519-1.313 1.596-0.674 3.477-0.674 3.583 0.106 5.925 2.554z"></path>
</svg>
