<!-- Generated by IcoMoon.io -->
<svg version="1.1" xmlns="http://www.w3.org/2000/svg" width="32" height="32" viewBox="0 0 32 32">
<title>heart-filled</title>
<path d="M29.588 3.298q2.377 2.519 2.412 6.244-0.035 8.656-15.468 21.428l-0.035 0.035q-0.248 0.248-0.497 0.248-0.213 0.035-0.603-0.284-15.397-12.843-15.397-21.428 0.035-3.725 2.412-6.244 2.271-2.448 5.889-2.554 1.951 0.071 3.548 0.674 1.703 0.71 2.448 1.313 0.639 0.532 1.667 1.596 0.851-0.922 1.703-1.596 0.71-0.568 2.483-1.313 1.596-0.674 3.477-0.674 3.619 0.106 5.96 2.554z"></path>
</svg>
