<!-- Generated by IcoMoon.io -->
<svg version="1.1" xmlns="http://www.w3.org/2000/svg" width="32" height="32" viewBox="0 0 32 32">
<title>heater</title>
<path d="M11.324 4.449c-0.548-1.108-0.98-1.983-0.027-3.413 0.204-0.307 0.12-0.72-0.185-0.924-0.303-0.203-0.719-0.121-0.924 0.185-1.381 2.069-0.648 3.552-0.059 4.743 0.551 1.115 0.949 1.92 0.059 3.257-0.205 0.307-0.121 0.72 0.184 0.924 0.113 0.076 0.243 0.112 0.371 0.112 0.215 0 0.425-0.104 0.553-0.297 1.319-1.976 0.604-3.424 0.028-4.587z"></path>
<path d="M16.636 4.449c-0.549-1.108-0.981-1.983-0.028-3.413 0.204-0.307 0.12-0.72-0.185-0.924-0.303-0.203-0.72-0.121-0.924 0.185-1.38 2.071-0.647 3.553-0.059 4.744 0.551 1.115 0.949 1.92 0.059 3.256-0.204 0.307-0.12 0.72 0.185 0.924 0.113 0.076 0.241 0.112 0.369 0.112 0.215 0 0.425-0.104 0.555-0.297 1.319-1.976 0.604-3.424 0.028-4.587z"></path>
<path d="M21.947 4.449c-0.549-1.108-0.981-1.983-0.028-3.413 0.204-0.307 0.12-0.72-0.185-0.924-0.303-0.203-0.72-0.121-0.924 0.185-1.38 2.071-0.647 3.553-0.059 4.744 0.551 1.115 0.949 1.92 0.059 3.256-0.204 0.307-0.12 0.72 0.185 0.924 0.113 0.076 0.241 0.112 0.369 0.112 0.216 0 0.427-0.104 0.555-0.297 1.319-1.976 0.604-3.424 0.028-4.587z"></path>
<path d="M27.334 10.666h-22.667c-1.839 0-3.333 1.496-3.333 3.333v12c0 1.837 1.495 3.333 3.333 3.333h22.667c1.839 0 3.333-1.496 3.333-3.333v-12c0-1.837-1.495-3.333-3.333-3.333zM29.334 26c0 1.103-0.897 2-2 2h-22.667c-1.103 0-2-0.897-2-2v-12c0-1.103 0.897-2 2-2h22.667c1.103 0 2 0.897 2 2v12z"></path>
<path d="M6 13.333c-0.368 0-0.667 0.299-0.667 0.667v12c0 0.368 0.299 0.667 0.667 0.667s0.667-0.299 0.667-0.667v-12c0-0.368-0.299-0.667-0.667-0.667z"></path>
<path d="M10 13.333c-0.368 0-0.667 0.299-0.667 0.667v12c0 0.368 0.299 0.667 0.667 0.667s0.667-0.299 0.667-0.667v-12c0-0.368-0.299-0.667-0.667-0.667z"></path>
<path d="M14 13.333c-0.368 0-0.667 0.299-0.667 0.667v12c0 0.368 0.299 0.667 0.667 0.667s0.667-0.299 0.667-0.667v-12c0-0.368-0.299-0.667-0.667-0.667z"></path>
<path d="M18 13.333c-0.368 0-0.667 0.299-0.667 0.667v12c0 0.368 0.299 0.667 0.667 0.667s0.667-0.299 0.667-0.667v-12c0-0.368-0.299-0.667-0.667-0.667z"></path>
<path d="M22 13.333c-0.368 0-0.667 0.299-0.667 0.667v12c0 0.368 0.299 0.667 0.667 0.667s0.667-0.299 0.667-0.667v-12c0-0.368-0.299-0.667-0.667-0.667z"></path>
<path d="M26 13.333c-0.368 0-0.667 0.299-0.667 0.667v12c0 0.368 0.299 0.667 0.667 0.667s0.667-0.299 0.667-0.667v-12c0-0.368-0.299-0.667-0.667-0.667z"></path>
<path d="M7.333 28c-0.368 0-0.667 0.299-0.667 0.667v2.667c0 0.368 0.299 0.667 0.667 0.667s0.667-0.299 0.667-0.667v-2.667c-0-0.368-0.299-0.667-0.667-0.667z"></path>
<path d="M24.667 28c-0.368 0-0.667 0.299-0.667 0.667v2.667c0 0.368 0.299 0.667 0.667 0.667s0.667-0.299 0.667-0.667v-2.667c0-0.368-0.299-0.667-0.667-0.667z"></path>
</svg>
