<!-- Generated by IcoMoon.io -->
<svg version="1.1" xmlns="http://www.w3.org/2000/svg" width="32" height="32" viewBox="0 0 32 32">
<title>home-heart</title>
<path d="M16.017 17.724q-0.586 0-0.759-0.517-0.31-0.724-0.966-1.172-0.655-0.414-1.448-0.414-1.034 0.069-1.655 0.69t-0.69 1.655q0.069 1.517 1.517 3.483 1.517 2.103 3.966 4.103 2.414-1.966 4-4.103 1.448-1.966 1.517-3.483-0.069-1.034-0.69-1.655t-1.655-0.69q-0.759 0-1.448 0.414-0.724 0.483-1 1.172-0.138 0.517-0.69 0.517zM15.983 15.414q1.276-1.379 3.138-1.379 1.69 0.069 2.759 1.138t1.138 2.759q-0.069 1.966-1.759 4.379-1.655 2.379-4.793 4.862-0.276 0.172-0.483 0.172t-0.483-0.172q-3.138-2.483-4.793-4.862-1.69-2.414-1.759-4.379 0.069-1.69 1.138-2.759t2.759-1.138q1.862 0 3.138 1.379zM26.121 15.069l-10.138-9.586-10.138 9.586v15q0 0.379 0.379 0.379h19.552q0.345 0 0.345-0.379v-15zM29.983 14.966q0.069-0.069 0.069-0.207 0-0.103-0.069-0.172l-13.724-12.931q-0.103-0.103-0.276-0.103t-0.276 0.103l-13.69 12.931q-0.069 0.069-0.069 0.172 0 0.138 0.069 0.207l0.552 0.517q0.276 0.276 0.552 0l12.31-11.655q0.552-0.448 1.103 0l12.345 11.655q0.276 0.276 0.552 0zM31.052 13.483q0.586 0.517 0.586 1.31 0 0.828-0.586 1.345l-0.552 0.517q-0.552 0.517-1.31 0.517-0.793 0-1.379-0.517l-0.103-0.069v13.483q-0.069 0.862-0.552 1.345-0.517 0.517-1.379 0.586h-19.552q-0.862-0.069-1.345-0.586-0.517-0.483-0.586-1.345v-13.483l-0.103 0.069q-0.552 0.517-1.31 0.517-0.793 0-1.379-0.517l-0.552-0.517q-0.586-0.517-0.586-1.345 0-0.793 0.586-1.31l13.69-12.966q0.586-0.517 1.379-0.517 0.759 0 1.31 0.517z"></path>
</svg>
