<!-- Generated by IcoMoon.io -->
<svg version="1.1" xmlns="http://www.w3.org/2000/svg" width="32" height="32" viewBox="0 0 32 32">
<title>home-plus</title>
<path d="M15.203 18.75v-3.937q0-0.344 0.219-0.563t0.563-0.219q0.375 0 0.594 0.219t0.219 0.563v3.937h3.906q0.313 0 0.531 0.219t0.219 0.531q0 0.344-0.219 0.563t-0.531 0.219h-3.906v3.906q0 0.344-0.219 0.563-0.25 0.25-0.563 0.25t-0.563-0.25-0.25-0.563v-3.875h-3.906q-0.281 0-0.531-0.25-0.219-0.219-0.219-0.563 0-0.313 0.219-0.531t0.531-0.219h3.906zM26.14 15.094l-10.156-9.625-10.125 9.625v14.969q0 0.375 0.375 0.375h19.531q0.375 0 0.375-0.375v-14.969zM29.984 14.969q0.063-0.063 0.063-0.187t-0.063-0.187l-13.719-12.937q-0.25-0.281-0.531 0l-13.719 12.937q-0.063 0.063-0.063 0.156 0 0.156 0.063 0.219l0.563 0.531q0.281 0.25 0.531 0l12.344-11.687q0.25-0.187 0.563-0.187t0.531 0.187l12.344 11.687q0.281 0.25 0.531 0zM31.047 13.469q0.594 0.5 0.594 1.313 0 0.844-0.594 1.344l-0.531 0.5q-0.625 0.531-1.344 0.531-0.75 0-1.375-0.531l-0.094-0.063v13.5q-0.063 0.875-0.563 1.375-0.563 0.5-1.375 0.563h-19.531q-0.875-0.063-1.375-0.563t-0.563-1.375v-13.5l-0.125 0.063q-0.531 0.531-1.313 0.531t-1.375-0.531l-0.531-0.5q-0.594-0.5-0.594-1.344 0-0.813 0.594-1.313l13.687-12.969q0.594-0.5 1.375-0.5 0.813 0 1.344 0.5z"></path>
</svg>
