<!-- Generated by IcoMoon.io -->
<svg version="1.1" xmlns="http://www.w3.org/2000/svg" width="32" height="32" viewBox="0 0 32 32">
<title>home</title>
<path d="M26.121 15.069l-10.138-9.586-10.138 9.586v15q0 0.379 0.379 0.379h19.552q0.345 0 0.345-0.379v-15zM29.983 14.966q0.069-0.069 0.069-0.207 0-0.103-0.069-0.172l-13.724-12.931q-0.276-0.276-0.552 0l-13.69 12.931q-0.069 0.069-0.069 0.172 0 0.138 0.069 0.207l0.552 0.517q0.276 0.276 0.552 0l12.31-11.655q0.276-0.207 0.552-0.207 0.31 0 0.552 0.207l12.345 11.655q0.276 0.276 0.552 0zM31.052 13.483q0.586 0.517 0.586 1.31 0 0.828-0.586 1.345l-0.552 0.517q-0.552 0.517-1.31 0.517-0.793 0-1.379-0.517l-0.103-0.069v13.483q-0.069 0.862-0.552 1.345-0.517 0.517-1.379 0.586h-19.552q-0.862-0.069-1.345-0.586-0.517-0.483-0.586-1.345v-13.483l-0.103 0.069q-0.552 0.517-1.31 0.517-0.793 0-1.379-0.517l-0.552-0.517q-0.586-0.517-0.586-1.345 0-0.793 0.586-1.31l13.69-12.966q0.586-0.517 1.379-0.517 0.759 0 1.31 0.517z"></path>
</svg>
