<!-- Generated by IcoMoon.io -->
<svg version="1.1" xmlns="http://www.w3.org/2000/svg" width="32" height="32" viewBox="0 0 32 32">
<title>instagram</title>
<path d="M28.256 13.528v13.563q0 0.53-0.353 0.883t-0.883 0.353h-22.11q-0.53 0-0.883-0.353t-0.353-0.883v-13.563h2.79q-0.318 1.166-0.318 2.472 0.106 4.274 2.896 6.993 2.755 2.755 6.923 2.861 4.203-0.106 6.993-2.896 2.755-2.826 2.861-6.958 0-1.201-0.353-2.472h2.79zM15.965 9.854q2.649 0.071 4.38 1.801 1.766 1.766 1.801 4.38-0.035 2.649-1.801 4.344-1.766 1.766-4.38 1.801-2.649-0.071-4.344-1.801-1.695-1.695-1.766-4.344-0.035-2.578 1.766-4.38t4.344-1.801zM28.291 8.618q0 0.53-0.353 0.883t-0.883 0.353h-3.673q-0.53 0-0.883-0.353t-0.353-0.883v-3.709q0-0.53 0.353-0.883 0.389-0.318 0.883-0.318h3.673q0.53 0 0.883 0.318 0.353 0.353 0.353 0.883v3.709zM28.291 32q1.589-0.071 2.614-1.095 1.024-0.989 1.095-2.578v-24.618q-0.071-1.625-1.095-2.649-1.060-0.989-2.614-1.060h-24.618q-1.589 0.071-2.578 1.060-1.024 1.024-1.095 2.649v24.618q0.071 1.589 1.095 2.578 0.989 1.024 2.578 1.095h24.618z"></path>
</svg>
