<!-- Generated by IcoMoon.io -->
<svg version="1.1" xmlns="http://www.w3.org/2000/svg" width="32" height="32" viewBox="0 0 32 32">
<title>iron</title>
<path d="M29.897 8.217c-0.046-0.315-0.317-0.548-0.636-0.546h-0.013l-8.227 0.173c-0.003-1.062-0.865-1.92-1.927-1.92h-2.986c-0.508-0-0.995 0.202-1.354 0.563s-0.558 0.849-0.554 1.357v0.443c-1.067 0.244-2.099 0.624-3.070 1.13-1.825 0.945-3.413 2.291-4.644 3.937l-6.281 8.433c-0.077 0.107-0.121 0.234-0.128 0.366l-0.077 3.282c-0.003 0.172 0.062 0.338 0.18 0.462 0.119 0.123 0.285 0.191 0.456 0.186h29.435c0.262 0.003 0.499-0.155 0.597-0.398l1.285-3.211c0.045-0.105 0.058-0.221 0.039-0.334zM15.485 7.845c-0.004-0.167 0.060-0.329 0.178-0.449s0.278-0.187 0.445-0.187h2.986c0.168-0 0.33 0.066 0.448 0.186s0.184 0.282 0.182 0.45v0.026l-2.704 0.058c-0.514 0.012-1.026 0.052-1.535 0.122zM7.508 14.119c2.253-3.019 5.771-4.832 9.538-4.913l11.67-0.244 1.895 12.633h-28.67zM29.64 24.807h-28.343l0.045-1.927h29.069z"></path>
<path d="M12.434 20.311h15.755c0.19 0 0.37-0.082 0.494-0.225 0.123-0.146 0.172-0.34 0.135-0.527l-1.471-7.894c-0.109-0.591-0.803-0.687-1.541-0.79-0.469-0.064-1.085-0.128-1.818-0.186-0.939-0.077-1.884-0.059-2.819 0.051-1.381 0.167-2.486 0.514-3.475 1.098-0.938 0.552-1.708 1.265-2.537 2.075-1.58 1.529-2.864 3.68-3.353 5.607-0.050 0.19-0.008 0.393 0.116 0.546 0.126 0.154 0.315 0.243 0.514 0.244zM16.056 14.832c1.593-1.541 2.704-2.505 5.273-2.819 0.851-0.099 1.709-0.114 2.563-0.045 1.349 0.109 1.978 0.199 2.261 0.263l1.265 6.795h-14.11c0.596-1.584 1.534-3.016 2.749-4.194z"></path>
<path d="M8.369 17.157c0.112 0.082 0.247 0.127 0.385 0.128 0.202-0.001 0.392-0.096 0.514-0.257l1.927-2.569c0.213-0.284 0.155-0.686-0.128-0.899s-0.686-0.155-0.899 0.128l-1.927 2.569c-0.212 0.284-0.154 0.686 0.128 0.899z"></path>
</svg>
