<!-- Generated by IcoMoon.io -->
<svg version="1.1" xmlns="http://www.w3.org/2000/svg" width="32" height="32" viewBox="0 0 32 32">
<title>jacuzzi</title>
<path d="M32 16.516v-4.129h-10.323v-0.516c0-1.847-1.394-3.372-3.185-3.585 0.689-0.659 1.12-1.583 1.12-2.609v-4.067c0-0.888-0.723-1.611-1.611-1.611-0.362 0-0.719 0.125-1.001 0.349-0.361-0.228-0.778-0.349-1.214-0.349h-1.121c-1.256 0-2.278 1.022-2.278 2.278v3.399c0 1.026 0.431 1.95 1.12 2.609-1.79 0.213-3.185 1.738-3.185 3.585v0.516h-10.323v4.129h1.032v11.355h-1.032v4.129h32v-4.129h-1.032v-11.355h1.032zM13.419 2.278c0-0.687 0.559-1.246 1.246-1.246h1.121c0.333 0 0.646 0.13 0.881 0.365l0.365 0.365 0.561-0.561c0.108-0.108 0.257-0.169 0.409-0.169 0.319 0 0.579 0.26 0.579 0.579v1.897c-0.513-0.191-0.999-0.593-1.184-0.776l-0.364-0.359-0.364 0.358c-0.013 0.013-1.236 1.192-3.249 1.373v-1.825zM13.419 5.677v-0.543c1.765-0.133 3.022-0.906 3.607-1.356 0.35 0.28 0.917 0.655 1.555 0.802v1.097c0 1.423-1.158 2.581-2.581 2.581s-2.581-1.158-2.581-2.581zM11.355 11.871c0-1.423 1.158-2.581 2.581-2.581h4.129c1.423 0 2.581 1.158 2.581 2.581v0.516h-1.548v-1.032h-1.032v1.032h-4.129v-1.032h-1.032v1.032h-1.548v-0.516zM30.968 30.968h-29.935v-2.065h29.935v2.065zM2.065 27.871v-11.355h2.581v11.355h-2.581zM5.677 27.871v-11.355h2.581v11.355h-2.581zM9.29 27.871v-11.355h2.581v11.355h-2.581zM12.903 27.871v-11.355h2.581v11.355h-2.581zM16.516 27.871v-11.355h2.581v11.355h-2.581zM20.129 27.871v-11.355h2.581v11.355h-2.581zM27.355 17.548v-1.032h2.581v11.355h-2.581v-9.29h-1.032v9.29h-2.581v-11.355h2.581v1.032h1.032zM1.032 15.484v-2.065h29.935v2.065h-29.935z"></path>
<path d="M28.903 8.258c0 1.394-0.458 2.342-0.462 2.35l0.923 0.462c0.023-0.047 0.571-1.161 0.571-2.812 0-0.873-0.281-1.577-0.553-2.256-0.247-0.616-0.479-1.198-0.479-1.873 0-1.304 0.874-2.208 0.883-2.217l-0.366-0.363-0.365-0.365c-0.049 0.049-1.183 1.204-1.183 2.946 0 0.873 0.281 1.577 0.553 2.256 0.247 0.616 0.479 1.198 0.479 1.873z"></path>
<path d="M2.581 8.258c0 1.394-0.458 2.342-0.462 2.35l0.923 0.462c0.023-0.047 0.571-1.161 0.571-2.812 0-0.873-0.281-1.577-0.553-2.256-0.247-0.616-0.479-1.198-0.479-1.873 0-1.304 0.874-2.208 0.883-2.217l-0.366-0.363-0.365-0.365c-0.049 0.049-1.183 1.204-1.183 2.946 0 0.873 0.281 1.577 0.553 2.256 0.247 0.616 0.479 1.198 0.479 1.873z"></path>
<path d="M6.71 8.258c0 1.394-0.458 2.342-0.462 2.35l0.923 0.462c0.023-0.047 0.571-1.161 0.571-2.812 0-0.873-0.281-1.577-0.553-2.256-0.247-0.616-0.479-1.198-0.479-1.873 0-1.304 0.874-2.208 0.883-2.217l-0.366-0.363-0.365-0.365c-0.049 0.049-1.183 1.204-1.183 2.946 0 0.873 0.281 1.577 0.553 2.256 0.247 0.616 0.479 1.198 0.479 1.873z"></path>
<path d="M24.774 8.258h1.032c0-0.873-0.281-1.577-0.553-2.256-0.247-0.616-0.479-1.198-0.479-1.873 0-1.304 0.874-2.208 0.883-2.217l-0.366-0.363-0.365-0.365c-0.049 0.049-1.183 1.204-1.183 2.946 0 0.873 0.281 1.577 0.553 2.256 0.247 0.616 0.479 1.198 0.479 1.873z"></path>
<path d="M24.312 10.609l0.924 0.46c0.013-0.027 0.332-0.676 0.487-1.701l-1.021-0.154c-0.128 0.854-0.388 1.391-0.39 1.396z"></path>
</svg>
