<!-- Generated by IcoMoon.io -->
<svg version="1.1" xmlns="http://www.w3.org/2000/svg" width="32" height="32" viewBox="0 0 32 32">
<title>jajiga</title>
<path d="M32 21.296q0 2.784-1.344 4.928-1.408 2.336-3.616 3.584-2.272 1.344-5.024 1.344-2.848 0-5.024-1.344-2.208-1.248-3.616-3.584-1.344-2.144-1.344-4.928 0-2.016 0.704-3.68 0.608-1.6 1.92-3.040l3.136-3.2-0.8-0.832q-0.064-0.128-0.288-0.288l-1.088-1.056h-0.096q-0.032 0.096-1.12 1.184l-6.176 6.112h-8.192l-0.032-0.096 2.432-2.464 13.216-13.088q0.032 0 0.096 0.032l6.432 6.368h8.352v0.032q0 0.032-0.064 0.096l-11.52 11.392q-0.896 1.088-0.896 2.528 0 1.6 1.184 2.784 1.12 1.152 2.816 1.152 1.6 0 2.784-1.152 1.12-1.216 1.12-2.784 0-1.408-0.768-2.432l-0.608-0.672-1.792-1.696q0-0.032 0.032-0.096l0.608-0.64q0.896-0.864 1.44-1.376 0.576-0.544 1.472-1.44l0.608-0.608q0-0.064 0.064-0.064l2.336 2.304q1.12 1.216 1.92 2.976 0.288 0.64 0.416 1.44 0.32 1.024 0.32 2.304z"></path>
</svg>
