<!-- Generated by IcoMoon.io -->
<svg version="1.1" xmlns="http://www.w3.org/2000/svg" width="32" height="32" viewBox="0 0 32 32">
<title>janitor</title>
<path d="M26.355 21.592q-0.071-1.658-1.164-2.823-1.164-1.094-2.822-1.164v3.211q-0.035 0.423-0.353 0.67-0.282 0.247-0.741 0.071l-3.987-1.588-0.141-0.106-0.353 0.106v10.408h4.798v-7.162q0-0.353 0.247-0.6 0.212-0.212 0.564-0.212t0.6 0.212q0.212 0.247 0.212 0.6v7.162h2.787q0.353 0 0.353-0.388v-8.397zM15.171 19.969l-0.353-0.106-0.141 0.106-3.987 1.588q-0.459 0.176-0.741-0.071-0.318-0.247-0.353-0.67v-3.211q-1.694 0.071-2.787 1.164-1.129 1.129-1.2 2.823v8.397q0 0.388 0.388 0.388h2.787v-6.386q0-0.318 0.247-0.564 0.212-0.212 0.565-0.212t0.6 0.212q0.212 0.247 0.212 0.564v6.386h4.763v-10.408zM16.37 18.417q0.423 0 0.423-0.388v-0.811q0-0.388-0.423-0.388h-0.776q-0.423 0-0.423 0.388v0.811q0 0.388 0.423 0.388h0.776zM18.381 16.512v2.117l2.399 0.953v-4.022zM11.184 15.594v4.022l2.399-0.953v-2.117zM9.596 8.785v0.212q0.071 2.576 1.905 4.34 1.835 1.835 4.481 1.87 2.611-0.035 4.516-1.835 1.799-1.764 1.87-4.375v-0.212h-12.772zM8.291 7.197h15.383l0.564-1.976q-3.493-3.599-8.256-3.599t-8.256 3.599zM22.368 15.982q2.329 0.035 3.951 1.623t1.658 3.987v8.397q-0.071 0.847-0.564 1.411-0.529 0.529-1.411 0.6h-20.004q-0.882-0.071-1.376-0.6-0.529-0.529-0.6-1.411v-8.397q0.035-2.329 1.658-3.951 1.552-1.623 3.916-1.658v-1.588q0-0.318 0.212-0.529-1.799-2.187-1.799-4.869v-0.212h-0.318q-0.635 0-0.776-0.565l-0.847-2.999q-0.106-0.353 0.176-0.741 4.057-4.481 9.773-4.481 5.68 0 9.738 4.481 0.282 0.388 0.176 0.741l-0.847 2.999q-0.141 0.565-0.776 0.565h-0.318v0.212q0 2.681-1.799 4.869 0.176 0.247 0.176 0.529v1.588z"></path>
</svg>
