<!-- Generated by IcoMoon.io -->
<svg version="1.1" xmlns="http://www.w3.org/2000/svg" width="29" height="32" viewBox="0 0 29 32">
<title>lamp-filled</title>
<path d="M10.795 25.96q-0.184 0-0.277 0.092-0.138 0.138-0.138 0.369v1.107q0 0.184 0.138 0.323 0.092 0.138 0.277 0.138h7.239q0.415-0.046 0.461-0.461v-1.107q-0.046-0.415-0.461-0.461h-7.239zM5.907 3.597q-3.458 3.366-3.458 8.115 0.138 2.767 1.66 4.934 1.337 1.983 3.781 3.689 0.599 0.415 0.968 1.061 0.369 0.738 0.369 1.383 0 0.507 0.369 0.876 0.323 0.323 0.784 0.323h8.254q0.507 0 0.83-0.323t0.323-0.83q0-0.692 0.415-1.429 0.323-0.646 0.922-1.107 2.444-1.66 3.827-3.827 1.383-2.121 1.476-5.21-0.138-5.026-3.643-8.115-3.458-3.043-8.761-3.135-4.749 0.231-8.115 3.597zM10.795 29.971q-0.184 0-0.277 0.138-0.138 0.138-0.138 0.323v1.107q0 0.184 0.138 0.323 0.092 0.138 0.277 0.138h7.239q0.415-0.046 0.461-0.461v-1.107q-0.046-0.415-0.461-0.461h-7.239z"></path>
</svg>
