<!-- Generated by IcoMoon.io -->
<svg version="1.1" xmlns="http://www.w3.org/2000/svg" width="32" height="32" viewBox="0 0 32 32">
<title>lamp</title>
<path d="M20.007 29.176q0-0.388-0.388-0.388h-7.202q-0.388 0-0.388 0.388v0.812q0 0.388 0.388 0.388h7.202q0.388 0 0.388-0.388v-0.812zM20.007 25.999q0-0.388-0.388-0.388h-7.202q-0.388 0-0.388 0.388v0.812q0 0.388 0.388 0.388h7.202q0.388 0 0.388-0.388v-0.812zM25.302 16.926q1.165-2.224 1.165-4.942-0.177-4.695-3.354-7.625-3.248-2.93-7.943-2.718-4.201 0.424-6.919 3.46-2.718 3.071-2.683 7.307 0.106 2.542 1.271 4.66 1.165 2.189 3.212 3.601 0.494 0.353 0.883 0.953 0.318 0.635 0.318 1.271 0 0.459 0.318 0.777 0.282 0.318 0.741 0.318h7.484q0.459 0 0.777-0.318 0.282-0.282 0.282-0.741-0.035-1.412 1.165-2.295 2.118-1.447 3.283-3.707zM24.208 3.194q3.671 3.424 3.848 8.79 0 3.107-1.341 5.719-1.306 2.577-3.813 4.271-0.459 0.353-0.459 0.918 0 1.341-1.059 2.153 0.247 0.353 0.247 0.953v0.812q0 0.671-0.388 1.165 0.388 0.6 0.388 1.2v0.812q-0.071 0.847-0.565 1.412-0.53 0.53-1.447 0.6h-7.166q-0.918-0.071-1.412-0.6-0.53-0.53-0.6-1.412v-0.812q0-0.671 0.424-1.2-0.424-0.494-0.424-1.165v-0.812q0-0.494 0.247-0.953-1.059-0.812-1.059-2.118 0-0.635-0.459-0.953-2.506-1.694-3.777-4.095-1.341-2.542-1.447-5.436 0-4.942 3.107-8.402 3.142-3.495 7.978-4.024 5.436-0.247 9.178 3.177z"></path>
</svg>
