<!-- Generated by IcoMoon.io -->
<svg version="1.1" xmlns="http://www.w3.org/2000/svg" width="32" height="32" viewBox="0 0 32 32">
<title>light-bulb</title>
<path d="M16 5.769c-4.637 0-7.988 3.456-8.519 7.169-0.331 2.475 0.469 4.887 2.131 6.712 1.463 1.563 2.263 3.65 2.263 5.8l-0.006 3.387c0 1.369 1.131 2.475 2.531 2.475h3.263c1.4 0 2.531-1.106 2.531-2.475l0.006-3.387c0-2.212 0.731-4.238 2.131-5.669 1.531-1.563 2.331-3.581 2.331-5.669-0.006-4.631-3.938-8.344-8.662-8.344zM18.925 28.837c0 0.65-0.531 1.175-1.2 1.175h-3.262c-0.669 0-1.2-0.519-1.2-1.175v-1.5h5.656v1.5zM21.4 18.869c-1.663 1.694-2.531 4.038-2.531 6.581v0.587h-5.656v-0.587c0-2.413-1-4.819-2.662-6.644-1.463-1.563-2.063-3.581-1.8-5.669 0.469-3.125 3.375-6.063 7.256-6.063 4.063 0 7.325 3.194 7.325 7.037 0 1.756-0.669 3.45-1.931 4.756z"></path>
<path d="M15.331 0.688h1.331v3.125h-1.331v-3.125z"></path>
<path d="M24.069 6.713l0.931 0.931 2.281-2.194-0.938-0.931z"></path>
<path d="M28.050 14.762h3.262v1.306h-3.262v-1.306z"></path>
<path d="M0.688 14.762h3.263v1.306h-3.263v-1.306z"></path>
<path d="M5.631 4.513l-0.938 0.931 2.281 2.194 0.931-0.931z"></path>
</svg>
