<!-- Generated by IcoMoon.io -->
<svg version="1.1" xmlns="http://www.w3.org/2000/svg" width="32" height="32" viewBox="0 0 32 32">
<title>like-filled</title>
<path d="M2.128 12.8q0-0.736 0.416-1.152 0.384-0.448 0.96-0.448h4.16q0.576 0 1.024 0.448 0.384 0.416 0.384 1.152v17.6q0 0.672-0.384 1.12-0.448 0.448-1.024 0.48h-4.16q-0.576-0.064-0.96-0.48-0.416-0.416-0.416-1.12v-17.6zM21.584 11.2q-0.16 0-0.32-0.16t-0.16-0.384v-6.272q-0.064-1.984-0.928-3.136-0.896-1.216-2.304-1.248h-1.216q-0.832 0.064-1.344 0.608-0.576 0.608-0.608 1.504 0.064 2.464-0.352 5.28-0.448 3.104-2.176 4.192-0.576 0.288-1.12 0.736l-0.608 0.48 0.064 8.832q0.032 7.616-0.064 8.768 1.152 0.736 2.912 1.152 1.856 0.448 4.352 0.448h8.512q1.536-0.064 2.592-1.184 0.992-1.088 1.056-2.816v-12.8q-0.064-1.696-1.056-2.848-1.056-1.12-2.592-1.152h-4.64z"></path>
</svg>
