<!-- Generated by IcoMoon.io -->
<svg version="1.1" xmlns="http://www.w3.org/2000/svg" width="32" height="32" viewBox="0 0 32 32">
<title>like</title>
<path d="M7.974 13.76q0-0.176-0.176-0.176h-5.222q-0.176 0-0.176 0.176v15.665q0 0.176 0.176 0.176h5.222q0.176 0 0.176-0.176v-15.665zM29.601 15.171q-0.071-1.058-0.706-1.694t-1.694-0.706h-5.081q-0.882-0.071-1.482-0.635t-0.67-1.482v-6.28q-0.071-1.305-0.6-2.011-0.564-0.741-1.341-0.741h-1.305q-0.529 0-0.529 0.529-0.035 0.811-0.035 1.87l-0.141 2.011q-0.176 1.517-0.388 2.223-0.318 1.058-0.635 1.94-0.388 1.023-1.023 1.729-0.776 0.776-1.552 1.094-0.847 0.388-2.822 1.658l0.035 13.407q3.775 2.293 8.256 2.293h9.314q1.058-0.071 1.694-0.706t0.706-1.694v-12.807zM27.202 11.184q1.658 0.071 2.823 1.164 1.094 1.094 1.164 2.822v12.807q-0.071 1.729-1.164 2.822-1.094 1.129-2.822 1.2h-9.349q-4.445 0-8.326-2.117-0.353 1.305-1.729 1.305h-5.186q-0.776-0.071-1.27-0.529-0.459-0.494-0.529-1.27v-15.594q0.071-0.811 0.529-1.27 0.494-0.494 1.27-0.529h5.186q0.988 0 1.588 0.917 1.517-0.988 2.399-1.341 1.94-0.917 2.399-4.269 0.282-1.588 0.318-2.681 0.071-1.411 0.071-2.505 0.071-0.917 0.67-1.482 0.6-0.6 1.482-0.635h1.305q1.552 0.071 2.54 1.235 0.917 1.2 0.988 3.14v6.28q0 0.176 0.176 0.353t0.388 0.176h5.081z"></path>
</svg>
