<!-- Generated by IcoMoon.io -->
<svg version="1.1" xmlns="http://www.w3.org/2000/svg" width="32" height="32" viewBox="0 0 32 32">
<title>linkedin</title>
<path d="M0.177 10.932q0-0.283 0.283-0.565 0.247-0.247 0.565-0.247h5.687q0.353 0 0.6 0.247t0.247 0.565v20.132q0 0.318-0.247 0.565-0.283 0.283-0.6 0.283h-5.687q-0.283 0-0.565-0.283t-0.283-0.565v-20.132zM10.596 10.932q0-0.283 0.283-0.565 0.247-0.247 0.565-0.247h5.51q0.424 0 0.636 0.247t0.212 1.236q2.155-1.978 5.687-1.978 4.062 0 6.287 2.013 2.155 2.013 2.225 5.898v13.528q0 0.318-0.247 0.565-0.283 0.283-0.6 0.283h-5.898q-0.318 0-0.53-0.283-0.247-0.247-0.247-0.565v-12.256q0.035-1.625-0.6-2.402-0.671-0.742-2.225-0.742-1.978 0-2.826 1.13-0.883 1.095-0.848 3.391v10.879q0 0.318-0.247 0.565-0.283 0.283-0.6 0.283h-5.687q-0.283 0-0.565-0.283t-0.283-0.565v-20.132zM1.13 1.219q1.095-1.095 2.72-1.13 1.625 0.035 2.72 1.095 1.060 1.060 1.13 2.79-0.035 1.589-1.166 2.72-1.060 1.060-2.684 1.13-1.625-0.071-2.72-1.13-1.060-1.095-1.13-2.72 0.071-1.695 1.13-2.755z"></path>
</svg>
