<!-- Generated by IcoMoon.io -->
<svg version="1.1" xmlns="http://www.w3.org/2000/svg" width="32" height="32" viewBox="0 0 32 32">
<title>link</title>
<path d="M22.624 0.38h1.253q1.974 0 5.884 4.479 2.24 1.86 2.24 3.644v0.607q0 2.581-3.872 5.504-2.619 3.378-5.504 3.378-2.999-0.569-2.999-1.367v-0.114q1.974-2.391 2.999-2.391 1.518 0 4.251-3.265 1.139-0.721 1.139-1.86 0-1.367-2.999-3.872-0.759-0.873-1.898-0.873-1.291 0-5.011 4.365l-0.114 0.759v0.759q-0.114 0.266-2.505 2.354h-0.114q-1.367-1.253-1.367-3.227 0-2.278 3.378-5.011 3.378-3.872 5.238-3.872zM19.625 10.629h0.38q1.025 0 1.367 1.367v0.493q0 0.721-3.986 4.365-4.024 4.403-4.897 4.403h-0.493q-1.139 0-1.367-1.632 0-0.873 4.631-5.125 3.492-3.872 4.365-3.872zM9.11 13.855q3.265 0.645 3.265 1.405v0.114q0 0.152-2.505 2.505h-0.759q-1.367 0-4.593 3.758-0.266 0-0.38 0.873v0.721q0 1.025 3.72 4.138 0.456 0.266 1.025 0.266h0.114q1.442 0 4.897-4.138l0.114-0.645v-0.873q1.215-1.367 2.619-2.467 1.367 1.025 1.367 2.999v0.342q0 2.505-3.986 5.77-2.771 2.999-4.517 2.999h-0.873q-2.391 0-5.352-3.606-3.265-2.733-3.265-4.631v-1.025q0-2.012 4.251-5.618 2.429-2.885 4.859-2.885z"></path>
</svg>
