<!-- Generated by IcoMoon.io -->
<svg version="1.1" xmlns="http://www.w3.org/2000/svg" width="32" height="32" viewBox="0 0 32 32">
<title>location-map</title>
<path d="M29.988 30.377q0.247 0 0.353-0.212 0.106-0.176 0-0.388l-0.071-0.071-3.316-7.162q-0.106-0.176-0.317-0.176h-6.703q-1.517 1.94-3.352 3.775-0.564 0.564-1.094 0-1.905-1.94-3.352-3.775h-6.774q-0.212 0-0.317 0.176l-3.316 7.162-0.071 0.071q-0.106 0.212 0 0.388 0.106 0.212 0.353 0.212h27.976zM16.018 11.926q0.988 0 1.658-0.67t0.67-1.693q0-0.988-0.67-1.658t-1.693-0.67-1.693 0.67-0.67 1.658q-0.035 0.988 0.67 1.693 0.741 0.706 1.729 0.67zM19.969 9.562q-0.071 1.729-1.164 2.822-1.094 1.129-2.822 1.2-1.729-0.071-2.822-1.2-1.094-1.094-1.164-2.822 0.071-1.729 1.164-2.822t2.822-1.164q1.658 0 2.822 1.164t1.164 2.822zM9.632 15.278q1.446 3.14 3.105 5.327 1.588 2.081 3.281 3.845 1.517-1.517 3.281-3.845 1.517-2.011 3.14-5.362 1.517-3.069 1.517-5.715-0.035-3.422-2.293-5.715-2.258-2.223-5.609-2.223h-0.176q-3.21 0.035-5.468 2.258-2.223 2.152-2.328 5.68 0.106 2.646 1.552 5.75zM31.717 29.001q0.529 1.023 0 1.976-0.529 0.988-1.729 1.023h-27.976q-1.2-0.035-1.729-1.023-0.529-0.953 0-1.976l3.352-7.162q0-0.035 0.035-0.071 0.564-0.988 1.693-0.988h5.574q-4.445-6.35-4.445-11.254 0.106-4.163 2.822-6.879 2.716-2.646 6.738-2.646 3.916-0.071 6.633 2.646 2.893 2.787 2.893 6.879 0 4.974-4.48 11.254h5.504q1.129 0 1.693 0.988 0.106 0.035 0.071 0.071z"></path>
</svg>
