<!-- Generated by IcoMoon.io -->
<svg version="1.1" xmlns="http://www.w3.org/2000/svg" width="32" height="32" viewBox="0 0 32 32">
<title>lock-open</title>
<path d="M14.054 25.765l0.999-2.721q0.276-0.586-0.31-0.93-1.033-0.689-1.033-1.895 0.069-0.999 0.689-1.584 0.62-0.62 1.585-0.62t1.619 0.62q0.62 0.586 0.654 1.584 0 1.206-1.033 1.895-0.551 0.344-0.31 0.93l0.999 2.721h-3.858zM19.014 27.315q0.448 0 0.654-0.31t0.103-0.723l-1.206-3.238q1.24-1.137 1.24-2.825-0.069-1.688-1.102-2.721t-2.721-1.102q-1.653 0.069-2.687 1.102-1.068 1.068-1.137 2.721 0 1.688 1.24 2.825l-1.206 3.238q-0.103 0.413 0.103 0.723t0.654 0.31h6.062zM23.010 13.262v-3.376q-0.034-2.79-2.067-4.753-2.067-1.963-4.96-1.998-2.583 0.069-4.444 1.516-1.86 1.481-2.446 3.927h-1.55q0.586-3.066 2.893-5.029 2.377-1.963 5.546-1.998 3.617 0.103 6.062 2.446 2.411 2.342 2.515 5.959v3.307h1.963q0.379 0 0.379 0.379v16.396q0 0.413-0.379 0.413h-21.081q-0.379 0-0.379-0.413v-16.396q0-0.379 0.379-0.379h17.567zM26.558 32q0.861-0.069 1.378-0.586t0.551-1.378v-16.396q-0.069-0.827-0.551-1.378-0.551-0.482-1.378-0.551h-0.413v-1.757q-0.103-4.202-2.997-7.027-2.859-2.825-7.165-2.928-4.030 0.103-6.889 2.687-2.893 2.687-3.238 6.614 0 0.344 0.241 0.586 0.207 0.241 0.551 0.241h3.135q0.31 0 0.517-0.207 0.172-0.172 0.241-0.482 0.241-1.998 1.791-3.376 1.481-1.309 3.651-1.378 2.239 0.034 3.858 1.516 1.584 1.516 1.619 3.686v1.826h-16.017q-0.861 0.069-1.343 0.551-0.517 0.517-0.586 1.378v16.396q0.069 0.896 0.586 1.378 0.482 0.517 1.343 0.586h21.115z"></path>
</svg>
