<!-- Generated by IcoMoon.io -->
<svg version="1.1" xmlns="http://www.w3.org/2000/svg" width="32" height="32" viewBox="0 0 32 32">
<title>lock</title>
<path d="M17.912 25.819l-0.99-2.698q-0.137-0.615 0.307-0.922 1.025-0.683 1.025-1.878-0.034-0.956-0.649-1.605-0.615-0.615-1.571-0.615t-1.571 0.615-0.683 1.605q0 1.195 1.025 1.878 0.581 0.341 0.307 0.922l-0.99 2.698h3.791zM16.068 16.529q1.639 0.068 2.664 1.093t1.093 2.698q0 1.605-1.229 2.8l1.161 3.176q0.171 0.444-0.068 0.717-0.239 0.307-0.649 0.341h-6.045q-0.41 0-0.615-0.341-0.205-0.307-0.102-0.717l1.195-3.176q-1.229-1.127-1.229-2.8 0-1.571 1.127-2.698 1.093-1.093 2.698-1.093zM21.396 11.851v-2.015q-0.034-2.152-1.605-3.654-1.537-1.503-3.791-1.537-2.254 0.034-3.791 1.537-1.571 1.503-1.605 3.654v2.015h10.792zM16 3.108q2.869 0.034 4.918 1.981 1.981 1.878 2.049 4.747v3.586h-13.934v-3.586q0-2.766 2.083-4.747 2.015-1.981 4.884-1.981zM26.86 13.797q0-0.376-0.376-0.376h-1.947v-3.518q-0.102-3.586-2.493-5.908-2.425-2.322-6.045-2.425-3.586 0.102-6.011 2.425-2.391 2.322-2.493 5.908v3.518h-1.912q-0.41 0-0.41 0.376v16.256q0 0.376 0.41 0.376h20.901q0.376 0 0.376-0.376v-16.256zM26.041 11.851h0.41q0.854 0 1.4 0.444 0.512 0.444 0.512 1.229v16.29q-0.034 0.854-0.546 1.503-0.546 0.615-1.366 0.683h-20.867q-0.82-0.068-1.366-0.683-0.512-0.615-0.581-1.503v-16.29q0-0.786 0.546-1.229t1.4-0.444h0.376v-1.947q0.102-4.167 2.937-7.001 2.8-2.8 7.104-2.903 4.303 0.102 7.104 2.903 2.835 2.835 2.937 7.001v1.947z"></path>
</svg>
