<!-- Generated by IcoMoon.io -->
<svg version="1.1" xmlns="http://www.w3.org/2000/svg" width="32" height="32" viewBox="0 0 32 32">
<title>mapmarker</title>
<path d="M16.034 14.435q1.245 0 2.12-0.875 0.841-0.841 0.841-2.154t-0.841-2.154-2.154-0.841q-1.279 0-2.12 0.841-0.875 0.875-0.875 2.12-0.067 1.312 0.875 2.187 0.875 0.942 2.154 0.875zM16 6.831q1.985 0.034 3.23 1.312 1.279 1.312 1.312 3.264-0.034 1.952-1.312 3.23-1.279 1.346-3.23 1.38-1.985-0.067-3.23-1.346-1.279-1.312-1.312-3.264 0-1.884 1.346-3.23 1.312-1.346 3.197-1.346zM18.894 26.784q1.581-1.985 3.23-4.644 1.581-2.49 2.692-5.518 1.009-2.793 1.077-5.384-0.101-4.172-2.793-6.932-2.759-2.692-6.898-2.793h-0.404q-4.172 0.101-6.864 2.793-2.726 2.726-2.826 6.932 0.067 2.591 1.077 5.384 1.077 2.927 2.726 5.518 1.783 2.86 3.197 4.644 1.75 2.254 2.894 3.399 1.144-1.144 2.894-3.399zM16.202-0q4.812 0.135 7.941 3.298t3.264 7.941q-0.067 3.062-1.346 6.393-1.346 3.399-3.331 6.393-1.952 2.86-3.533 4.845-1.514 1.918-2.692 2.927-0.202 0.202-0.505 0.202t-0.505-0.202q-1.077-0.942-2.692-2.961-1.716-2.187-3.533-4.812-2.019-2.995-3.298-6.36-1.312-3.331-1.38-6.427 0.168-4.812 3.298-7.941 3.096-3.129 7.907-3.298h0.404z"></path>
</svg>
