<!-- Generated by IcoMoon.io -->
<svg version="1.1" xmlns="http://www.w3.org/2000/svg" width="32" height="32" viewBox="0 0 32 32">
<title>menu</title>
<path d="M30.985 27.012q0.441 0 0.75 0.265 0.265 0.309 0.265 0.706 0 0.441-0.265 0.706-0.309 0.309-0.75 0.309h-29.97q-0.441 0-0.706-0.309-0.309-0.265-0.309-0.706 0-0.397 0.309-0.706 0.265-0.265 0.706-0.265h29.97zM30.985 19.023q0.441 0 0.75 0.265 0.265 0.309 0.265 0.706 0 0.441-0.265 0.706-0.309 0.309-0.75 0.309h-29.97q-0.441 0-0.706-0.309-0.309-0.265-0.309-0.706 0-0.397 0.309-0.706 0.265-0.265 0.706-0.265h29.97zM30.985 10.99q0.441 0 0.75 0.265 0.265 0.309 0.265 0.706 0 0.441-0.265 0.706-0.309 0.309-0.75 0.309h-29.97q-0.441 0-0.706-0.309-0.309-0.265-0.309-0.706 0-0.397 0.309-0.706 0.265-0.265 0.706-0.265h29.97zM1.015 4.988q-0.441 0-0.706-0.309-0.309-0.265-0.309-0.706 0-0.397 0.309-0.706 0.265-0.265 0.706-0.265h29.97q0.441 0 0.75 0.265 0.265 0.309 0.265 0.706 0 0.441-0.265 0.706-0.309 0.309-0.75 0.309h-29.97z"></path>
</svg>
