<!-- Generated by IcoMoon.io -->
<svg version="1.1" xmlns="http://www.w3.org/2000/svg" width="32" height="32" viewBox="0 0 32 32">
<title>message-recive</title>
<path d="M29.593 29.817l-8.826-8.794-4.205 4.205q-0.225 0.225-0.514 0.225-0.321 0-0.514-0.225l-4.205-4.205-8.794 8.794h27.057zM30.556 11.234l-8.762 8.762 8.762 8.73v-17.492zM10.303 19.996l-8.859-8.859v17.685zM30.171 7.992q0.77 0.064 1.284 0.514 0.514 0.481 0.546 1.316v19.643q-0.064 0.802-0.546 1.252-0.481 0.481-1.284 0.546h-28.341q-0.802-0.064-1.284-0.546-0.481-0.449-0.546-1.252v-19.643q0.064-0.835 0.546-1.316 0.514-0.449 1.284-0.514h11.234q0.321 0 0.546 0.193 0.193 0.225 0.193 0.514 0 0.321-0.193 0.514-0.225 0.225-0.546 0.225h-11.234l14.219 14.251 14.219-14.219q-0.032-0.032-0.096-0.032h-11.266q-0.321 0-0.514-0.225-0.225-0.193-0.225-0.514 0-0.289 0.225-0.514 0.193-0.193 0.514-0.193h11.266zM15.246 14.989v-13.545q0-0.289 0.225-0.514 0.193-0.193 0.514-0.193t0.546 0.193q0.193 0.225 0.193 0.514v13.48l2.921-3.049q0.578-0.481 1.027-0.032t0 1.027l-4.173 4.365q-0.128 0.193-0.514 0.225-0.225 0-0.257-0.032l-0.257-0.16-4.526-4.397q-0.417-0.642 0-1.059t0.995 0z"></path>
</svg>
