<!-- Generated by IcoMoon.io -->
<svg version="1.1" xmlns="http://www.w3.org/2000/svg" width="32" height="32" viewBox="0 0 32 32">
<title>message-send</title>
<path d="M29.593 29.817l-8.826-8.794-4.205 4.205q-0.225 0.225-0.514 0.225-0.321 0-0.514-0.225l-4.205-4.205-8.794 8.794h27.057zM30.556 11.234l-8.762 8.762 8.762 8.73v-17.492zM10.303 19.996l-8.859-8.859v17.685zM30.171 7.992q0.77 0.064 1.284 0.514 0.514 0.481 0.546 1.316v19.643q-0.064 0.802-0.546 1.252-0.481 0.481-1.284 0.546h-28.341q-0.802-0.064-1.284-0.546-0.481-0.449-0.546-1.252v-19.643q0.064-0.835 0.546-1.316 0.514-0.449 1.284-0.514h11.234q0.321 0 0.546 0.193 0.193 0.225 0.193 0.514 0 0.321-0.193 0.514-0.225 0.225-0.546 0.225h-11.234l14.219 14.251 14.219-14.219q-0.032-0.032-0.096-0.032h-11.266q-0.321 0-0.514-0.225-0.225-0.193-0.225-0.514 0-0.289 0.225-0.514 0.193-0.193 0.514-0.193h11.266zM10.913 6.323q-0.481-0.514 0.032-1.027l4.622-4.429q0.064-0.064 0.16-0.096l0.257-0.032q0.16 0 0.225 0.032 0.032 0 0.064 0.032l0.064 0.032q0.064 0 0.16 0.128l4.173 4.365q0.514 0.514 0 1.027-0.225 0.193-0.514 0.193-0.321 0-0.514-0.225l-2.921-3.049v13.48q0 0.289-0.193 0.481-0.225 0.225-0.546 0.225t-0.514-0.225q-0.225-0.193-0.225-0.481v-13.577l-3.306 3.178q-0.193 0.193-0.514 0.193-0.289 0-0.514-0.225z"></path>
</svg>
