<!-- Generated by IcoMoon.io -->
<svg version="1.1" xmlns="http://www.w3.org/2000/svg" width="32" height="32" viewBox="0 0 32 32">
<title>message</title>
<path d="M29.529 26.191l-8.826-8.794-4.205 4.205q-0.193 0.225-0.514 0.225t-0.514-0.225l-4.205-4.205-8.794 8.794h27.057zM30.556 7.575l-8.826 8.794 8.826 8.794v-17.589zM10.239 16.369l-8.794-8.794v17.589zM1.765 5.809l14.219 14.251 14.251-14.251h-28.469zM30.171 4.365q0.77 0.064 1.284 0.514 0.481 0.481 0.546 1.284v19.675q-0.064 0.802-0.546 1.252-0.481 0.481-1.284 0.546h-28.341q-0.802-0.064-1.284-0.546-0.481-0.449-0.546-1.252v-19.675q0.064-0.802 0.546-1.284 0.514-0.449 1.284-0.514h28.341z"></path>
</svg>
