<!-- Generated by IcoMoon.io -->
<svg version="1.1" xmlns="http://www.w3.org/2000/svg" width="32" height="32" viewBox="0 0 32 32">
<title>microwave</title>
<path d="M2.343 19.335c0 1.443 1.174 2.617 2.617 2.617h12.018c1.443 0 2.617-1.174 2.617-2.617v-8.106c0-1.443-1.174-2.617-2.617-2.617h-12.018c-1.443 0-2.617 1.174-2.617 2.617v8.106zM3.187 11.23c0-0.978 0.795-1.773 1.773-1.773h12.018c0.978 0 1.773 0.795 1.773 1.773v8.106c0 0.978-0.795 1.773-1.773 1.773h-12.018c-0.978 0-1.773-0.795-1.773-1.773v-8.106z"></path>
<path d="M29.46 13.235h-5.319c-0.233 0-0.422 0.189-0.422 0.422s0.189 0.422 0.422 0.422h5.319c0.233 0 0.422-0.189 0.422-0.422s-0.189-0.422-0.422-0.422z"></path>
<path d="M29.53 8.612h-5.46c-0.233 0-0.422 0.189-0.422 0.422v2.533c0 0.233 0.189 0.422 0.422 0.422h5.46c0.233 0 0.422-0.189 0.422-0.422v-2.533c0-0.233-0.189-0.422-0.422-0.422zM29.108 11.145h-4.616v-1.689h4.616v1.689z"></path>
<path d="M29.503 5.615h-27.006c-1.377 0-2.497 1.12-2.497 2.497v14.341c0 1.377 1.12 2.497 2.497 2.497h1.176v1.013c0 0.233 0.189 0.422 0.422 0.422s0.422-0.189 0.422-0.422v-1.013h22.966v1.013c0 0.233 0.189 0.422 0.422 0.422s0.422-0.189 0.422-0.422v-1.013h1.176c1.377 0 2.497-1.12 2.497-2.497v-14.341c0-1.377-1.12-2.497-2.497-2.497zM21.425 24.106h-18.928c-0.911 0-1.653-0.741-1.653-1.653v-14.341c0-0.911 0.742-1.653 1.653-1.653h18.928v17.646zM31.156 22.453c0 0.911-0.741 1.653-1.653 1.653h-7.234v-17.646h7.234c0.911 0 1.653 0.742 1.653 1.653v14.341z"></path>
<path d="M29.46 14.839h-5.319c-0.233 0-0.422 0.189-0.422 0.422s0.189 0.422 0.422 0.422h5.319c0.233 0 0.422-0.189 0.422-0.422s-0.189-0.422-0.422-0.422z"></path>
<path d="M26.8 17.372c-1.117 0-2.026 0.909-2.026 2.026s0.909 2.026 2.026 2.026c1.117 0 2.026-0.909 2.026-2.026s-0.909-2.026-2.026-2.026zM26.8 20.58c-0.652 0-1.182-0.53-1.182-1.182s0.53-1.182 1.182-1.182c0.652 0 1.182 0.53 1.182 1.182s-0.53 1.182-1.182 1.182z"></path>
</svg>
