<!-- Generated by IcoMoon.io -->
<svg version="1.1" xmlns="http://www.w3.org/2000/svg" width="32" height="32" viewBox="0 0 32 32">
<title>moon</title>
<path d="M24.099 28.544q3.226-1.668 5.228-4.82-2.447 0.779-5.042 0.779-7.118-0.148-11.864-4.968-4.783-4.783-4.931-11.864 0-2.595 0.779-5.042-3.114 2.039-4.857 5.265-1.668 3.226-1.743 7.341 0.185 6.414 4.449 10.64t10.64 4.412q4.115-0.074 7.341-1.743zM19.65 6.002l2.781 2.224q0.482 0.371 0.297 0.927l-0.927 2.929 2.373-1.817q0.297-0.185 0.519-0.185t0.519 0.185l2.41 1.817-0.964-3.040q-0.185-0.556 0.297-0.927l2.744-2.113h-3.3q-0.63 0-0.779-0.593l-0.927-2.818-0.927 2.818q-0.148 0.593-0.779 0.593h-3.337zM20.947 9.191l-2.892-2.336q-0.704-0.667-0.445-1.557 0.297-0.89 1.261-0.964h3.485l1.112-3.411q0.222-0.89 1.149-0.89 1.001 0 1.298 0.964l1.112 3.337h3.485q0.964 0.074 1.261 0.964 0.26 0.89-0.482 1.594l-2.855 2.187 1.112 3.559q0.185 0.742-0.185 1.186-0.408 0.519-1.075 0.556-0.519 0-0.779-0.26l-2.818-2.15-2.818 2.15q-0.371 0.26-0.779 0.26-0.667-0.037-1.075-0.556-0.371-0.445-0.185-1.149zM31.922 22.463q-2.039 4.486-6.006 7.007-3.893 2.447-9.158 2.521-4.634-0.074-8.379-2.262-3.782-2.113-6.080-6.080-2.299-3.93-2.299-8.416 0.074-5.339 2.521-9.232 2.521-4.004 7.007-5.932 0.63-0.185 0.964 0.185t0.148 0.927q-1.483 3.114-1.483 6.488 0.185 6.451 4.449 10.715 4.301 4.264 10.678 4.449 3.411 0 6.525-1.483 0.519-0.222 0.927 0.148 0.408 0.408 0.185 0.964z"></path>
</svg>
