<!-- Generated by IcoMoon.io -->
<svg version="1.1" xmlns="http://www.w3.org/2000/svg" width="32" height="32" viewBox="0 0 32 32">
<title>new-window</title>
<path d="M28.216 11.794q0.241 0.282 0.241 0.644v16.020q-0.081 1.57-1.047 2.496-0.966 0.966-2.576 1.047h-20.448q-1.57-0.081-2.536-1.047-1.006-0.966-1.087-2.496v-22.179q0.081-1.53 1.087-2.536 1.006-0.926 2.536-1.006h14.692q0.362 0 0.644 0.241 0.241 0.282 0.241 0.644 0 0.403-0.241 0.644-0.282 0.282-0.644 0.282h-14.692q-0.765 0-1.248 0.483-0.523 0.523-0.523 1.248v22.179q0 0.725 0.523 1.208 0.483 0.523 1.248 0.523h20.448q0.765 0 1.288-0.523 0.483-0.483 0.483-1.208v-16.020q0-0.362 0.282-0.644 0.322-0.242 0.644-0.242 0.403 0 0.684 0.242zM31.195 8.493q0 0.362-0.241 0.604-0.282 0.282-0.644 0.282-0.403 0-0.644-0.282-0.282-0.242-0.282-0.604v-5.313l-11.673 12.196q-0.725 0.564-1.288 0-0.604-0.523-0.040-1.288l11.753-12.277-5.756 0.040q-0.362 0-0.644-0.282t-0.282-0.644 0.282-0.644q0.241-0.282 0.644-0.282h7.889q0.241 0 0.322 0.081l0.322 0.201 0.201 0.282 0.121 0.322z"></path>
</svg>
