<!-- Generated by IcoMoon.io -->
<svg version="1.1" xmlns="http://www.w3.org/2000/svg" width="32" height="32" viewBox="0 0 32 32">
<title>oven</title>
<path d="M6.283 11.521h19.401c0.409 0 0.706-0.335 0.706-0.706s-0.334-0.706-0.706-0.706h-19.401c-0.409 0-0.706 0.335-0.706 0.706s0.335 0.706 0.706 0.706z"></path>
<path d="M29.809 0h-27.614c-0.335 0-0.558 0.26-0.558 0.557v30.885c-0.037 0.297 0.223 0.557 0.558 0.557h27.614c0.334 0 0.558-0.26 0.558-0.558v-30.885c0-0.335-0.26-0.557-0.558-0.557zM29.214 30.885h-26.462v-23.526h26.462v23.526zM29.214 6.207h-26.462v-5.092h26.462v5.092z"></path>
<path d="M24.234 14.123h-16.39c-0.335 0-0.558 0.26-0.558 0.557v10.964c0 0.334 0.26 0.558 0.558 0.558h16.39c0.334 0 0.558-0.26 0.558-0.558v-10.964c0.037-0.297-0.223-0.557-0.558-0.557zM23.677 25.087h-15.275v-0.78h15.275v0.78zM23.677 23.192h-15.275v-7.916h15.275v7.916z"></path>
<path d="M12.341 4.237c0 0.472-0.383 0.855-0.855 0.855s-0.855-0.383-0.855-0.855c0-0.472 0.383-0.855 0.855-0.855s0.855 0.383 0.855 0.855z"></path>
<path d="M15.24 4.237c0 0.472-0.383 0.855-0.855 0.855s-0.855-0.383-0.855-0.855c0-0.472 0.383-0.855 0.855-0.855s0.855 0.383 0.855 0.855z"></path>
<path d="M18.139 4.237c0 0.472-0.383 0.855-0.855 0.855s-0.855-0.383-0.855-0.855c0-0.472 0.383-0.855 0.855-0.855s0.855 0.383 0.855 0.855z"></path>
<path d="M21.038 4.237c0 0.472-0.383 0.855-0.855 0.855s-0.855-0.383-0.855-0.855c0-0.472 0.383-0.855 0.855-0.855s0.855 0.383 0.855 0.855z"></path>
</svg>
