<!-- Generated by IcoMoon.io -->
<svg version="1.1" xmlns="http://www.w3.org/2000/svg" width="32" height="32" viewBox="0 0 32 32">
<title>parking</title>
<path d="M19.969 12.56q-0.106-1.235-1.058-2.152-0.988-0.811-2.223-0.811h-1.94q-0.353 0-0.353 0.388v5.998h2.47q1.411 0 2.258-1.023 0.953-1.094 0.847-2.399zM16.688 8.009q2.011 0.071 3.281 1.235 1.305 1.2 1.588 3.105 0.141 2.223-1.2 3.705-1.376 1.517-3.493 1.552h-2.47v4.798q0 0.353-0.247 0.564-0.247 0.247-0.565 0.247t-0.565-0.247q-0.247-0.212-0.247-0.564v-12.419q0.071-0.882 0.6-1.411 0.494-0.494 1.376-0.565h1.94zM15.982 30.377q6.174-0.176 10.196-4.198t4.198-10.161q-0.176-6.174-4.198-10.196t-10.196-4.198q-6.139 0.176-10.161 4.198t-4.198 10.196q0 5.962 4.198 10.161t10.161 4.198zM15.982 0q6.774 0.141 11.325 4.657 4.551 4.551 4.692 11.325-0.141 6.774-4.692 11.325-4.587 4.551-11.325 4.692-6.739-0.141-11.29-4.692t-4.692-11.29q0-6.668 4.692-11.361 4.728-4.657 11.29-4.657z"></path>
</svg>
