<!-- Generated by IcoMoon.io -->
<svg version="1.1" xmlns="http://www.w3.org/2000/svg" width="32" height="32" viewBox="0 0 32 32">
<title>pause-circle</title>
<path d="M21.38 10.514q0-0.388-0.282-0.67-0.282-0.247-0.741-0.247h-2.399q-0.459 0-0.706 0.247-0.318 0.247-0.318 0.67v11.008q0 0.318 0.318 0.6 0.282 0.282 0.706 0.282h2.399q0.388 0 0.741-0.282 0.282-0.282 0.282-0.6v-11.008zM15.312 10.514q0-0.388-0.282-0.67-0.282-0.247-0.741-0.247h-2.399q-0.459 0-0.706 0.247-0.318 0.247-0.318 0.67v11.008q0 0.318 0.318 0.6 0.282 0.282 0.706 0.282h2.399q0.388 0 0.741-0.282 0.282-0.282 0.282-0.6v-11.008zM15.982 0q6.774 0.141 11.325 4.657 4.551 4.551 4.692 11.325-0.141 6.774-4.692 11.325-4.587 4.551-11.325 4.692-6.739-0.141-11.29-4.692t-4.692-11.29q0-6.668 4.692-11.361 4.728-4.657 11.29-4.657z"></path>
</svg>
