<!-- Generated by IcoMoon.io -->
<svg version="1.1" xmlns="http://www.w3.org/2000/svg" width="32" height="32" viewBox="0 0 32 32">
<title>phone</title>
<path d="M29.104 27.797l0.848-0.848q0.459-0.459 0.459-1.095 0-0.6-0.459-1.024l-3.249-3.249q-0.459-0.459-1.060-0.459-0.636 0-1.060 0.459l-0.883 0.848zM27.938 28.927l-5.404-5.404q-0.812 0.565-1.801 0.565-1.342 0-2.19-0.918l-9.784-9.748q-0.883-0.918-0.883-2.225 0-0.989 0.565-1.801l-5.404-5.404-1.13 1.13q-0.494 0.494-0.283 1.13 0.565 1.872 1.554 4.203 0.883 2.225 2.861 5.545t4.309 5.651q2.225 2.261 5.581 4.309 3.179 1.907 5.545 2.861 2.119 0.883 4.238 1.519 0.6 0.212 1.095-0.283zM4.168 2.861l5.369 5.369 0.848-0.848q0.459-0.459 0.459-1.095 0-0.565-0.459-1.024l-3.249-3.249q-0.424-0.424-1.024-0.424t-1.095 0.424zM31.082 23.7q0.918 0.918 0.918 2.19t-0.918 2.19l-3.108 3.108q-0.812 0.812-2.013 0.812-0.389 0-0.706-0.106-2.437-0.812-4.45-1.66-2.366-0.954-5.757-3.002-3.391-1.978-5.863-4.45-2.366-2.366-4.486-5.898-2.049-3.391-3.002-5.757-1.024-2.366-1.589-4.38-0.212-0.706 0-1.483 0.141-0.706 0.671-1.272l3.108-3.108q0.883-0.883 2.19-0.883t2.19 0.883l3.249 3.249q0.918 0.918 0.918 2.225t-0.918 2.155l-1.625 1.625q-0.424 0.424-0.424 1.024 0 0.636 0.424 1.13l9.784 9.748q0.424 0.424 1.060 0.424t1.060-0.424l1.625-1.625q0.918-0.918 2.225-0.918 1.307 0.071 2.19 0.954z"></path>
</svg>
