<!-- Generated by IcoMoon.io -->
<svg version="1.1" xmlns="http://www.w3.org/2000/svg" width="32" height="32" viewBox="0 0 32 32">
<title>pinterest</title>
<path d="M4.715 4.662q4.486-4.486 11.267-4.662 6.746 0.177 11.302 4.662 4.556 4.556 4.698 11.338 0 3.32-1.201 6.146-1.201 2.861-3.497 5.157-4.698 4.698-11.302 4.698-2.296 0-4.556-0.671 1.236-1.872 1.66-3.426l1.095-4.38q0.53 0.883 1.589 1.413 0.954 0.53 2.296 0.6 3.885-0.106 6.252-3.108 2.366-3.038 2.402-7.841-0.035-3.85-2.826-6.464t-7.311-2.72q-5.263 0-8.547 3.285-2.861 2.967-2.861 6.711 0 2.261 0.848 3.85 0.848 1.554 2.437 2.261 0.071 0.035 0.318 0.035 0.177 0 0.212-0.035 0.177-0.177 0.247-0.318 0-0.106 0.035-0.141t0.035-0.071l0.071-0.283q0-0.212 0.035-0.247l0.177-0.812q0.035-0.247-0.247-0.706-1.060-1.166-1.060-3.108 0.035-3.249 2.225-5.439 2.119-2.19 5.651-2.225 3.179 0.071 4.874 1.66 1.766 1.625 1.801 4.45-0.071 3.709-1.448 6.040-1.448 2.402-3.638 2.472-1.236-0.071-1.872-0.742-0.671-0.671-0.671-1.589-0.035-0.742 0.177-1.554 0.141-0.53 0.6-1.907l0.141-0.389q0.494-1.589 0.494-2.614 0-1.060-0.565-1.731-0.565-0.636-1.589-0.636-1.342 0.071-2.19 1.166-0.812 1.13-0.883 2.967-0.035 0.671 0.212 1.695 0.071 0.494 0.283 0.812l-2.049 8.724q-0.389 2.013-0.283 3.638-4.344-1.907-6.887-5.828-2.578-3.885-2.649-8.795 0.141-6.781 4.698-11.338z"></path>
</svg>
