<!-- Generated by IcoMoon.io -->
<svg version="1.1" xmlns="http://www.w3.org/2000/svg" width="32" height="32" viewBox="0 0 32 32">
<title>plus</title>
<path d="M16.757 15.243h14.503q0.303 0 0.538 0.202 0.202 0.236 0.202 0.572t-0.202 0.538q-0.236 0.236-0.538 0.236h-14.503v14.469q0 0.303-0.202 0.505-0.236 0.236-0.572 0.236t-0.538-0.236q-0.236-0.202-0.236-0.505v-14.469h-14.469q-0.303 0-0.505-0.236-0.236-0.202-0.236-0.538t0.236-0.572q0.202-0.202 0.505-0.202h14.469v-14.503q0-0.303 0.236-0.538 0.202-0.202 0.538-0.202t0.572 0.202q0.202 0.236 0.202 0.538v14.503z"></path>
</svg>
