<!-- Generated by IcoMoon.io -->
<svg version="1.1" xmlns="http://www.w3.org/2000/svg" width="32" height="32" viewBox="0 0 32 32">
<title>pool</title>
<path d="M0.538 20.157c1.149 0 1.689 0.301 2.315 0.65 0.661 0.368 1.411 0.785 2.839 0.785s2.178-0.417 2.839-0.785c0.626-0.348 1.166-0.65 2.315-0.65s1.689 0.301 2.315 0.65c0.661 0.368 1.411 0.785 2.839 0.785s2.178-0.417 2.839-0.785c0.626-0.348 1.166-0.65 2.315-0.65s1.689 0.301 2.315 0.65c0.661 0.368 1.411 0.785 2.839 0.785s2.178-0.417 2.839-0.785c0.626-0.348 1.167-0.65 2.315-0.65 0.297 0 0.538-0.241 0.538-0.538s-0.241-0.538-0.538-0.538c-1.428 0-2.178 0.417-2.839 0.785-0.626 0.348-1.167 0.65-2.315 0.65-0.533 0-0.934-0.065-1.275-0.17 0-0.003 0.001-0.007 0.001-0.010v-13.441c0-1.062 0.864-1.925 1.925-1.925 0.738 0 1.421 0.431 1.739 1.098 0.128 0.268 0.449 0.382 0.717 0.254s0.382-0.449 0.254-0.717c-0.495-1.040-1.559-1.711-2.711-1.711-1.655 0-3.002 1.346-3.002 3.001v3.377h-6.033v-3.377c0-1.062 0.864-1.925 1.925-1.925 0.738-0 1.421 0.431 1.739 1.097 0.128 0.268 0.449 0.382 0.717 0.254s0.382-0.449 0.254-0.717c-0.496-1.039-1.56-1.71-2.71-1.71-1.655 0-3.001 1.346-3.001 3.001 0 0 0.003 13.551 0 13.552-0.245 0.043-0.52 0.068-0.848 0.068-1.149 0-1.689-0.301-2.315-0.65-0.661-0.368-1.411-0.785-2.839-0.785s-2.178 0.417-2.839 0.785c-0.626 0.348-1.166 0.65-2.315 0.65s-1.689-0.301-2.315-0.65c-0.661-0.368-1.411-0.785-2.839-0.785-0.297 0-0.538 0.241-0.538 0.538s0.241 0.538 0.538 0.538zM23.957 11.349v3.917h-6.033v-3.917h6.033zM17.924 16.342h6.033v3.505c-0.653-0.363-1.401-0.766-2.804-0.766-1.428 0-2.178 0.417-2.839 0.785-0.132 0.073-0.26 0.145-0.391 0.211v-3.735h-0z"></path>
<path d="M31.462 25.595c-1.428 0-2.178 0.417-2.839 0.785-0.626 0.348-1.167 0.65-2.315 0.65s-1.689-0.301-2.315-0.65c-0.661-0.368-1.41-0.785-2.839-0.785s-2.178 0.417-2.839 0.785c-0.626 0.348-1.166 0.65-2.315 0.65s-1.689-0.301-2.315-0.65c-0.661-0.368-1.411-0.785-2.839-0.785s-2.178 0.417-2.839 0.785c-0.626 0.348-1.166 0.65-2.315 0.65s-1.689-0.301-2.315-0.65c-0.661-0.368-1.411-0.785-2.839-0.785-0.297 0-0.538 0.241-0.538 0.538s0.241 0.538 0.538 0.538c1.149 0 1.689 0.301 2.315 0.65 0.661 0.368 1.411 0.785 2.839 0.785s2.178-0.417 2.839-0.785c0.626-0.348 1.166-0.65 2.315-0.65s1.689 0.301 2.315 0.65c0.661 0.368 1.411 0.785 2.839 0.785s2.178-0.417 2.839-0.785c0.626-0.348 1.166-0.65 2.315-0.65s1.689 0.301 2.315 0.65c0.661 0.368 1.411 0.785 2.839 0.785s2.178-0.417 2.839-0.785c0.626-0.348 1.167-0.65 2.315-0.65 0.297 0 0.538-0.241 0.538-0.538s-0.241-0.538-0.538-0.538z"></path>
</svg>
