<!-- Generated by IcoMoon.io -->
<svg version="1.1" xmlns="http://www.w3.org/2000/svg" width="32" height="32" viewBox="0 0 32 32">
<title>question-circle-filled</title>
<path d="M17.57 24.415q0-0.529-0.318-0.882-0.353-0.318-0.882-0.318h-0.776q-0.529 0-0.847 0.318-0.353 0.353-0.353 0.882v0.776q0 0.529 0.353 0.847 0.318 0.353 0.847 0.353h0.776q0.529 0 0.882-0.353 0.318-0.318 0.318-0.847v-0.776zM17.57 18.029q2.152-0.564 3.458-2.258 1.27-1.588 1.341-3.881-0.035-2.681-1.87-4.445-1.835-1.799-4.516-1.835-2.681 0.035-4.516 1.835-1.835 1.764-1.87 4.445v0.494q0 0.529 0.353 0.847 0.318 0.353 0.847 0.353h0.811q0.529 0 0.847-0.353 0.318-0.318 0.318-0.847v-0.494q0.035-1.27 0.953-2.187 0.882-0.882 2.258-0.882t2.258 0.882q0.917 0.917 0.953 2.187-0.071 1.129-0.706 1.94-0.67 0.811-1.764 1.094-1.058 0.247-1.694 0.988-0.635 0.67-0.635 1.693v2.752q0 0.529 0.353 0.847 0.318 0.353 0.847 0.353h0.776q0.529 0 0.882-0.318 0.318-0.318 0.318-0.847v-2.364zM15.982 0q6.774 0.141 11.325 4.657 4.551 4.551 4.692 11.325-0.141 6.774-4.692 11.325-4.587 4.551-11.325 4.692-6.739-0.141-11.29-4.692t-4.692-11.29q0-6.668 4.692-11.361 4.728-4.657 11.29-4.657z"></path>
</svg>
