<!-- Generated by IcoMoon.io -->
<svg version="1.1" xmlns="http://www.w3.org/2000/svg" width="32" height="32" viewBox="0 0 32 32">
<title>question-circle</title>
<path d="M4.698 4.698q-4.556 4.556-4.698 11.302 0.141 6.746 4.698 11.302t11.302 4.698q6.746-0.141 11.302-4.698t4.698-11.302q-0.141-6.746-4.698-11.302t-11.302-4.698q-6.746 0.141-11.302 4.698zM5.828 26.172q-4.062-4.097-4.238-10.172 0.177-6.146 4.238-10.207 4.027-4.027 10.172-4.203 6.181 0.177 10.207 4.203t4.203 10.207q-0.177 6.146-4.203 10.172-4.062 4.062-10.207 4.238-6.075-0.177-10.172-4.238zM17.554 24.371q0-0.53-0.318-0.883-0.353-0.318-0.883-0.318h-0.777q-0.53 0-0.848 0.318-0.353 0.353-0.353 0.883v0.777q0 0.53 0.353 0.848 0.318 0.353 0.848 0.353h0.777q0.53 0 0.883-0.353 0.318-0.318 0.318-0.848v-0.777zM17.554 17.978q2.155-0.565 3.461-2.261 1.272-1.589 1.342-3.885-0.035-2.684-1.872-4.45-1.837-1.801-4.521-1.837-2.684 0.035-4.521 1.837-1.837 1.766-1.872 4.45v0.494q0 0.53 0.353 0.848 0.318 0.353 0.848 0.353h0.812q0.53 0 0.848-0.353 0.318-0.318 0.318-0.848v-0.494q0.035-1.272 0.954-2.19 0.883-0.883 2.261-0.883t2.26 0.883q0.918 0.918 0.954 2.19-0.071 1.13-0.706 1.943-0.671 0.812-1.766 1.095-1.060 0.247-1.695 0.989-0.636 0.671-0.636 1.695v2.755q0 0.53 0.353 0.848 0.318 0.353 0.848 0.353h0.777q0.53 0 0.883-0.318 0.318-0.318 0.318-0.848v-2.366z"></path>
</svg>
