<!-- Generated by IcoMoon.io -->
<svg version="1.1" xmlns="http://www.w3.org/2000/svg" width="29" height="32" viewBox="0 0 29 32">
<title>question</title>
<path d="M17.067 23.988q0.414 0 0.691 0.322 0.322 0.276 0.322 0.691v5.986q0 0.414-0.322 0.691-0.276 0.322-0.691 0.322h-5.986q-0.414 0-0.691-0.322-0.322-0.276-0.322-0.691v-5.986q0-0.414 0.322-0.691 0.276-0.322 0.691-0.322h5.986zM25.999 9.991q0 1.335-0.414 2.532-0.322 1.059-0.875 1.934-0.414 0.645-1.381 1.473-0.737 0.645-1.427 1.059l-1.519 0.921q-0.967 0.506-1.704 1.611-0.691 1.013-0.691 1.658 0 0.506-0.322 0.829-0.276 0.368-0.691 0.368h-5.986q-0.368 0-0.645-0.46-0.276-0.506-0.276-0.921v-1.105q0-2.072 1.658-3.914 1.519-1.75 3.545-2.717 1.565-0.737 2.118-1.427 0.599-0.645 0.599-1.888 0-1.105-1.151-1.842-1.197-0.783-2.671-0.783-1.658 0-2.717 0.691-0.829 0.599-2.671 2.901-0.368 0.368-0.783 0.368-0.276 0-0.599-0.184l-4.098-3.131q-0.322-0.184-0.414-0.599-0.046-0.368 0.138-0.691 4.006-6.676 11.603-6.676 1.934 0 4.006 0.783 2.026 0.783 3.683 2.072 1.611 1.289 2.624 3.177 0.967 1.796 1.059 3.96z"></path>
</svg>
