<!-- Generated by IcoMoon.io -->
<svg version="1.1" xmlns="http://www.w3.org/2000/svg" width="32" height="32" viewBox="0 0 32 32">
<title>radio</title>
<path d="M25.035 28.501q-0.236-0.202-0.236-0.505v-9.321q0-0.337 0.236-0.572 0.202-0.202 0.538-0.202 0.303 0 0.538 0.202 0.202 0.236 0.202 0.572v9.321q0 0.303-0.202 0.505-0.236 0.236-0.572 0.236-0.303 0-0.505-0.236zM21.199 28.501q-0.236-0.202-0.236-0.505v-9.321q0-0.337 0.236-0.572 0.202-0.202 0.538-0.202 0.303 0 0.538 0.202 0.202 0.236 0.202 0.572v9.321q0 0.303-0.202 0.505-0.236 0.236-0.538 0.236-0.337 0-0.538-0.236zM17.363 28.501q-0.236-0.202-0.236-0.505v-9.321q0-0.337 0.236-0.572 0.202-0.202 0.538-0.202 0.303 0 0.538 0.202 0.236 0.236 0.236 0.572v9.321q0 0.303-0.236 0.505-0.236 0.236-0.538 0.236-0.337 0-0.538-0.236zM13.527 28.501q-0.236-0.202-0.236-0.505v-9.321q0-0.337 0.236-0.572 0.269-0.202 0.572-0.202t0.538 0.202q0.202 0.236 0.202 0.572v9.321q0 0.303-0.202 0.505-0.236 0.236-0.572 0.236-0.303 0-0.538-0.236zM9.725 28.501q-0.236-0.202-0.236-0.505v-9.321q0-0.337 0.236-0.572 0.202-0.202 0.538-0.202 0.303 0 0.538 0.202 0.202 0.236 0.202 0.572v9.321q0 0.303-0.202 0.505-0.236 0.236-0.572 0.236-0.303 0-0.505-0.236zM5.889 28.501q-0.236-0.202-0.236-0.505v-9.321q0-0.337 0.236-0.572 0.202-0.202 0.538-0.202 0.303 0 0.538 0.202 0.202 0.236 0.202 0.572v9.321q0 0.303-0.202 0.505-0.236 0.236-0.538 0.236-0.337 0-0.538-0.236zM30.385 16.353h-28.77l0.673 13.325q0 0.404 0.37 0.404h26.683q0.37 0 0.37-0.37zM15.983 12.484q0.303 0 0.538 0.202 0.236 0.236 0.236 0.538 0 0.337-0.236 0.538-0.236 0.236-0.538 0.236t-0.538-0.236q-0.236-0.202-0.236-0.538 0-0.303 0.236-0.538 0.269-0.202 0.538-0.202zM30.486 12.147q0-0.37-0.37-0.37h-28.231q-0.37 0-0.37 0.37l0.034 2.692h28.904zM30.116 10.263q0.808 0.067 1.346 0.538 0.471 0.538 0.538 1.346v1.918l-0.74 15.68q-0.034 0.74-0.572 1.279-0.505 0.505-1.346 0.572h-26.683q-0.841-0.067-1.346-0.572-0.505-0.471-0.572-1.312l-0.74-15.579v-1.952q0.067-0.875 0.572-1.38 0.471-0.471 1.312-0.538h28.231zM16.219 9.455q-0.538-0.538 0-1.077l7.706-7.739q0.606-0.471 1.077 0t0 1.077l-7.706 7.739q-0.236 0.202-0.538 0.202-0.337 0-0.538-0.202z"></path>
</svg>
