<!-- Generated by IcoMoon.io -->
<svg version="1.1" xmlns="http://www.w3.org/2000/svg" width="32" height="32" viewBox="0 0 32 32">
<title>rain</title>
<path d="M12.016 31.676q-0.259-0.259-0.259-0.615t0.259-0.615l1.976-1.976q0.259-0.259 0.615-0.259 0.324 0 0.648 0.259 0.259 0.324 0.259 0.615 0 0.324-0.259 0.648l-1.976 1.943q-0.324 0.259-0.648 0.259-0.356 0-0.615-0.259zM4.275 31.676q-0.292-0.259-0.292-0.615t0.259-0.615l1.976-1.976q0.324-0.259 0.648-0.259 0.292 0 0.615 0.259 0.259 0.324 0.259 0.615 0 0.324-0.259 0.648l-1.976 1.943q-0.259 0.259-0.615 0.259t-0.615-0.259zM2.688 27.433q-0.259-0.259-0.259-0.615t0.259-0.615l3.142-3.142q0.259-0.259 0.615-0.259t0.615 0.259q0.259 0.324 0.259 0.615 0 0.324-0.259 0.648l-3.109 3.109q-0.324 0.259-0.648 0.259-0.356 0-0.615-0.259zM10.462 27.401q-0.259-0.259-0.259-0.615 0-0.291 0.259-0.615l3.109-3.109q0.324-0.259 0.648-0.259 0.291 0 0.615 0.259 0.259 0.259 0.259 0.615t-0.259 0.615l-3.142 3.142q-0.259 0.259-0.615 0.259t-0.615-0.291zM18.721 27.433q-0.259-0.259-0.259-0.615t0.259-0.615l3.109-3.142q0.324-0.259 0.648-0.259 0.291 0 0.615 0.259 0.259 0.324 0.259 0.615 0 0.324-0.259 0.648l-3.109 3.109q-0.324 0.259-0.648 0.259-0.356 0-0.615-0.259zM6.931 21.117q-2.947-0.032-4.891-2.041-1.976-1.943-2.041-4.923 0.032-2.105 1.166-3.822t3.012-2.526q0.194-3.174 2.364-5.247 2.138-2.073 5.312-2.138 2.267 0 4.146 1.198 2.526-1.49 5.506-1.555 4.534 0.162 7.449 3.077 2.947 2.947 3.045 7.449-0.097 4.178-2.785 7.158-2.688 2.915-6.899 3.368h-15.385zM7.709 3.919q-1.684 1.652-1.749 4.178v0.259q0.032 0.259-0.13 0.551-0.227 0.259-0.486 0.356-1.619 0.551-2.591 1.846-0.939 1.296-1.004 3.045 0.065 2.17 1.522 3.66 1.49 1.457 3.66 1.522h15.287q3.466-0.356 5.7-2.818 2.267-2.462 2.3-5.927-0.097-3.725-2.559-6.186t-6.154-2.559q-2.753 0-5.020 1.587-0.259 0.162-0.518 0.162t-0.518-0.194q-0.745-0.551-1.684-0.907-0.907-0.292-1.911-0.292-2.462 0.032-4.146 1.717z"></path>
</svg>
