<!-- Generated by IcoMoon.io -->
<svg version="1.1" xmlns="http://www.w3.org/2000/svg" width="32" height="32" viewBox="0 0 32 32">
<title>refrigerator</title>
<path d="M24.533 0h-17.067c-0.295 0-0.533 0.239-0.533 0.533v29.867c0 0.295 0.239 0.533 0.533 0.533h1.6v0.533c0 0.295 0.239 0.533 0.533 0.533h2.133c0.295 0 0.533-0.239 0.533-0.533v-0.533h7.467v0.533c0 0.295 0.239 0.533 0.533 0.533h2.133c0.295 0 0.533-0.239 0.533-0.533v-0.533h1.6c0.295 0 0.533-0.239 0.533-0.533v-29.867c0-0.295-0.239-0.533-0.533-0.533zM24 29.867h-16v-19.2h16v19.2zM24 9.6h-16v-8.533h16v8.533z"></path>
<path d="M9.6 3.2c-0.295 0-0.533 0.239-0.533 0.533v3.2c0 0.295 0.239 0.533 0.533 0.533s0.533-0.239 0.533-0.533v-3.2c0-0.295-0.239-0.533-0.533-0.533z"></path>
<path d="M9.6 11.733c-0.295 0-0.533 0.239-0.533 0.533v3.2c0 0.295 0.239 0.533 0.533 0.533s0.533-0.239 0.533-0.533v-3.2c0-0.295-0.239-0.533-0.533-0.533z"></path>
</svg>
