<!-- Generated by IcoMoon.io -->
<svg version="1.1" xmlns="http://www.w3.org/2000/svg" width="32" height="32" viewBox="0 0 32 32">
<title>restaurant</title>
<path d="M19.334 20.666h-6.666c-1.839 0-3.333 1.496-3.333 3.333 0 0.368 0.299 0.667 0.667 0.667h12c0.368 0 0.667-0.299 0.667-0.667-0-1.837-1.495-3.333-3.333-3.333zM10.782 23.333c0.275-0.776 1.016-1.333 1.885-1.333h6.666c0.869 0 1.611 0.557 1.885 1.333h-10.437z"></path>
<path d="M26 8.667h-19.999c-0.368 0-0.667 0.299-0.667 0.667v2.667c0 0.368 0.299 0.667 0.667 0.667h19.999c0.368 0 0.667-0.299 0.667-0.667v-2.667c-0-0.368-0.299-0.667-0.667-0.667zM25.333 11.333h-18.666v-1.333h18.666v1.333z"></path>
<path d="M2.661 17.239l-1.333-9.333c-0.053-0.364-0.396-0.615-0.753-0.565-0.365 0.052-0.619 0.389-0.567 0.755l1.316 9.22-1.311 6.554c-0.072 0.361 0.163 0.712 0.524 0.784 0.044 0.009 0.088 0.013 0.132 0.013 0.311 0 0.588-0.219 0.652-0.536l1.333-6.666c0.015-0.075 0.017-0.151 0.007-0.225z"></path>
<path d="M7.334 16.667h-5.333c-0.368 0-0.667 0.299-0.667 0.667s0.299 0.667 0.667 0.667h4.667v6c0 0.368 0.299 0.667 0.667 0.667s0.667-0.299 0.667-0.667v-6.667c-0-0.368-0.299-0.667-0.667-0.667z"></path>
<path d="M30 16.667h-5.333c-0.368 0-0.667 0.299-0.667 0.667v6.666c0 0.368 0.299 0.667 0.667 0.667s0.667-0.299 0.667-0.667v-6h4.667c0.368 0 0.667-0.299 0.667-0.667s-0.299-0.667-0.667-0.667z"></path>
<path d="M31.987 23.869l-1.311-6.554 1.317-9.22c0.052-0.365-0.203-0.703-0.567-0.755-0.359-0.051-0.701 0.201-0.753 0.565l-1.333 9.333c-0.011 0.075-0.008 0.151 0.007 0.225l1.333 6.666c0.064 0.317 0.341 0.536 0.652 0.536 0.044 0 0.088-0.004 0.131-0.013 0.363-0.072 0.597-0.423 0.524-0.784z"></path>
<path d="M18.092 11.34c-0.359-0.052-0.701 0.201-0.753 0.565l-1.251 8.761h-0.177l-1.251-8.761c-0.052-0.364-0.395-0.616-0.753-0.565-0.365 0.052-0.619 0.391-0.567 0.755l1.333 9.333c0.047 0.328 0.328 0.572 0.66 0.572h1.333c0.332 0 0.613-0.244 0.659-0.572l1.333-9.333c0.052-0.365-0.203-0.703-0.567-0.755z"></path>
</svg>
