<!-- Generated by IcoMoon.io -->
<svg version="1.1" xmlns="http://www.w3.org/2000/svg" width="32" height="32" viewBox="0 0 32 32">
<title>sauna</title>
<path d="M20.781 17.359q-2.293 0.212-3.987 0.247v12.771q1.799-0.035 3.987-0.247zM15.171 17.606q-1.694-0.035-3.987-0.247v12.771q2.187 0.212 3.987 0.247zM22.368 29.883c1.243-0.172 2.351-0.431 3.419-0.78l-0.138 0.039-0.071-0.353v-12.312q-2.223 0.529-3.211 0.67v12.735zM9.596 17.112c-1.277-0.197-2.362-0.43-3.425-0.72l0.214 0.050v12.735c0.898 0.284 1.983 0.531 3.095 0.692l0.116 0.014zM30.376 14.325c-0.905 0.703-1.96 1.268-3.102 1.638l-0.073 0.020v12.665q3.175-1.235 3.175-2.646zM4.799 15.948c-1.214-0.382-2.269-0.935-3.201-1.642l0.026 0.019v11.677q0 1.411 3.175 2.646zM6.387 8.61v1.517l4.022-1.129v-1.552zM16.018 15.983c0.22 0.005 0.479 0.008 0.739 0.008 3.348 0 6.578-0.506 9.617-1.446l-0.23 0.061q4.198-1.376 4.234-2.999 0-1.588-4.198-3.034c-2.833-0.878-6.090-1.383-9.464-1.383-0.245 0-0.489 0.003-0.732 0.008l0.036-0.001c-0.029-0-0.064-0-0.098-0-1.382 0-2.747 0.077-4.089 0.227l0.165-0.015v3.775c0.001 0.011 0.001 0.023 0.001 0.036 0 0.205-0.081 0.392-0.213 0.529l0-0c-0.142 0.151-0.342 0.246-0.565 0.247h-0c-0.441-0.018-0.794-0.371-0.812-0.81l-0-0.002v-0.529l-4.022 1.129v0.988c0.001 0.011 0.001 0.023 0.001 0.036 0 0.205-0.081 0.392-0.213 0.529l0-0c-0.141 0.151-0.341 0.246-0.564 0.247h-0c-0.008 0-0.018 0.001-0.028 0.001-0.214 0-0.406-0.096-0.535-0.247l-0.001-0.001c-0.152-0.13-0.248-0.323-0.248-0.537 0-0.010 0-0.019 0.001-0.029l-0 0.001v-3.81q-3.14 1.27-3.14 2.646 0 1.623 4.234 2.999c2.818 0.878 6.057 1.384 9.415 1.384 0.25 0 0.499-0.003 0.747-0.008l-0.037 0.001zM6.387 5.4v1.552l4.022-1.164v-1.517zM31.964 11.855c0.023 0.033 0.036 0.073 0.036 0.117 0 0.009-0.001 0.017-0.002 0.025l0-0.001v14.006q-0.035 1.799-2.399 3.246c-1.732 0.974-3.748 1.701-5.886 2.066l-0.111 0.016c-2.232 0.427-4.8 0.671-7.424 0.671-0.081 0-0.163-0-0.244-0.001l0.012 0c-0.097 0.001-0.211 0.001-0.325 0.001-2.542 0-5.028-0.244-7.434-0.711l0.245 0.039c-2.238-0.394-4.24-1.119-6.061-2.132l0.098 0.050q-2.47-1.411-2.47-3.246v-14.006l0.071-0.388q0-2.646 4.728-4.34v-1.658c0-0.006 0-0.013 0-0.021 0-0.866-0.702-1.567-1.567-1.567-0.007 0-0.014 0-0.022 0h0.001c-0.008 0-0.018 0.001-0.028 0.001-0.215 0-0.407-0.096-0.537-0.247l-0.001-0.001c-0.152-0.149-0.247-0.356-0.247-0.585 0-0.005 0-0.010 0-0.015v0.001c0.001-0.223 0.096-0.423 0.247-0.564l0-0c0.137-0.132 0.323-0.213 0.528-0.213 0.013 0 0.025 0 0.037 0.001l-0.002-0c0.025-0.001 0.055-0.001 0.085-0.001 1.1 0 2.062 0.589 2.588 1.469l0.008 0.014 4.41-1.235c-0.212-0.602-0.776-1.025-1.438-1.025-0.028 0-0.055 0.001-0.083 0.002l0.004-0c-0.003 0-0.007 0-0.011 0-0.209 0-0.395-0.096-0.517-0.246l-0.001-0.001c-0.152-0.131-0.248-0.323-0.248-0.537 0-0.010 0-0.019 0.001-0.029l-0 0.001c0.001-0.223 0.096-0.423 0.247-0.565l0-0c0.124-0.151 0.31-0.247 0.519-0.247 0.003 0 0.007 0 0.010 0h-0.001c0.877 0.007 1.672 0.355 2.259 0.918l-0.001-0.001c0.574 0.582 0.934 1.376 0.953 2.254l0 0.004v2.611q2.364-0.176 4.022-0.176c0.069-0 0.151-0.001 0.233-0.001 2.598 0 5.141 0.231 7.612 0.674l-0.26-0.039c2.251 0.399 4.265 1.124 6.099 2.133l-0.102-0.051q2.399 1.447 2.399 3.281c0.001 0.012 0.001 0.026 0.001 0.039 0 0.074-0.013 0.146-0.038 0.212l0.001-0.004z"></path>
<path d="M22.654 1.039c0.056 0.215 0.089 0.461 0.089 0.715 0 0.436-0.096 0.85-0.267 1.222l0.008-0.018c-0.055 0.247-0.087 0.531-0.087 0.822 0 0.503 0.094 0.984 0.266 1.426l-0.009-0.027z"></path>
<path d="M22.301 5.306c-0.179-0.446-0.283-0.962-0.283-1.503 0-0.352 0.044-0.694 0.127-1.021l-0.006 0.029c0.143-0.312 0.227-0.678 0.227-1.062 0-0.211-0.025-0.415-0.072-0.612l0.004 0.018 0.713-0.233c0.068 0.25 0.107 0.537 0.107 0.833 0 0.489-0.106 0.953-0.297 1.371l0.008-0.021c-0.042 0.202-0.066 0.433-0.066 0.67 0 0.46 0.090 0.899 0.253 1.301l-0.008-0.023z"></path>
<path d="M18.416 8.787c0.056 0.215 0.089 0.461 0.089 0.715 0 0.436-0.096 0.85-0.267 1.222l0.008-0.018c-0.055 0.247-0.087 0.531-0.087 0.822 0 0.503 0.094 0.984 0.266 1.427l-0.009-0.027z"></path>
<path d="M18.064 13.054c-0.179-0.446-0.284-0.963-0.284-1.505 0-0.352 0.044-0.693 0.127-1.020l-0.006 0.029c0.144-0.312 0.228-0.677 0.228-1.062 0-0.21-0.025-0.414-0.072-0.61l0.004 0.018 0.713-0.234c0.067 0.249 0.106 0.536 0.106 0.831 0 0.49-0.106 0.954-0.297 1.372l0.008-0.021c-0.041 0.201-0.065 0.433-0.065 0.67 0 0.46 0.090 0.9 0.252 1.302l-0.008-0.023z"></path>
<path d="M23.695 10.185c0.056 0.215 0.089 0.461 0.089 0.715 0 0.436-0.096 0.85-0.267 1.222l0.008-0.018c-0.055 0.247-0.087 0.531-0.087 0.822 0 0.503 0.094 0.984 0.266 1.427l-0.009-0.027z"></path>
<path d="M23.342 14.452c-0.179-0.446-0.284-0.963-0.284-1.505 0-0.352 0.044-0.693 0.127-1.020l-0.006 0.029c0.144-0.312 0.228-0.677 0.228-1.062 0-0.21-0.025-0.414-0.072-0.61l0.004 0.018 0.713-0.234c0.067 0.249 0.106 0.536 0.106 0.831 0 0.49-0.106 0.954-0.297 1.372l0.008-0.021c-0.041 0.201-0.065 0.433-0.065 0.67 0 0.46 0.090 0.9 0.252 1.302l-0.008-0.023z"></path>
</svg>
