<!-- Generated by IcoMoon.io -->
<svg version="1.1" xmlns="http://www.w3.org/2000/svg" width="32" height="32" viewBox="0 0 32 32">
<title>search</title>
<path d="M29.843 29.843q0.53-0.53 0.566-1.308 0-0.743-0.566-1.308l-6.683-6.683q-0.53-0.53-1.308-0.53-0.778 0.035-1.308 0.566t-0.53 1.308q-0.035 0.778 0.495 1.308l6.718 6.648q0.566 0.566 1.308 0.566 0.813-0.071 1.308-0.566zM16.583 4.172q-2.475-2.475-6.188-2.581-3.713 0.106-6.188 2.581-2.51 2.51-2.617 6.223 0.106 3.677 2.617 6.188t6.188 2.617q3.677-0.106 6.188-2.617 2.475-2.475 2.581-6.188-0.106-3.748-2.581-6.223zM18.245 17.149l1.768 1.768q1.025-0.601 2.192-0.495 1.238 0.177 2.086 1.025l6.683 6.648q1.025 0.955 1.025 2.44t-1.025 2.44q-0.955 1.025-2.44 1.025t-2.44-1.025l-6.718-6.648q-0.849-0.884-0.955-2.086-0.141-1.131 0.46-2.192l-1.768-1.768q-2.935 2.511-6.718 2.511-4.385-0.106-7.319-3.041-2.97-2.899-3.076-7.355 0.106-4.455 3.076-7.355 2.935-2.935 7.319-3.041 4.314 0 7.355 3.041 3.006 3.041 3.006 7.355 0 3.819-2.511 6.754z"></path>
</svg>
