<!-- Generated by IcoMoon.io -->
<svg version="1.1" xmlns="http://www.w3.org/2000/svg" width="32" height="32" viewBox="0 0 32 32">
<title>service-24</title>
<path d="M31.184 18.435c-0.345-0.070-0.681 0.153-0.751 0.499-1.381 6.832-7.451 11.792-14.433 11.792-8.119 0-14.725-6.606-14.725-14.725s6.606-14.725 14.725-14.725c3.83 0 7.503 1.498 10.239 4.143h-1.648c-0.352 0-0.637 0.285-0.637 0.637s0.285 0.637 0.637 0.637h3.202c0.352 0 0.637-0.285 0.637-0.637v-3.202c0-0.352-0.285-0.637-0.637-0.637s-0.637 0.285-0.637 0.637v1.678c-2.976-2.893-6.979-4.532-11.155-4.532-4.274 0-8.292 1.664-11.314 4.686s-4.686 7.040-4.686 11.314 1.664 8.292 4.686 11.314c3.022 3.022 7.040 4.686 11.314 4.686 3.715 0 7.335-1.302 10.192-3.666 2.82-2.333 4.77-5.582 5.491-9.148 0.070-0.345-0.154-0.681-0.499-0.751z"></path>
<path d="M31.363 15.363c-0.352 0-0.637 0.285-0.637 0.637 0 0.143-0.002 0.287-0.006 0.428-0.010 0.352 0.267 0.645 0.619 0.655 0.006 0 0.012 0 0.019 0 0.344 0 0.627-0.273 0.637-0.619 0.004-0.154 0.007-0.31 0.007-0.464 0-0.352-0.285-0.638-0.637-0.638z"></path>
<path d="M15.554 21.901h-6.476v-1.259c0-2.7 6.822-4.081 6.822-8.446 0-2.193-1.705-3.898-4.040-3.898-2.152 0-3.817 1.421-3.817 3.37 0 0.609 0.203 0.832 0.609 0.832 0.467 0 0.711-0.284 0.711-0.548 0-1.604 1.056-2.396 2.457-2.396 1.868 0 2.741 1.401 2.741 2.68 0 3.553-6.862 5.035-6.862 8.405v1.969c0 0.325 0.365 0.528 0.629 0.528h7.228c0.264 0 0.487-0.305 0.487-0.629s-0.223-0.609-0.487-0.609z"></path>
<path d="M24.284 18.368h-1.117v-3.918c0-0.345-0.345-0.508-0.67-0.508-0.345 0-0.67 0.162-0.67 0.508v3.918h-3.979l4.69-9.258c0.041-0.102 0.061-0.183 0.061-0.264 0-0.325-0.386-0.548-0.65-0.548-0.244 0-0.487 0.122-0.629 0.406l-5.096 10.050c-0.061 0.102-0.081 0.223-0.081 0.345 0 0.305 0.183 0.548 0.528 0.548h5.157v2.964c0 0.345 0.325 0.528 0.67 0.528 0.325 0 0.67-0.183 0.67-0.528v-2.964h1.117c0.305 0 0.508-0.325 0.508-0.65-0-0.305-0.163-0.63-0.508-0.63z"></path>
</svg>
