<!-- Generated by IcoMoon.io -->
<svg version="1.1" xmlns="http://www.w3.org/2000/svg" width="32" height="32" viewBox="0 0 32 32">
<title>settings</title>
<path d="M15.965 20.839q2.084-0.071 3.426-1.413 1.342-1.377 1.377-3.426-0.035-2.049-1.377-3.426-1.377-1.342-3.426-1.377-2.049 0.035-3.391 1.377-1.377 1.377-1.377 3.391-0.035 2.049 1.377 3.461t3.391 1.413zM15.965 9.607q2.684 0.035 4.556 1.872 1.837 1.837 1.872 4.556-0.071 2.755-1.872 4.521-1.837 1.837-4.556 1.872-2.755-0.071-4.521-1.872-1.766-1.766-1.837-4.521-0.035-2.684 1.837-4.556t4.521-1.872zM30.375 15.011q0-0.353-0.318-0.389l-1.801-0.283q-0.848-0.141-1.625-0.812-0.706-0.6-1.095-1.448-0.318-0.671-0.247-1.731 0.035-0.954 0.6-1.766l1.024-1.483q0.212-0.283-0.035-0.53l-1.413-1.413q-0.247-0.247-0.53-0.035l-1.483 1.024q-0.742 0.53-1.66 0.565-1.024 0.106-1.801-0.247-0.848-0.318-1.483-1.060-0.671-0.777-0.812-1.625l-0.283-1.801q-0.035-0.318-0.389-0.318h-2.049q-0.318 0-0.389 0.318l-0.283 1.801q-0.141 0.848-0.812 1.625-0.6 0.706-1.448 1.095-0.53 0.247-1.448 0.247-1.236 0-2.049-0.6l-1.483-1.024q-0.283-0.212-0.53 0.035l-1.413 1.413q-0.247 0.247-0.035 0.53l1.024 1.483q0.565 0.812 0.6 1.766 0.071 1.060-0.247 1.731-0.389 0.848-1.095 1.448-0.777 0.671-1.625 0.812l-1.801 0.283q-0.318 0.035-0.318 0.389v2.049q0 0.318 0.318 0.389l1.801 0.283q0.848 0.141 1.625 0.812 0.706 0.6 1.095 1.448 0.318 0.671 0.247 1.695-0.035 0.989-0.6 1.801l-1.024 1.483q-0.212 0.283 0.035 0.53l1.413 1.413q0.247 0.247 0.53 0.035l1.483-1.024q0.812-0.6 2.049-0.6 0.812 0 1.554 0.283 0.636 0.283 1.342 1.060 0.636 0.706 0.812 1.625l0.283 1.801q0.071 0.318 0.389 0.318h2.049q0.353 0 0.389-0.318l0.283-1.801q0.141-0.848 0.812-1.625 0.6-0.706 1.448-1.095 0.53-0.247 1.448-0.247 1.236 0 2.049 0.6l1.483 1.024q0.283 0.212 0.53-0.035l1.413-1.413q0.247-0.247 0.035-0.53l-1.024-1.483q-0.565-0.812-0.6-1.801-0.071-1.024 0.247-1.695 0.389-0.848 1.095-1.448 0.777-0.671 1.625-0.812l1.801-0.283q0.318-0.071 0.318-0.389v-2.049zM30.34 13.033q0.706 0.177 1.166 0.671 0.424 0.494 0.494 1.272v2.049q0 0.777-0.459 1.272t-1.236 0.671l-1.766 0.318q-0.459 0.035-0.883 0.424-0.459 0.389-0.6 0.848-0.212 0.494-0.177 1.024 0.071 0.636 0.283 0.954l1.060 1.483q0.424 0.6 0.353 1.342-0.035 0.671-0.565 1.236l-1.413 1.413q-0.53 0.459-1.236 0.53-0.742 0.071-1.342-0.318l-1.483-1.060q-0.777-0.565-1.978-0.141-0.459 0.212-0.848 0.636t-0.424 0.883l-0.318 1.766q-0.141 0.742-0.671 1.201-0.565 0.494-1.272 0.494h-2.049q-0.706 0-1.272-0.494-0.53-0.459-0.671-1.201l-0.318-1.766q-0.035-0.459-0.424-0.883-0.353-0.424-0.848-0.636-0.565-0.177-1.024-0.141-0.636 0.071-0.954 0.283l-1.483 1.060q-0.6 0.389-1.307 0.318-0.742-0.071-1.272-0.53l-1.413-1.413q-0.53-0.565-0.565-1.236-0.071-0.742 0.353-1.342l1.060-1.483q0.212-0.318 0.283-0.954 0.035-0.459-0.141-1.024-0.212-0.494-0.636-0.848-0.424-0.389-0.883-0.424l-1.801-0.318q-0.671-0.141-1.13-0.671t-0.53-1.272v-2.049q0-0.706 0.494-1.272 0.459-0.53 1.201-0.671l1.766-0.318q0.459-0.035 0.883-0.424t0.636-0.848q0.177-0.565 0.141-1.060-0.071-0.6-0.283-0.918l-1.060-1.483q-0.424-0.6-0.353-1.342 0.035-0.671 0.565-1.236l1.413-1.413q0.565-0.53 1.272-0.565 0.671-0.035 1.307 0.353l1.483 1.060q0.777 0.565 1.978 0.141 0.494-0.212 0.848-0.636 0.389-0.424 0.424-0.883l0.318-1.766q0.177-0.777 0.671-1.236t1.272-0.459h2.049q0.777 0 1.272 0.459t0.671 1.236l0.318 1.766q0.035 0.459 0.424 0.883 0.389 0.459 0.848 0.6 0.494 0.212 1.060 0.177 0.6-0.071 0.918-0.283l1.483-1.060q0.636-0.389 1.342-0.353 0.671 0.035 1.236 0.565l1.413 1.413q0.53 0.565 0.565 1.236 0.071 0.742-0.353 1.342l-1.060 1.483q-0.212 0.318-0.283 0.918-0.035 0.565 0.177 1.060 0.141 0.459 0.6 0.848 0.424 0.389 0.883 0.424z"></path>
</svg>
