<!-- Generated by IcoMoon.io -->
<svg version="1.1" xmlns="http://www.w3.org/2000/svg" width="32" height="32" viewBox="0 0 32 32">
<title>share</title>
<path d="M29.406 22.232q1.651 1.651 1.651 4.042 0 2.358-1.651 4.008-1.651 1.718-4.076 1.718-2.358 0-4.042-1.684t-1.684-4.042q0-0.909 0.371-1.92l-8.792-4.918q-1.752 2.257-4.514 2.257-2.358 0-4.042-1.684t-1.684-4.042q0-2.392 1.651-4.042 1.583-1.583 4.008-1.651 2.728 0 4.514 2.291l8.792-4.952q-0.303-0.909-0.303-1.886 0-2.392 1.684-4.076 1.651-1.651 4.042-1.651 2.425 0 4.076 1.617t1.651 4.008-1.651 4.042q-1.684 1.684-4.076 1.684-2.695 0-4.514-2.257l-8.792 4.918q0.303 0.909 0.303 1.886 0 1.044-0.303 1.92l8.792 4.918q1.785-2.189 4.514-2.189 2.392 0 4.076 1.684zM22.568 2.931q-1.145 1.145-1.145 2.796 0 1.617 1.145 2.762t2.762 1.145q1.651 0 2.796-1.145t1.145-2.762q0-1.651-1.145-2.796t-2.796-1.145q-1.617 0-2.762 1.145zM9.432 18.728q1.145-1.145 1.145-2.762t-1.145-2.762-2.762-1.145-2.762 1.145q-1.179 1.179-1.179 2.762t1.179 2.762q1.145 1.145 2.762 1.145t2.762-1.145zM28.126 29.036q1.145-1.145 1.145-2.762 0-1.651-1.145-2.796t-2.796-1.145q-1.617 0-2.762 1.145t-1.145 2.796q0 1.617 1.145 2.762t2.762 1.145q1.651 0 2.796-1.145z"></path>
</svg>
