<!-- Generated by IcoMoon.io -->
<svg version="1.1" xmlns="http://www.w3.org/2000/svg" width="32" height="32" viewBox="0 0 32 32">
<title>shower</title>
<path d="M24.545 0h-5.11c-3.167 0-5.748 2.548-5.805 5.701-1.842 0.253-3.399 1.5-4.043 3.25h-0.17c-0.385 0-0.698 0.312-0.698 0.698v2.134c0 0.385 0.312 0.698 0.698 0.698h9.815c0.385 0 0.698-0.312 0.698-0.698v-2.134c0-0.385-0.312-0.698-0.698-0.698h-0.17c-0.644-1.749-2.197-2.995-4.037-3.249 0.056-2.384 2.012-4.307 4.41-4.307h5.11c0.385 0 0.698-0.312 0.698-0.698s-0.312-0.698-0.698-0.698zM18.535 11.085h-8.419v-0.738h8.419v0.738zM17.536 8.952h-6.421c0.628-1.154 1.845-1.903 3.211-1.903s2.583 0.75 3.211 1.903z"></path>
<path d="M10.25 13.939c-0.38-0.061-0.738 0.197-0.8 0.578l-0.344 2.135c-0.061 0.38 0.197 0.738 0.578 0.8 0.038 0.006 0.075 0.009 0.112 0.009 0.336 0 0.633-0.244 0.688-0.587l0.344-2.135c0.061-0.38-0.198-0.738-0.578-0.8z"></path>
<path d="M9.463 18.83c-0.38-0.061-0.738 0.198-0.8 0.578l-0.344 2.135c-0.061 0.38 0.197 0.738 0.578 0.8 0.038 0.006 0.075 0.009 0.112 0.009 0.336 0 0.633-0.244 0.688-0.587l0.344-2.135c0.061-0.38-0.198-0.738-0.578-0.8z"></path>
<path d="M8.675 23.72c-0.38-0.061-0.738 0.198-0.8 0.578l-0.344 2.135c-0.061 0.38 0.197 0.738 0.578 0.8 0.038 0.006 0.075 0.009 0.112 0.009 0.336 0 0.633-0.244 0.688-0.587l0.344-2.135c0.061-0.38-0.198-0.738-0.578-0.8z"></path>
<path d="M7.888 28.611c-0.381-0.061-0.738 0.198-0.8 0.578l-0.323 2.003c-0.061 0.38 0.197 0.738 0.578 0.8 0.038 0.006 0.075 0.009 0.112 0.009 0.336 0 0.633-0.244 0.688-0.587l0.323-2.003c0.061-0.38-0.197-0.738-0.578-0.8z"></path>
<path d="M12.437 23.824c-0.384-0.020-0.713 0.275-0.734 0.659l-0.116 2.16c-0.021 0.385 0.275 0.713 0.659 0.734 0.013 0.001 0.025 0.001 0.038 0.001 0.368 0 0.676-0.288 0.696-0.66l0.116-2.16c0.021-0.385-0.275-0.713-0.659-0.734z"></path>
<path d="M12.702 18.878c-0.384-0.020-0.713 0.275-0.734 0.659l-0.116 2.16c-0.021 0.385 0.275 0.713 0.659 0.734 0.013 0.001 0.025 0.001 0.038 0.001 0.368 0 0.676-0.288 0.696-0.66l0.116-2.16c0.021-0.385-0.275-0.713-0.659-0.734z"></path>
<path d="M12.171 28.77c-0.384-0.021-0.713 0.275-0.734 0.659l-0.098 1.835c-0.021 0.385 0.275 0.713 0.659 0.734 0.013 0.001 0.025 0.001 0.038 0.001 0.368 0 0.676-0.288 0.696-0.66l0.098-1.835c0.021-0.385-0.274-0.713-0.659-0.734z"></path>
<path d="M12.967 13.931c-0.385-0.020-0.713 0.275-0.734 0.659l-0.116 2.16c-0.021 0.385 0.275 0.713 0.659 0.734 0.013 0.001 0.025 0.001 0.038 0.001 0.368 0 0.676-0.288 0.696-0.66l0.116-2.16c0.021-0.385-0.275-0.713-0.659-0.734z"></path>
<path d="M16.367 27.378c0.013 0 0.025-0 0.038-0.001 0.385-0.021 0.68-0.349 0.659-0.734l-0.116-2.16c-0.021-0.385-0.349-0.68-0.734-0.659s-0.68 0.349-0.659 0.734l0.116 2.16c0.020 0.372 0.328 0.66 0.696 0.66z"></path>
<path d="M17.214 29.43c-0.021-0.385-0.348-0.679-0.734-0.659s-0.68 0.349-0.659 0.734l0.098 1.835c0.020 0.372 0.328 0.66 0.696 0.66 0.013 0 0.025-0 0.038-0.001 0.385-0.021 0.68-0.349 0.659-0.734l-0.099-1.835z"></path>
<path d="M15.836 17.485c0.013 0 0.025-0 0.038-0.001 0.385-0.021 0.68-0.349 0.659-0.734l-0.116-2.16c-0.021-0.385-0.349-0.68-0.734-0.659s-0.68 0.349-0.659 0.734l0.116 2.16c0.020 0.372 0.328 0.66 0.696 0.66z"></path>
<path d="M16.102 22.432c0.013 0 0.025-0 0.038-0.001 0.385-0.021 0.68-0.349 0.659-0.734l-0.116-2.16c-0.021-0.385-0.349-0.68-0.734-0.659s-0.68 0.349-0.659 0.734l0.116 2.16c0.020 0.372 0.328 0.66 0.696 0.66z"></path>
<path d="M20.541 27.233c0.38-0.061 0.639-0.419 0.578-0.8l-0.344-2.135c-0.061-0.38-0.419-0.639-0.8-0.578s-0.639 0.419-0.578 0.8l0.344 2.135c0.055 0.343 0.351 0.587 0.688 0.587 0.037 0 0.074-0.003 0.112-0.009z"></path>
<path d="M21.562 29.188c-0.061-0.38-0.42-0.639-0.8-0.578s-0.639 0.419-0.578 0.8l0.323 2.003c0.055 0.343 0.351 0.587 0.688 0.587 0.037 0 0.074-0.003 0.112-0.009 0.38-0.061 0.639-0.419 0.578-0.8l-0.323-2.003z"></path>
<path d="M18.966 17.452c0.38-0.061 0.639-0.419 0.578-0.8l-0.344-2.135c-0.061-0.38-0.419-0.639-0.8-0.578s-0.639 0.419-0.578 0.8l0.344 2.135c0.055 0.343 0.351 0.587 0.688 0.587 0.037-0 0.074-0.003 0.112-0.009z"></path>
<path d="M19.753 22.343c0.38-0.061 0.639-0.419 0.578-0.8l-0.344-2.135c-0.061-0.38-0.419-0.639-0.8-0.578s-0.639 0.419-0.578 0.8l0.344 2.135c0.055 0.343 0.351 0.587 0.688 0.587 0.037-0 0.074-0.003 0.112-0.009z"></path>
</svg>
