<!-- Generated by IcoMoon.io -->
<svg version="1.1" xmlns="http://www.w3.org/2000/svg" width="32" height="32" viewBox="0 0 32 32">
<title>smoke</title>
<path d="M30.486 21.728q0-0.404-0.404-0.404h-1.11v4.576h1.11q0.404 0 0.404-0.37v-3.802zM27.424 21.325h-1.514v4.576h1.514v-4.576zM24.362 21.325h-13.695v4.576h13.695v-4.576zM9.119 21.325h-7.234q-0.37 0-0.37 0.404v3.802q0 0.37 0.37 0.37h7.234v-4.576zM32 25.531q-0.067 0.841-0.572 1.312-0.505 0.505-1.346 0.572h-28.198q-0.841-0.067-1.312-0.572-0.505-0.471-0.572-1.312v-3.802q0.067-0.841 0.572-1.346 0.471-0.505 1.312-0.572h28.198q0.841 0.067 1.346 0.572t0.572 1.346v3.802zM29.746 15.1q0.034-1.077-0.639-2.927-0.639-1.682-1.884-3.331-0.404-0.639 0.135-1.043 0.538-0.337 1.077 0.101 2.221 2.995 2.726 5.821 0.505 2.86-0.909 4.374-0.202 0.202-0.538 0.202-0.269 0-0.538-0.202-0.538-0.538 0-1.077 0.505-0.673 0.572-1.918zM26.111 14.023q-0.202-0.673-0.572-1.481l-0.875-1.582q-0.639-1.144-0.841-1.615-0.337-0.841-0.538-1.481-0.269-0.909-0.135-1.582 0.101-0.74 0.606-1.38 0.471-0.538 1.043-0.168 0.538 0.404 0.168 1.077-0.236 0.337-0.303 0.774-0.067 0.505 0.135 1.009 0.168 0.538 0.471 1.178 0.37 0.841 0.74 1.447l0.942 1.783q0.269 0.572 0.639 1.75 0.337 1.144 0.303 2.154t-0.572 1.985q-0.202 0.404-0.673 0.404-0.202 0-0.337-0.067-0.673-0.37-0.37-1.009 0.774-1.447 0.168-3.197z"></path>
</svg>
