<!-- Generated by IcoMoon.io -->
<svg version="1.1" xmlns="http://www.w3.org/2000/svg" width="32" height="32" viewBox="0 0 32 32">
<title>star</title>
<path d="M30.297 13.043q0.202-0.202 0.134-0.538-0.101-0.269-0.302-0.336h-10.012q-0.538 0-0.706-0.504l-3.091-9.844q-0.101-0.302-0.336-0.302t-0.336 0.235l-3.091 9.912q-0.134 0.504-0.706 0.504h-9.979q-0.235 0.067-0.269 0.336-0.101 0.336 0.101 0.538l8.030 6.216q0.437 0.269 0.269 0.84l-3.057 9.811q-0.034 0.202 0.101 0.403 0.168 0.202 0.403 0.067l8.064-6.148q0.269-0.168 0.47-0.168t0.47 0.168l8.064 6.148q0.269 0.134 0.47-0.067 0.101-0.235 0.034-0.403l-3.057-9.912q-0.168-0.504 0.269-0.84zM31.205 14.253l-7.627 5.813 2.923 9.408q0.235 1.008-0.302 1.747-0.538 0.706-1.512 0.773-0.605 0-1.109-0.403l-7.593-5.779-7.593 5.779q-0.638 0.437-1.378 0.302-0.739-0.101-1.243-0.706-0.605-0.806-0.269-1.713l2.889-9.34-7.627-5.88q-1.075-0.874-0.638-2.251 0.202-0.605 0.672-0.974t1.075-0.37h9.408l2.923-9.34q0.202-0.605 0.672-0.974 0.437-0.336 1.109-0.336 0.571 0 1.109 0.37 0.47 0.437 0.672 1.008l2.923 9.273h9.408q0.571 0 1.109 0.37 0.47 0.37 0.672 0.974 0.437 1.378-0.672 2.251z"></path>
</svg>
