<!-- Generated by IcoMoon.io -->
<svg version="1.1" xmlns="http://www.w3.org/2000/svg" width="32" height="32" viewBox="0 0 32 32">
<title>star-filled</title>
<path d="M30.481 14.336l-7.264 5.536 2.784 8.96q0.224 0.96-0.288 1.664-0.512 0.672-1.44 0.736-0.576 0-1.056-0.384l-7.232-5.504-7.232 5.504q-0.608 0.416-1.312 0.288-0.704-0.096-1.184-0.672-0.576-0.768-0.256-1.632l2.752-8.896-7.264-5.6q-1.024-0.832-0.608-2.144 0.192-0.576 0.64-0.928t1.024-0.352h8.96l2.784-8.896q0.192-0.576 0.64-0.928 0.416-0.32 1.056-0.32 0.544 0 1.056 0.352 0.448 0.416 0.64 0.96l2.784 8.832h8.96q0.544 0 1.056 0.352 0.448 0.352 0.64 0.928 0.416 1.312-0.64 2.144z"></path>
</svg>
