<!-- Generated by IcoMoon.io -->
<svg version="1.1" xmlns="http://www.w3.org/2000/svg" width="32" height="32" viewBox="0 0 32 32">
<title>stat</title>
<path d="M3.040 26.752q-0.704-0.064-1.12-0.48t-0.48-1.12v-8.928q0.064-0.736 0.48-1.152 0.448-0.448 1.12-0.448h4.832q0.704 0 1.152 0.448t0.448 1.152v8.928q0 0.672-0.448 1.12-0.416 0.416-1.152 0.48h-4.832zM7.712 24.96v-8.576h-4.48v8.576h4.48zM13.44 26.752q-0.704-0.064-1.152-0.48-0.416-0.416-0.48-1.12v-23.552q0.064-0.704 0.48-1.12 0.448-0.448 1.152-0.48h4.8q0.736 0.032 1.152 0.48 0.448 0.448 0.448 1.12v23.552q0 0.672-0.448 1.12-0.416 0.416-1.152 0.48h-4.8zM18.080 24.96v-23.168h-4.48v23.168h4.48zM23.904 26.752q-0.704-0.064-1.12-0.48t-0.48-1.12v-15.232q0.064-0.736 0.48-1.152 0.448-0.448 1.12-0.448h4.832q0.704 0 1.152 0.448t0.448 1.152v15.232q0 0.672-0.448 1.12-0.416 0.416-1.152 0.48h-4.832zM28.576 24.96v-14.88h-4.48v14.88h4.48zM1.184 32q-0.384 0-0.64-0.256t-0.256-0.64 0.256-0.64 0.64-0.256h29.664q0.384 0 0.64 0.256 0.224 0.224 0.224 0.64t-0.224 0.64q-0.256 0.256-0.64 0.256h-29.664z"></path>
</svg>
