<!-- Generated by IcoMoon.io -->
<svg version="1.1" xmlns="http://www.w3.org/2000/svg" width="32" height="32" viewBox="0 0 32 32">
<title>sun-cloud</title>
<path d="M8.081 21.955q-1.168-1.103-1.72-2.467-0.617-1.363-0.617-2.953 0.065-3.181 2.174-5.29t5.29-2.207q2.402 0.065 4.252 1.331 1.882 1.298 2.726 3.538 0.162 0.325 0 0.682-0.13 0.292-0.519 0.454-0.292 0.13-0.682-0.032-0.292-0.13-0.454-0.487-0.617-1.623-2.077-2.694-1.396-0.941-3.245-1.006-2.402 0.032-4.024 1.655-1.655 1.655-1.688 4.057 0 1.168 0.487 2.239 0.422 1.006 1.331 1.882 0.26 0.292 0.292 0.617 0 0.325-0.26 0.649-0.292 0.292-0.649 0.292t-0.617-0.26zM0.876 17.444q-0.357 0-0.617-0.26t-0.26-0.617q0-0.389 0.26-0.649t0.617-0.26h2.629q0.389 0 0.649 0.26t0.26 0.649q0 0.357-0.26 0.617t-0.649 0.26h-2.629zM13.501 28.641q-2.207-0.032-3.732-1.558t-1.558-3.732q0.065-1.655 0.844-2.856 0.844-1.298 2.207-1.947 0.195-2.369 1.785-3.862t4.024-1.59h0.13q1.493 0 2.921 0.844 1.785-1.103 3.992-1.103 3.343 0.097 5.582 2.337 2.207 2.272 2.304 5.582-0.032 3.116-2.077 5.355-2.045 2.207-5.193 2.531h-11.229zM17.103 14.88q-1.785 0.032-2.921 1.168-1.071 1.071-1.136 2.888v0.195q0.032 0.227-0.13 0.519-0.227 0.26-0.487 0.357-1.103 0.389-1.753 1.266-0.682 0.909-0.682 2.077 0.065 1.493 1.039 2.499 0.941 0.974 2.467 1.039h11.132q2.402-0.292 3.959-2.012 1.59-1.72 1.623-4.122-0.032-2.564-1.785-4.349-1.72-1.753-4.316-1.785-1.915 0-3.505 1.103-0.519 0.325-1.071 0-0.325-0.325-0.941-0.584-0.682-0.26-1.396-0.26h-0.097zM12.56 7.513q-0.26-0.26-0.26-0.649v-2.629q0-0.389 0.26-0.649 0.227-0.227 0.649-0.227t0.649 0.227 0.227 0.649v2.629q0 0.422-0.227 0.649-0.26 0.26-0.649 0.26t-0.649-0.26zM19.44 10.304q-0.292-0.26-0.292-0.617 0-0.292 0.26-0.617l1.103-1.071q0.26-0.26 0.617-0.26t0.617 0.26q0.26 0.325 0.26 0.617 0 0.325-0.26 0.649l-1.071 1.071q-0.26 0.26-0.617 0.26t-0.617-0.292zM4.641 25.103q-0.26-0.26-0.26-0.617t0.26-0.617l1.071-1.103q0.325-0.26 0.649-0.26 0.357 0 0.617 0.26 0.26 0.325 0.26 0.617 0 0.325-0.26 0.649l-1.071 1.071q-0.325 0.26-0.649 0.26-0.357 0-0.617-0.26zM5.712 10.337l-1.071-1.071q-0.26-0.325-0.26-0.649t0.292-0.617q0.26-0.26 0.617-0.26 0.292 0 0.617 0.26l1.071 1.071q0.26 0.325 0.26 0.617 0 0.357-0.26 0.617-0.227 0.292-0.617 0.292-0.325 0-0.649-0.26z"></path>
</svg>
