<!-- Generated by IcoMoon.io -->
<svg version="1.1" xmlns="http://www.w3.org/2000/svg" width="32" height="32" viewBox="0 0 32 32">
<title>sun</title>
<path d="M10.236 21.715q-2.293-2.293-2.389-5.748 0.097-3.455 2.389-5.748t5.78-2.389q3.487 0.097 5.78 2.389 2.26 2.26 2.357 5.748-0.097 3.455-2.389 5.748t-5.748 2.389q-3.487-0.097-5.78-2.389zM11.495 11.447q-1.841 1.841-1.873 4.521 0.032 2.648 1.873 4.488 1.841 1.808 4.488 1.873 2.648-0.032 4.521-1.873 1.841-1.841 1.873-4.488-0.032-2.68-1.873-4.521-1.808-1.841-4.488-1.873-2.68 0.032-4.521 1.873zM15.37 5.958q-0.258-0.258-0.258-0.646v-4.424q0-0.387 0.258-0.646 0.226-0.226 0.646-0.226t0.646 0.226 0.226 0.646v4.424q0 0.42-0.226 0.646-0.258 0.258-0.646 0.258t-0.646-0.258zM15.37 31.726q-0.258-0.258-0.258-0.614v-4.424q0-0.387 0.258-0.646t0.614-0.258q0.388 0 0.646 0.258t0.258 0.646v4.424q0 0.355-0.258 0.614t-0.646 0.258q-0.355 0-0.614-0.258zM15.37 5.958q-0.258-0.258-0.258-0.646v-4.424q0-0.387 0.258-0.646 0.226-0.226 0.646-0.226t0.646 0.226 0.226 0.646v4.424q0 0.42-0.226 0.646-0.258 0.258-0.646 0.258t-0.646-0.258zM0.904 16.872q-0.388 0-0.646-0.258t-0.258-0.614q0-0.387 0.258-0.646t0.646-0.258h4.424q0.388 0 0.646 0.258 0.226 0.226 0.226 0.646 0 0.387-0.226 0.614-0.258 0.258-0.646 0.258h-4.424zM26.672 16.872q-0.355 0-0.614-0.258t-0.258-0.614q0-0.387 0.258-0.646t0.614-0.258h4.424q0.387 0 0.646 0.258t0.258 0.646q0 0.355-0.258 0.614t-0.646 0.258h-4.424zM22.926 9.058q-0.258-0.258-0.258-0.614t0.258-0.614l1.97-2.002q0.323-0.258 0.646-0.258 0.291 0 0.614 0.258 0.258 0.323 0.258 0.646 0 0.355-0.258 0.614l-1.97 1.97q-0.291 0.291-0.646 0.291t-0.614-0.291zM5.78 26.204q-0.258-0.258-0.258-0.614 0-0.323 0.258-0.646l1.97-1.97q0.323-0.258 0.646-0.258 0.291 0 0.614 0.258 0.258 0.323 0.258 0.646 0 0.355-0.258 0.614l-1.97 1.97q-0.258 0.258-0.646 0.258-0.355 0-0.614-0.258zM7.75 9.058l-1.97-1.97q-0.258-0.258-0.258-0.614t0.291-0.646q0.258-0.258 0.614-0.258 0.291 0 0.614 0.258l1.97 2.002q0.258 0.258 0.258 0.614t-0.258 0.614q-0.226 0.291-0.614 0.291-0.355 0-0.646-0.291zM24.896 26.204l-1.97-1.97q-0.258-0.258-0.258-0.614t0.291-0.646q0.258-0.258 0.614-0.258 0.291 0 0.614 0.258l1.97 1.97q0.258 0.323 0.258 0.646 0 0.355-0.258 0.614t-0.614 0.258q-0.323 0-0.646-0.258z"></path>
</svg>
