<!-- Generated by IcoMoon.io -->
<svg version="1.1" xmlns="http://www.w3.org/2000/svg" width="32" height="32" viewBox="0 0 32 32">
<title>tag</title>
<path d="M23.621 10.373q0.811 0 1.376-0.565 0.529-0.6 0.529-1.411 0-0.847-0.529-1.411-0.564-0.564-1.411-0.564t-1.411 0.564-0.564 1.376q-0.035 0.847 0.564 1.447t1.447 0.565zM23.621 4.798q1.517 0.071 2.505 1.058 1.023 0.988 1.058 2.54-0.035 1.517-1.058 2.54-0.988 0.988-2.54 1.058-1.517-0.071-2.54-1.058-1.023-1.023-1.023-2.54-0.035-1.482 1.023-2.54t2.576-1.058zM30.395 2.046q0-0.423-0.423-0.423h-11.29q-0.176 0-0.282 0.106l-16.653 16.688q-0.141 0.141-0.141 0.247 0 0.176 0.141 0.353l11.255 11.255q0.318 0.282 0.6 0l16.617-16.653q0.212-0.176 0.176-0.318v-11.255zM29.936 0q0.917 0.035 1.447 0.6 0.564 0.529 0.6 1.447v11.255q0 0.811-0.6 1.411l-16.653 16.688q-0.6 0.6-1.411 0.6-0.847 0-1.447-0.6l-11.255-11.255q-0.6-0.6-0.6-1.482 0-0.847 0.6-1.376l16.653-16.688q0.529-0.6 1.411-0.6h11.255z"></path>
</svg>
