<!-- Generated by IcoMoon.io -->
<svg version="1.1" xmlns="http://www.w3.org/2000/svg" width="32" height="32" viewBox="0 0 32 32">
<title>telegram</title>
<path d="M0.568 15.43q-0.568-0.243-0.568-0.811t0.527-0.811l30.283-11.675q0.527-0.162 0.892 0.122t0.284 0.851l-5.432 26.148q-0.122 0.486-0.527 0.608-0.365 0.162-0.811-0.081l-7.419-5.392q-0.365-0.243-0.77-0.243-0.446 0.081-0.73 0.284l-4.135 3.365q-0.324 0.284-0.77 0.162-0.405-0.122-0.608-0.608l-2.838-9.162zM10.337 16.727q-0.892 0.608-0.649 1.622l1.581 5.473q0.081 0.203 0.203 0.243 0.162 0.041 0.324 0 0.122-0.041 0.203-0.284l0.405-3q0.122-0.892 0.73-1.5l11.918-11.067q0.162-0.081 0.081-0.203l-0.122-0.203q-0.081-0.041-0.243 0.041z"></path>
</svg>
