<!-- Generated by IcoMoon.io -->
<svg version="1.1" xmlns="http://www.w3.org/2000/svg" width="32" height="32" viewBox="0 0 32 32">
<title>toilet</title>
<path d="M26 14.668h-14.138c0.166-0.461 0.181-0.983 0.025-1.487l-3.511-11.363c-0.381-1.234-1.598-2.016-2.768-1.774-0.556 0.113-1.022 0.445-1.311 0.932-0.316 0.533-0.385 1.206-0.187 1.846l3.511 11.363c0.282 0.91 1.023 1.544 1.859 1.733-0.094 0.232-0.149 0.485-0.149 0.75 0 0.235 0.048 0.457 0.123 0.667h-0.79c-0.368 0-0.667 0.298-0.667 0.667 0 2.085 0.546 3.545 1.123 5.092 0.723 1.939 1.544 4.135 1.544 8.241 0 0.369 0.298 0.667 0.667 0.667h12c0.369 0 0.667-0.298 0.667-0.667 0-1.622-0.811-4.042-1.958-5.452 2.68-1.445 4.401-4.199 4.588-7.326 0.793-0.266 1.37-1.007 1.37-1.889 0-1.103-0.897-2-2-2zM8.897 13.79l-3.511-11.363c-0.087-0.281-0.064-0.563 0.060-0.773 0.067-0.113 0.197-0.258 0.431-0.306 0.051-0.010 0.103-0.015 0.156-0.015 0.447 0 0.914 0.369 1.072 0.877l3.511 11.363c0.087 0.281 0.064 0.563-0.060 0.773-0.067 0.113-0.197 0.258-0.431 0.306-0.482 0.102-1.051-0.294-1.227-0.862zM20.643 25.066c-0.226 0.091-0.385 0.297-0.414 0.54s0.076 0.48 0.275 0.622c0.995 0.711 1.895 2.859 2.113 4.439h-10.624c-0.083-3.922-0.898-6.104-1.621-8.041-0.488-1.306-0.917-2.456-1.017-3.959h15.951c-0.239 2.872-2.016 5.34-4.663 6.4zM26 17.333h-14.667c-0.368 0-0.667-0.299-0.667-0.667s0.299-0.667 0.667-0.667h14.667c0.368 0 0.667 0.299 0.667 0.667s-0.299 0.667-0.667 0.667z"></path>
<path d="M19.9 23.877c0.083 0 0.167-0.015 0.248-0.047 1.325-0.531 2.432-1.544 3.119-2.854 0.171-0.326 0.045-0.729-0.281-0.9-0.324-0.172-0.729-0.046-0.9 0.281-0.539 1.028-1.403 1.822-2.434 2.234-0.342 0.137-0.508 0.525-0.371 0.867 0.105 0.26 0.355 0.419 0.619 0.419z"></path>
</svg>
