<!-- Generated by IcoMoon.io -->
<svg version="1.1" xmlns="http://www.w3.org/2000/svg" width="28" height="32" viewBox="0 0 28 32">
<title>toilet-irani</title>
<path d="M19.79 32h-11.561l-6.128-5.23-2.098-19.479 4.706-0.424c0.349-1.526 2.083-6.867 9.26-6.867 7.33 0 8.794 5.267 9.066 6.819l4.679 0.477-1.934 19.468zM8.598 31h10.817l5.411-4.728 1.796-18.082-4.498-0.458-0.028-0.422c-0.018-0.257-0.527-6.31-8.127-6.31-7.433 0-8.312 6.134-8.345 6.395l-0.051 0.398-4.466 0.403 1.947 18.072z"></path>
<path d="M18.095 29.012h-8.467c-1.689-0.002-3.057-1.37-3.059-3.059v-17.305c0-1.767 1.31-6.353 7.293-6.353 5.768 0 7.293 3.894 7.293 5.952v17.706c-0.002 1.689-1.37 3.057-3.059 3.059h-0zM13.862 3.294c-6.22 0-6.293 5.299-6.293 5.353v17.305c0.001 1.137 0.922 2.058 2.059 2.059h8.467c1.137-0.001 2.058-0.922 2.059-2.059v-17.706c0-0.202-0.072-4.952-6.292-4.952z"></path>
<path d="M13.97 27.541c-1.665 0-3.016-1.35-3.016-3.016s1.35-3.016 3.016-3.016c1.665 0 3.016 1.35 3.016 3.016v0c-0.002 1.665-1.351 3.014-3.015 3.016h-0zM13.97 22.51c-1.113 0-2.016 0.902-2.016 2.016s0.902 2.016 2.016 2.016c1.113 0 2.016-0.902 2.016-2.016v0c-0.001-1.113-0.903-2.014-2.015-2.016h-0z"></path>
<path d="M22.718 10.564h4.12v1h-4.12v-1z"></path>
<path d="M22.718 13.031h3.875v1h-3.875v-1z"></path>
<path d="M22.718 15.5h3.63v1h-3.63v-1z"></path>
<path d="M22.718 18.090h3.404v1h-3.404v-1z"></path>
<path d="M22.718 20.395h3.108v1h-3.108v-1z"></path>
<path d="M0.921 10.564h4.12v1h-4.12v-1z"></path>
<path d="M1.166 13.031h3.875v1h-3.875v-1z"></path>
<path d="M1.411 15.5h3.63v1h-3.63v-1z"></path>
<path d="M1.73 18.090h3.311v1h-3.311v-1z"></path>
<path d="M1.955 20.395h3.086v1h-3.086v-1z"></path>
</svg>
