<!-- Generated by IcoMoon.io -->
<svg version="1.1" xmlns="http://www.w3.org/2000/svg" width="32" height="32" viewBox="0 0 32 32">
<title>toilet-paper</title>
<path d="M6.4 7.467c-1.285 0-2.293 1.637-2.293 3.733s1.008 3.733 2.293 3.733c1.285 0 2.293-1.637 2.293-3.733s-1.008-3.733-2.293-3.733zM6.4 13.867c-0.581 0-1.227-1.141-1.227-2.667s0.645-2.667 1.227-2.667 1.227 1.141 1.227 2.667-0.645 2.667-1.227 2.667z"></path>
<path d="M25.6 0h-19.2c-3.589 0-6.4 4.917-6.4 11.2s2.811 11.2 6.4 11.2h5.333v9.067c0 0.295 0.239 0.533 0.533 0.533h19.2c0.295 0 0.533-0.239 0.533-0.533v-20.267c0-6.283-2.811-11.2-6.4-11.2zM11.733 21.333h-2.581c1.18-1.044 2.070-2.376 2.581-3.867v3.867zM6.4 21.333c-2.891 0-5.333-4.64-5.333-10.133s2.443-10.133 5.333-10.133 5.333 4.64 5.333 10.133-2.443 10.133-5.333 10.133zM30.933 15.467h-2.133c-0.295 0-0.533 0.239-0.533 0.533s0.239 0.533 0.533 0.533h2.133v14.4h-18.133v-14.4h2.133c0.295 0 0.533-0.239 0.533-0.533s-0.239-0.533-0.533-0.533h-2.133v-4.267c0-4.544-1.472-8.363-3.648-10.133h16.448c2.891 0 5.333 4.64 5.333 10.133v4.267z"></path>
<path d="M20.267 15.467h-2.667c-0.295 0-0.533 0.239-0.533 0.533s0.239 0.533 0.533 0.533h2.667c0.295 0 0.533-0.239 0.533-0.533s-0.239-0.533-0.533-0.533z"></path>
<path d="M26.133 15.467h-2.667c-0.295 0-0.533 0.239-0.533 0.533s0.239 0.533 0.533 0.533h2.667c0.295 0 0.533-0.239 0.533-0.533s-0.239-0.533-0.533-0.533z"></path>
</svg>
