<!-- Generated by IcoMoon.io -->
<svg version="1.1" xmlns="http://www.w3.org/2000/svg" width="32" height="32" viewBox="0 0 32 32">
<title>tv-old</title>
<path d="M27.158 15.219q0.67 0 1.128 0.458t0.458 1.128-0.458 1.128-1.128 0.458-1.128-0.458-0.458-1.128 0.458-1.128 1.128-0.458zM22.363 12.751h-17.556v14.419h17.556v-14.419zM27.158 11.2q0.67 0 1.128 0.458t0.458 1.128-0.458 1.128-1.128 0.458-1.128-0.458-0.458-1.128 0.458-1.128 1.128-0.458zM23.95 27.981q0 0.282-0.212 0.564-0.247 0.247-0.599 0.247h-19.108q-0.353 0-0.564-0.247-0.247-0.247-0.247-0.564v-16.005q0-0.317 0.247-0.564 0.212-0.247 0.564-0.247h19.108q0.353 0 0.599 0.247 0.212 0.247 0.212 0.564v16.005zM30.366 10.002q0-0.423-0.388-0.423h-27.956q-0.388 0-0.388 0.423v19.989q0 0.388 0.388 0.388h27.956q0.388 0 0.388-0.388v-19.989zM16.723 7.992h13.255q0.881 0.071 1.41 0.599t0.599 1.41v19.989q-0.070 0.881-0.599 1.41t-1.41 0.599h-27.956q-0.881-0.070-1.41-0.599t-0.599-1.41v-19.989q0.070-0.881 0.599-1.41t1.41-0.599h8.426l-4.689-6.698q-0.353-0.776 0.247-1.163 0.564-0.353 1.058 0.247l5.359 7.615h2.362l5.323-7.615q0.247-0.317 0.529-0.353 0.212-0.035 0.599 0.141 0.67 0.423 0.176 1.128z"></path>
</svg>
