<!-- Generated by IcoMoon.io -->
<svg version="1.1" xmlns="http://www.w3.org/2000/svg" width="32" height="32" viewBox="0 0 32 32">
<title>twitter</title>
<path d="M28.215 7.063q2.061-1.162 2.923-3.635-1.874 1.124-4.197 1.649-1.986-2.098-4.834-2.098-2.735 0.037-4.609 1.911t-1.948 4.646q0 0.674 0.187 1.499-4.009-0.225-7.494-2.023-3.522-1.761-6.033-4.834-0.899 1.499-0.899 3.335 0 1.649 0.787 3.073 0.749 1.386 2.136 2.361-1.499-0.037-2.998-0.824v0.075q0.075 2.436 1.499 4.159 1.461 1.799 3.785 2.323-1.012 0.225-1.761 0.225-0.45 0-1.199-0.112 0.674 2.023 2.323 3.222 1.649 1.274 3.785 1.311-3.522 2.848-8.131 2.848-0.899 0-1.536-0.112 4.534 2.96 10.042 2.96 5.808-0.112 10.117-2.885 4.197-2.735 6.407-7.119 2.173-4.309 2.173-8.731l-0.037-0.824q2.061-1.536 3.297-3.41-1.874 0.862-3.785 1.012z"></path>
</svg>
