<!-- Generated by IcoMoon.io -->
<svg version="1.1" xmlns="http://www.w3.org/2000/svg" width="32" height="32" viewBox="0 0 32 32">
<title>umbrella</title>
<path d="M16.736 3.344v-0.8q0-0.32-0.192-0.544-0.224-0.192-0.544-0.192t-0.512 0.192q-0.224 0.224-0.224 0.544v0.8q-6.56 0.448-10.816 4.512-4.32 4.096-4.448 10.144 0 0.256 0.128 0.416 0.16 0.224 0.384 0.256t0.448 0q0.192-0.032 0.352-0.288 0.608-0.832 1.856-1.376 1.152-0.512 2.72-0.512 1.44 0 2.624 0.48t1.856 1.344l0.096 0.128q0.352 0.256 0.768 0.128 0.256-0.096 0.352-0.352 0.576-0.736 1.568-1.152 0.864-0.384 2.112-0.544v11.008q0.064 1.152 0.8 1.888 0.768 0.768 1.888 0.768t1.888-0.768q0.704-0.768 0.768-1.888 0-0.288-0.192-0.512-0.224-0.192-0.512-0.192-0.32 0-0.512 0.192-0.224 0.224-0.224 0.512 0 0.512-0.352 0.864t-0.864 0.352-0.864-0.352-0.352-0.864v-11.008q1.216 0.128 2.208 0.576 0.928 0.48 1.536 1.216 0.256 0.288 0.576 0.288 0.352 0 0.576-0.288 0.608-0.832 1.856-1.344 1.216-0.48 2.656-0.48 1.536 0 2.688 0.512 1.28 0.576 1.856 1.408 0.256 0.288 0.576 0.288 0.16 0 0.224-0.032 0.448-0.128 0.512-0.672-0.032-4.16-2.304-7.616-2.24-3.392-6.272-5.376-3.2-1.536-6.688-1.664zM23.296 15.504q-1.312 0.48-2.24 1.312-0.928-0.832-2.208-1.312t-2.848-0.48q-1.536 0-2.848 0.48-1.28 0.48-2.208 1.312-0.928-0.832-2.24-1.312-1.28-0.48-2.816-0.48-1.28 0-2.336 0.32-1.12 0.352-1.984 0.864 0.8-4.928 4.832-8.16 4-3.168 9.6-3.264 1.792 0 3.52 0.384 1.6 0.352 3.264 1.12 3.2 1.536 5.152 4.128 1.984 2.656 2.496 5.792-0.864-0.544-1.952-0.864-1.056-0.32-2.368-0.32-1.504 0-2.816 0.48z"></path>
</svg>
