<!-- Generated by IcoMoon.io -->
<svg version="1.1" xmlns="http://www.w3.org/2000/svg" width="32" height="32" viewBox="0 0 32 32">
<title>upload-cloud</title>
<path d="M20.39 20.39q-0.322 0-0.547-0.225l-3.12-3.12v10.613q0 0.322-0.193 0.515-0.225 0.225-0.515 0.225-0.322 0-0.515-0.225-0.225-0.193-0.225-0.515v-10.613l-3.12 3.12q-0.579 0.45-1.029 0t0-1.029l4.406-4.406 0.193-0.129q0.193-0.064 0.322-0.064 0.354 0.032 0.515 0.193l4.374 4.406q0.386 0.515-0.032 1.029-0.225 0.225-0.515 0.225zM28.398 13.443q1.64 0.9 2.637 2.541 0.901 1.576 0.965 3.506-0.064 2.894-2.026 4.76-1.994 1.962-4.856 1.994-0.129 0-0.225-0.032h-5.982v-1.447h6.078l0.193 0.032q2.219-0.032 3.763-1.576 1.512-1.512 1.544-3.763 0-1.608-0.836-2.927-0.868-1.319-2.348-1.93l-0.354-0.193v-1.061q-0.096-3.345-2.476-5.789-2.38-2.38-6.046-2.476-2.444 0.064-4.406 1.254-1.962 1.254-3.087 3.441l-0.386 0.772-0.708-0.515q-0.997-0.708-2.090-0.708-1.544 0.064-2.476 0.997-0.965 0.933-1.029 2.444 0 0.225 0.129 0.868l0.129 0.74-0.45 0.257q-1.222 0.74-1.962 1.994-0.708 1.222-0.708 2.669 0.064 2.316 1.544 3.795 1.479 1.544 3.699 1.576v0.096h6.496v1.447h-6.368q-2.894-0.096-4.76-2.058-1.962-1.994-1.994-4.824 0-1.672 0.772-3.152 0.772-1.512 2.123-2.509-0.096-0.482-0.096-0.9 0.032-2.026 1.479-3.473 1.415-1.383 3.473-1.415 1.093 0 2.251 0.547 1.319-2.219 3.602-3.538 2.187-1.222 4.856-1.286 4.181 0 6.947 2.862 2.991 2.894 2.991 6.882v0.096z"></path>
</svg>
