<!-- Generated by IcoMoon.io -->
<svg version="1.1" xmlns="http://www.w3.org/2000/svg" width="32" height="32" viewBox="0 0 32 32">
<title>volume</title>
<path d="M17.632 12.352q0.672 0.672 1.12 1.632 0.384 0.896 0.384 2.016 0 1.088-0.384 2.016-0.448 0.96-1.12 1.632l1.824 1.824q1.024-1.024 1.664-2.464 0.608-1.344 0.608-3.008t-0.608-3.008q-0.64-1.44-1.664-2.464zM25.824 10.976q-1.024-2.336-2.752-4.064l-1.792 1.792q1.408 1.376 2.208 3.264 0.8 1.824 0.8 4.032 0 2.176-0.8 4-0.832 1.92-2.208 3.296l1.792 1.824q1.76-1.76 2.752-4.096 0.96-2.272 1.024-5.024-0.064-2.752-1.024-5.024zM30.592 8.992q-1.376-3.232-3.872-5.728l-1.824 1.824q2.112 2.048 3.328 4.896 1.184 2.784 1.184 6.016t-1.184 5.984q-1.216 2.848-3.328 4.928l1.824 1.824q2.496-2.496 3.872-5.728 1.344-3.136 1.408-7.008-0.064-3.808-1.408-7.008zM6.784 21.152l7.36 6.816v-23.904l-7.232 6.816h-6.912v10.272h6.784z"></path>
</svg>
