<!-- Generated by IcoMoon.io -->
<svg version="1.1" xmlns="http://www.w3.org/2000/svg" width="32" height="32" viewBox="0 0 32 32">
<title>washing-machine</title>
<path d="M21.761 19.772q0.149 0.26 0.111 0.595-0.037 0.297-0.372 0.558-1.524 0.966-2.899 0.966-1.226 0-2.973-0.929-0.929-0.483-1.338-0.632t-1.226-0.074q-0.818 0.111-1.635 0.669-0.743 0.409-1.152-0.26-0.409-0.632 0.223-1.152 1.226-0.706 2.416-0.892 1.115-0.149 1.821 0.074 0.669 0.26 1.672 0.78 0.669 0.372 1.375 0.595 0.558 0.186 1.226 0.074 0.706-0.037 1.561-0.632 0.743-0.446 1.189 0.26zM21.724 16.427q0.409 0.632-0.223 1.152-1.524 0.966-2.899 0.966-1.078 0-2.973-0.929-0.929-0.483-1.338-0.632t-1.226-0.074q-0.818 0.111-1.635 0.669-0.743 0.409-1.189-0.26-0.149-0.26-0.111-0.595 0.037-0.297 0.372-0.558 1.189-0.743 2.416-0.929 1.115-0.149 1.821 0.074 0.669 0.26 1.672 0.781 0.669 0.372 1.375 0.632 0.558 0.186 1.226 0.074 0.706-0.037 1.561-0.632 0.743-0.409 1.152 0.26zM16 26.945q3.531-0.037 5.947-2.453t2.453-5.947q-0.074-3.605-2.453-5.984-2.416-2.416-5.947-2.453-3.531 0.037-5.947 2.453t-2.453 5.984q0 3.494 2.453 5.947t5.947 2.453zM16 8.4q4.311 0.111 7.173 2.973 2.825 2.862 2.936 7.173-0.111 4.274-2.936 7.099-2.862 2.862-7.173 2.973-4.274-0.111-7.136-2.973t-2.973-7.099q0-4.2 2.973-7.173t7.136-2.973zM10.128 6.727q-0.706 0-1.189-0.483t-0.483-1.189 0.483-1.189 1.189-0.483 1.189 0.483 0.483 1.189-0.483 1.189-1.189 0.483zM6.746 5.055q0 0.706-0.483 1.189t-1.189 0.483-1.189-0.483-0.483-1.189 0.483-1.189 1.189-0.483 1.189 0.483 0.483 1.189zM30.346 2.118q0-0.446-0.446-0.446h-27.763q-0.446 0-0.446 0.446v27.763q0 0.446 0.446 0.446h27.726q0.483 0 0.483-0.446v-27.763zM29.863 0q0.929 0.037 1.524 0.595 0.558 0.595 0.595 1.524v27.763q-0.037 0.929-0.595 1.487t-1.524 0.632h-27.726q-0.966-0.074-1.487-0.632-0.557-0.52-0.632-1.487v-27.763q0.074-0.966 0.632-1.524t1.487-0.595h27.726z"></path>
</svg>
