<!-- Generated by IcoMoon.io -->
<svg version="1.1" xmlns="http://www.w3.org/2000/svg" width="32" height="32" viewBox="0 0 32 32">
<title>wifi</title>
<path d="M31.747 11.1c-4.206-4.206-9.798-6.523-15.747-6.523s-11.541 2.317-15.747 6.523c-0.338 0.338-0.338 0.885 0 1.223s0.885 0.338 1.223 0c3.88-3.88 9.038-6.016 14.524-6.016s10.645 2.137 14.524 6.016c0.169 0.169 0.39 0.253 0.611 0.253s0.442-0.084 0.611-0.253c0.337-0.338 0.337-0.885-0-1.223z"></path>
<path d="M16 9.382c-4.665 0-9.051 1.817-12.349 5.115-0.338 0.338-0.338 0.885 0 1.223 0.169 0.169 0.39 0.253 0.611 0.253s0.442-0.084 0.611-0.253c2.972-2.972 6.924-4.609 11.127-4.609s8.155 1.637 11.127 4.609c0.338 0.337 0.885 0.337 1.223 0s0.338-0.885 0-1.223c-3.299-3.299-7.684-5.115-12.349-5.115z"></path>
<path d="M16 14.091c-3.407 0-6.611 1.327-9.020 3.736-0.338 0.338-0.338 0.885 0 1.223s0.885 0.337 1.223 0c2.083-2.083 4.852-3.23 7.797-3.23s5.715 1.147 7.797 3.23c0.169 0.169 0.39 0.253 0.611 0.253s0.442-0.084 0.611-0.253c0.338-0.337 0.338-0.885 0-1.222-2.409-2.409-5.612-3.736-9.020-3.736z"></path>
<path d="M16 18.847c-2.137 0-4.145 0.832-5.656 2.343-0.338 0.337-0.338 0.885 0 1.222s0.885 0.338 1.222 0c1.184-1.184 2.759-1.837 4.434-1.837s3.25 0.652 4.434 1.837c0.169 0.169 0.39 0.253 0.611 0.253s0.442-0.084 0.611-0.253c0.338-0.337 0.338-0.885 0-1.222-1.511-1.511-3.519-2.343-5.656-2.343z"></path>
<path d="M16 23.965c-0.443 0-0.885 0.169-1.223 0.506-0.675 0.675-0.675 1.77 0 2.445 0.338 0.338 0.78 0.507 1.223 0.507s0.885-0.169 1.223-0.507c0.675-0.675 0.675-1.77 0-2.445-0.337-0.338-0.78-0.506-1.223-0.506z"></path>
</svg>
