<!-- Generated by IcoMoon.io -->
<svg version="1.1" xmlns="http://www.w3.org/2000/svg" width="32" height="32" viewBox="0 0 32 32">
<title>wifi1</title>
<path d="M15.992 27.366q0.94 0 1.578-0.638t0.638-1.612q0-0.94-0.638-1.578t-1.612-0.638-1.612 0.638-0.638 1.578q-0.034 0.94 0.638 1.612 0.705 0.672 1.645 0.638zM15.992 21.322q1.612 0.067 2.653 1.108 1.074 1.108 1.108 2.72-0.067 1.612-1.108 2.653-1.041 1.074-2.686 1.142-1.645-0.067-2.686-1.142-1.074-1.074-1.074-2.653-0.034-1.545 1.074-2.72 1.108-1.108 2.72-1.108zM15.992 15.245q3.929 0 6.917 2.787 0.537 0.504 0.034 1.074-0.269 0.235-0.571 0.235t-0.504-0.235q-2.451-2.317-5.91-2.317-3.425 0-5.91 2.317-0.604 0.436-1.041-0.034-0.47-0.47 0-1.041 2.988-2.787 6.984-2.787zM15.958 9.133q6.581 0 11.349 4.567 0.537 0.537 0 1.074-0.201 0.235-0.504 0.235t-0.571-0.201q-4.231-4.13-10.275-4.13t-10.275 4.13q-0.537 0.437-1.041-0.034-0.504-0.437-0.034-1.074 4.768-4.567 11.349-4.567zM31.74 10.51q-0.269 0.235-0.537 0.235-0.336 0-0.537-0.235-2.921-2.821-6.749-4.399-3.761-1.511-7.958-1.511-4.13 0-7.924 1.511-3.828 1.578-6.749 4.399-0.604 0.47-1.074 0-0.436-0.437 0.034-1.074 3.19-3.089 7.253-4.768 3.996-1.612 8.462-1.612t8.495 1.612q4.063 1.679 7.253 4.768 0.571 0.571 0.034 1.074z"></path>
</svg>
