<!-- Generated by IcoMoon.io -->
<svg version="1.1" xmlns="http://www.w3.org/2000/svg" width="32" height="32" viewBox="0 0 32 32">
<title>wind</title>
<path d="M0.878 18.179q-0.358 0-0.618-0.26t-0.26-0.618q0-0.39 0.26-0.65t0.618-0.26h22.309q0.39 0 0.65 0.26t0.26 0.65q0 0.358-0.26 0.618t-0.65 0.26h-22.309zM8.098 14.699q-0.39 0-0.65-0.26t-0.26-0.618q0-0.39 0.26-0.65 0.228-0.228 0.65-0.228h19.122q0.423 0 0.65 0.228t0.228 0.65q0 0.39-0.228 0.618-0.26 0.26-0.65 0.26h-19.122zM26.602 14.439q-0.26-0.26-0.26-0.618 0-0.39 0.26-0.65 0.228-0.228 0.618-0.228 1.301-0.065 2.146-0.911t0.846-2.114q0-1.236-0.846-2.146-0.911-0.846-2.146-0.846-1.268 0-2.114 0.846t-0.911 2.146q0 0.39-0.228 0.618-0.26 0.26-0.65 0.26-0.358 0-0.618-0.26t-0.26-0.618q0.065-2.016 1.431-3.382t3.35-1.398q1.984 0.033 3.382 1.398 1.366 1.398 1.398 3.382-0.033 1.984-1.398 3.35t-3.382 1.431q-0.358 0-0.618-0.26zM0.878 21.659q-0.358 0-0.618-0.26t-0.26-0.618q0-0.39 0.26-0.65 0.228-0.228 0.618-0.228h22.309q0.423 0 0.65 0.228 0.26 0.26 0.26 0.65 0 0.358-0.26 0.618t-0.65 0.26h-22.309zM22.569 26.602q-0.26-0.26-0.26-0.618 0-0.39 0.26-0.65 0.228-0.228 0.618-0.228 0.748-0.065 1.203-0.52 0.488-0.488 0.488-1.203t-0.488-1.203q-0.488-0.455-1.203-0.488-0.358 0-0.618-0.26t-0.26-0.65 0.26-0.65q0.228-0.228 0.618-0.228 1.463 0.065 2.472 1.008 0.943 1.008 1.008 2.472-0.065 1.496-1.008 2.439-0.976 0.976-2.472 1.041-0.358 0-0.618-0.26z"></path>
</svg>
