<!-- Generated by IcoMoon.io -->
<svg version="1.1" xmlns="http://www.w3.org/2000/svg" width="32" height="32" viewBox="0 0 32 32">
<title>youtube</title>
<path d="M12.666 20.163l8.609-4.516-8.609-4.481v8.997zM31.541 22.986q-0.318 1.658-1.129 2.576-0.318 0.318-0.529 0.459-0.247 0.212-0.741 0.423-0.353 0.212-1.235 0.388-0.494 0.071-0.706 0.071-4.093 0.353-11.219 0.353l-2.152-0.035q-5.504 0-8.679-0.282l-0.882-0.141q-0.247-0.071-0.388-0.071l-0.353-0.035q-1.129-0.318-1.729-0.917t-0.917-1.411q-0.353-0.776-0.423-1.305l-0.141-0.635-0.071-0.706q-0.247-2.082-0.247-4.516v-2.434q0-2.611 0.318-5.151l0.106-0.6q0.318-1.729 1.164-2.576 0.318-0.318 0.529-0.459 0.176-0.141 0.741-0.459 0.388-0.176 1.235-0.353 0.494-0.071 0.706-0.071 4.022-0.353 11.184-0.353h1.799q5.222 0 9.42 0.353h0.282l0.847 0.141q0.247 0.035 0.882 0.318 0.706 0.388 1.2 0.882 0.741 0.741 1.129 2.505l0.071 0.318q0.035 0.176 0.035 0.353l0.071 0.706q0.282 2.046 0.282 4.445v2.434q0 2.434-0.353 5.222z"></path>
</svg>
