<!-- Generated by IcoMoon.io -->
<svg version="1.1" xmlns="http://www.w3.org/2000/svg" width="32" height="32" viewBox="0 0 32 32">
<title>air-conditioner</title>
<path d="M30.4 4.8h-28.8c-0.907 0-1.6 0.693-1.6 1.6v10.667c0 0.907 0.693 1.6 1.6 1.6h28.8c0.907 0 1.6-0.693 1.6-1.6v-10.667c0-0.907-0.693-1.6-1.6-1.6zM30.933 17.067c0 0.32-0.213 0.533-0.533 0.533h-28.8c-0.32 0-0.533-0.213-0.533-0.533v-10.667c0-0.32 0.267-0.533 0.533-0.533h28.8c0.32 0 0.533 0.213 0.533 0.533v10.667z"></path>
<path d="M13.867 9.6h4.267c0.32 0 0.533-0.213 0.533-0.533s-0.213-0.533-0.533-0.533h-4.267c-0.32 0-0.533 0.213-0.533 0.533s0.213 0.533 0.533 0.533z"></path>
<path d="M29.333 15.467h-26.667c-0.32 0-0.533 0.213-0.533 0.533s0.213 0.533 0.533 0.533h26.667c0.32 0 0.533-0.213 0.533-0.533s-0.213-0.533-0.533-0.533z"></path>
<path d="M29.333 13.333h-26.667c-0.32 0-0.533 0.213-0.533 0.533s0.213 0.533 0.533 0.533h26.667c0.32 0 0.533-0.213 0.533-0.533s-0.213-0.533-0.533-0.533z"></path>
<path d="M16.267 22.453c-0.533-0.267-0.8-0.587-0.8-0.853s0.32-0.587 0.747-0.907c0.267-0.107 0.32-0.427 0.213-0.693s-0.427-0.373-0.693-0.213c-0.853 0.48-1.333 1.12-1.333 1.813s0.48 1.333 1.333 1.867c0.533 0.267 0.8 0.587 0.8 0.853s-0.32 0.587-0.8 0.853c-0.267 0.107-0.373 0.427-0.213 0.693 0.107 0.16 0.267 0.267 0.48 0.267 0.107 0 0.16 0 0.267-0.053 0.853-0.48 1.333-1.12 1.333-1.813s-0.48-1.387-1.333-1.813z"></path>
<path d="M10.4 23.52c-0.533-0.267-0.8-0.587-0.8-0.853s0.32-0.587 0.747-0.907c0.267-0.107 0.373-0.427 0.213-0.693-0.107-0.267-0.427-0.373-0.693-0.213-0.853 0.48-1.333 1.12-1.333 1.813s0.48 1.333 1.333 1.867c0.533 0.267 0.8 0.587 0.8 0.853s-0.32 0.587-0.8 0.853c-0.267 0.107-0.373 0.427-0.213 0.693 0.107 0.16 0.267 0.267 0.48 0.267 0.107 0 0.16 0 0.267-0.053 0.853-0.48 1.333-1.12 1.333-1.813s-0.48-1.387-1.333-1.813z"></path>
<path d="M22.133 23.52c-0.533-0.267-0.8-0.587-0.8-0.853s0.32-0.587 0.747-0.907c0.267-0.107 0.32-0.427 0.213-0.693s-0.427-0.373-0.693-0.213c-0.853 0.48-1.333 1.12-1.333 1.813s0.48 1.333 1.333 1.867c0.533 0.267 0.8 0.587 0.8 0.853s-0.32 0.587-0.8 0.853c-0.267 0.107-0.373 0.427-0.213 0.693 0.107 0.16 0.267 0.267 0.48 0.267 0.107 0 0.16 0 0.267-0.053 0.853-0.48 1.333-1.12 1.333-1.813s-0.48-1.387-1.333-1.813z"></path>
</svg>
